<svg width="66" height="92" viewBox="0 0 66 92" fill="none" xmlns="http://www.w3.org/2000/svg">
<path d="M63.375 24.3765L62.1698 25.4767L55.2737 19.7088C55.5342 18.618 55.7297 17.5127 55.8593 16.3987C56.0778 14.4003 55.8349 13.6685 55.8349 13.6685C55.8349 13.6685 51.6384 5.64126 43.6002 3.61313C35.5621 1.585 28.0659 6.66202 28.0659 6.66202C28.0659 6.66202 27.5055 7.19107 26.7515 9.05441C26.3357 10.0959 25.9844 11.1621 25.6997 12.2469L16.8914 14.0524L16.3511 12.5118L24.0245 10.7525C24.8207 7.59061 25.779 5.87914 26.2056 5.2741C26.264 5.18234 26.3284 5.09454 26.3984 5.01126C27.9962 3.56672 30.8178 2.30955 34.0414 1.61309C37.2049 0.893998 40.4845 0.852548 43.6651 1.49146L44.0816 1.59655C50.4784 3.21055 56.5882 8.93846 58.034 12.9986C58.034 12.9986 58.4615 15.0915 57.4068 19.1753L63.3254 24.364L63.375 24.3765Z" fill="white"/>
<path d="M62.1076 25.7249C62.0715 25.7231 62.0361 25.7141 62.0035 25.6986L55.1037 19.9245C55.0693 19.894 55.0433 19.8551 55.0284 19.8115C55.0135 19.768 55.0101 19.7213 55.0186 19.676C55.2806 18.5962 55.4753 17.501 55.6017 16.397C55.7423 15.5358 55.7389 14.6573 55.5919 13.7972C55.3397 13.3324 51.1621 5.81667 43.5504 3.89614C35.9387 1.9756 28.6951 6.61486 28.2592 6.90081C27.7232 7.58885 27.3043 8.36073 27.0195 9.18532C26.6128 10.2192 26.2658 11.2755 25.9802 12.3492C25.9682 12.3942 25.9438 12.4348 25.9097 12.4664C25.8756 12.4979 25.8333 12.5192 25.7876 12.5276L16.983 14.3394C16.923 14.3505 16.8611 14.3403 16.8079 14.3105C16.7547 14.2807 16.7136 14.2331 16.6918 14.1762L16.1528 12.6306C16.1388 12.5876 16.1373 12.5414 16.1483 12.4975C16.1594 12.4536 16.1826 12.4137 16.2153 12.3824C16.2531 12.3394 16.3051 12.3113 16.3618 12.3033L23.8789 10.5573C24.2945 8.64393 25.0298 6.81445 26.0536 5.14595C26.1793 4.96121 26.2551 4.86948 26.2626 4.86081C26.2636 4.85057 26.2662 4.84054 26.2701 4.83102C27.9151 3.3456 30.7429 2.08472 34.0274 1.3772C37.227 0.647924 40.5448 0.606963 43.7614 1.25703L44.1779 1.36212C50.664 2.99864 56.8245 8.77631 58.3123 12.921L58.3048 12.9508C58.3244 13.0402 58.7236 15.0994 57.7112 19.099L63.5034 24.203C63.5483 24.2382 63.5804 24.2871 63.5949 24.3422C63.6072 24.3855 63.6078 24.4312 63.5969 24.4747C63.5859 24.5183 63.5637 24.5582 63.5324 24.5904L62.3259 25.6955C62.2942 25.7168 62.258 25.7305 62.2202 25.7355C62.1823 25.7406 62.1438 25.737 62.1076 25.7249ZM16.7282 12.6913L17.1031 13.7573L25.5268 12.0554C25.8087 11.0158 26.149 9.99308 26.546 8.99197C27.3187 7.07528 27.899 6.53013 27.9263 6.50535L27.9338 6.47557C28.0108 6.42109 35.6137 1.36041 43.6518 3.38854C51.69 5.41667 55.9819 13.4838 56.0252 13.5634L56.0425 13.5994C56.035 13.6292 56.3026 14.4094 56.0804 16.4439C55.9573 17.5122 55.7713 18.5723 55.5235 19.6187L62.1372 25.1464L62.9722 24.3857L57.2617 19.3551C57.228 19.3238 57.2033 19.284 57.1903 19.2398C57.1773 19.1956 57.1764 19.1488 57.1878 19.1042C58.1725 15.2983 57.8503 13.2479 57.8159 13.0491C56.3701 8.98898 50.3618 3.4239 44.0456 1.82496L43.639 1.72237C40.4928 1.08314 37.2467 1.12255 34.117 1.83799C30.9715 2.51722 28.1648 3.75704 26.5981 5.16191C26.5906 5.19169 26.5198 5.26356 26.4339 5.395C26.0471 5.96784 25.0603 7.64574 24.2889 10.7928C24.2783 10.8384 24.2549 10.88 24.2214 10.9127C24.1879 10.9454 24.1458 10.9678 24.1001 10.9774L16.7282 12.6913Z" fill="#5A5A5C"/>
<path d="M19.9266 11.1333C21.0029 11.4049 22.0953 10.7517 22.3666 9.67429C22.6379 8.59692 21.9853 7.50339 20.909 7.23183C19.8327 6.96027 18.7403 7.6135 18.469 8.69087C18.1977 9.76825 18.8503 10.8618 19.9266 11.1333Z" fill="white"/>
<path d="M19.8438 11.461C19.3936 11.3474 18.9872 11.1027 18.6759 10.7579C18.3647 10.4132 18.1625 9.98371 18.0951 9.52393C18.0277 9.06415 18.0979 8.59467 18.2971 8.17488C18.4962 7.75508 18.8152 7.40381 19.2137 7.16549C19.6123 6.92717 20.0725 6.8125 20.5361 6.83599C20.9998 6.85948 21.446 7.02007 21.8185 7.29745C22.191 7.57483 22.4729 7.95654 22.6287 8.39432C22.7844 8.83209 22.807 9.30627 22.6935 9.75689C22.5402 10.3604 22.1542 10.8786 21.6201 11.1979C21.086 11.5173 20.4473 11.6119 19.8438 11.461ZM20.8274 7.5545C20.5057 7.47334 20.1672 7.48948 19.8547 7.60089C19.5422 7.7123 19.2697 7.91398 19.0717 8.18041C18.8737 8.44685 18.759 8.76609 18.7423 9.09774C18.7255 9.4294 18.8073 9.75859 18.9775 10.0437C19.1476 10.3288 19.3984 10.5569 19.6981 10.6994C19.9977 10.8418 20.3329 10.8921 20.6611 10.8438C20.9893 10.7956 21.2959 10.651 21.542 10.4284C21.7882 10.2057 21.9628 9.915 22.0439 9.59299C22.1527 9.16119 22.0856 8.70384 21.8574 8.32155C21.6293 7.93925 21.2588 7.66334 20.8274 7.5545Z" fill="#5A5A5C"/>
<path d="M19.7167 7.64889C19.8407 7.6043 19.9731 7.588 20.1043 7.60119C20.2354 7.61438 20.3619 7.65671 20.4746 7.72511C20.5872 7.79351 20.6832 7.88625 20.7555 7.99653C20.8278 8.10682 20.8746 8.23188 20.8924 8.36258C21.0659 9.0768 19.3207 9.7873 19.3207 9.7873C19.3207 9.7873 20.4562 10.7443 21.4835 9.88958C22.5109 9.03491 21.695 7.62542 21.695 7.62542C21.695 7.62542 20.7774 6.89237 19.9172 7.22964C19.057 7.56691 19.7167 7.64889 19.7167 7.64889Z" fill="#5A5A5C"/>
<path d="M61.2596 22.0955C62.3359 22.3671 63.4283 21.7138 63.6996 20.6364C63.9709 19.5591 63.3183 18.4655 62.242 18.194C61.1657 17.9224 60.0733 18.5757 59.802 19.653C59.5307 20.7304 60.1833 21.8239 61.2596 22.0955Z" fill="white"/>
<path d="M61.1777 22.4234C60.7278 22.3098 60.3215 22.0654 60.0103 21.7208C59.6991 21.3763 59.4969 20.9471 59.4293 20.4876C59.3616 20.0281 59.4315 19.5588 59.6302 19.139C59.8289 18.7192 60.1474 18.3678 60.5455 18.1292C60.9436 17.8906 61.4034 17.7754 61.8669 17.7982C62.3303 17.8211 62.7767 17.9809 63.1494 18.2576C63.5222 18.5342 63.8046 18.9152 63.9612 19.3525C64.1177 19.7898 64.1412 20.2637 64.0288 20.7143C63.8765 21.319 63.4908 21.8386 62.9563 22.159C62.4218 22.4794 61.7822 22.5745 61.1777 22.4234ZM62.1614 18.5169C61.8395 18.4357 61.5008 18.4519 61.1881 18.5635C60.8754 18.6751 60.6028 18.8771 60.4049 19.1439C60.207 19.4106 60.0925 19.7302 60.0761 20.0621C60.0597 20.394 60.1421 20.7233 60.3128 21.0083C60.4835 21.2933 60.7348 21.5212 61.0349 21.6631C61.3351 21.8051 61.6706 21.8547 61.9989 21.8057C62.3272 21.7566 62.6336 21.6112 62.8793 21.3877C63.125 21.1643 63.299 20.8729 63.3791 20.5504C63.4849 20.1192 63.4164 19.6637 63.1883 19.2828C62.9602 18.902 62.5912 18.6267 62.1614 18.5169Z" fill="#5A5A5C"/>
<path d="M61.0508 18.6116C61.1751 18.5672 61.3078 18.5512 61.439 18.5648C61.5703 18.5784 61.6969 18.6212 61.8095 18.6901C61.9221 18.759 62.0179 18.8523 62.0898 18.963C62.1617 19.0738 62.208 19.1993 62.2252 19.3302C62.3987 20.0445 60.6547 20.75 60.6547 20.75C60.6547 20.75 61.7902 21.7069 62.8213 20.8585C63.8524 20.01 63.0328 18.5943 63.0328 18.5943C63.0328 18.5943 62.1165 17.8352 61.2513 18.1923C60.3861 18.5495 61.0508 18.6116 61.0508 18.6116Z" fill="#5A5A5C"/>
<path d="M27.4037 6.44726C27.3955 6.39519 27.3733 6.34632 27.3396 6.30585C27.3058 6.26537 27.2618 6.2348 27.2121 6.21739C27.1624 6.19998 27.1089 6.19637 27.0573 6.20695C27.0057 6.21752 26.9579 6.24189 26.9191 6.27747C26.0876 7.17101 25.6019 10.7333 24.8825 11.3912C24.0724 12.137 16.6523 12.5137 16.4166 12.5281L16.9568 14.0687L25.7652 12.2632C26.0499 11.1784 26.4011 10.1122 26.8169 9.07074C27.1454 8.23142 27.3433 7.34664 27.4037 6.44726ZM25.9005 11.5583C25.7099 12.0011 25.4314 12.311 25.2753 12.2399C25.1192 12.1688 25.1435 11.7579 25.3292 11.3138C25.5149 10.8697 25.7982 10.5611 25.9556 10.6272C26.113 10.6933 26.0874 11.1092 25.9005 11.5583Z" fill="#5A5A5C"/>
<path d="M27.4168 5.63798C27.2918 6.13436 29.8581 5.45152 31.2282 5.01591C32.3746 4.51811 33.5581 4.11069 34.7679 3.79738C36.5432 3.38987 38.3568 3.17322 40.1781 3.15109C40.1781 3.15109 40.7304 2.9262 40.3299 2.90432C38.5907 2.82083 36.8476 2.87349 35.1166 3.06182C32.4518 3.40304 27.5606 5.04605 27.4168 5.63798Z" fill="#5A5A5C"/>
<path d="M58.0905 12.9815C57.3677 10.9514 55.4735 8.50438 52.9698 6.36283C50.5234 4.22759 47.6535 2.63452 44.5485 1.68823L43.7155 1.47803C40.5349 0.839122 37.2553 0.88057 34.0918 1.59966C30.8682 2.29612 28.0466 3.5533 26.4487 4.99784C26.3788 5.08112 26.3144 5.16892 26.256 5.26067L26.3957 5.5018C27.0135 4.76552 35.9197 0.456021 43.4917 2.36654L44.3248 2.57674C51.8968 4.48726 57.7032 12.5089 57.8986 13.4504L58.1358 13.3044C58.1114 13.0871 58.0905 12.9815 58.0905 12.9815Z" fill="#5A5A5C"/>
<path d="M59.6751 22.7357C58.5496 21.8921 57.5106 20.9386 56.5737 19.889C56.5152 19.81 56.4745 19.7193 56.4541 19.6231C56.4337 19.5268 56.4343 19.4274 56.4557 19.3314C56.8015 17.6803 57.0154 16.0043 57.0955 14.3193C57.0993 14.1625 57.0682 14.0068 57.0046 13.8634C55.7105 10.9819 53.6351 8.52141 51.0141 6.76137C46.6735 3.97687 43.6831 3.37016 43.6831 3.37016L43.6218 3.61338C51.6401 5.63651 55.8565 13.6688 55.8565 13.6688C55.8565 13.6688 56.0994 14.4005 55.8809 16.399C55.7513 17.513 55.5558 18.6183 55.2953 19.709L55.4538 19.8335C55.4403 19.4567 55.4681 19.0796 55.5366 18.7088C55.6771 17.8996 56.0503 16.6687 56.2276 16.6976C56.4049 16.7265 56.398 17.7384 56.1839 18.7982C56.1136 19.2377 55.9795 19.6645 55.7858 20.0651L56.0595 20.2767L56.0482 20.3213L62.1864 25.4546C62.1864 25.4546 62.4998 25.048 59.6751 22.7357Z" fill="#5A5A5C"/>
<path d="M33.7833 19.7241C31.1292 22.2219 28.0556 23.6213 24.0742 24.9396C23.497 25.1371 22.8629 25.3308 22.2225 25.5282C21.8105 25.6565 21.3972 25.7687 20.9865 25.871C17.2644 26.8084 13.3752 26.8646 9.62758 26.0352C9.54632 26.0167 9.47403 25.9705 9.42318 25.9044C9.37261 25.8471 9.34263 25.7745 9.338 25.6981C9.02769 22.616 10.4613 18.8495 13.417 16.243C14.7859 15.0335 16.4077 14.1458 18.1637 13.645C20.3116 13.0193 22.5716 12.879 24.7802 13.2345C25.1001 13.2835 25.4113 13.3462 25.72 13.4188C29.4058 14.259 32.4613 16.45 33.8574 19.2835C33.8917 19.3548 33.9028 19.4352 33.8892 19.5132C33.8779 19.5932 33.8408 19.6673 33.7833 19.7241Z" fill="#5A5A5C"/>
<path d="M9.524 26.6161L9.48433 26.606C9.2825 26.5559 9.10221 26.4419 8.97024 26.281C8.88169 26.172 8.8165 26.0459 8.77871 25.9107L8.76533 25.7753L8.75558 25.6884C8.45088 22.2698 10.1154 18.4243 13.0152 15.8512L13.0264 15.8065L13.0761 15.7768C14.4996 14.5299 16.1819 13.6147 18.0015 13.0972C20.2339 12.4513 22.5808 12.3045 24.8761 12.6673C25.2245 12.7288 25.5468 12.789 25.8506 12.8604C29.7211 13.7419 32.9103 16.0512 34.383 19.0412C34.4761 19.2202 34.508 19.4248 34.4736 19.6237C34.4364 19.8345 34.3341 20.0284 34.1811 20.1781C31.4089 22.8097 28.2075 24.2139 24.2559 25.5185C23.68 25.7111 23.0669 25.9048 22.3943 26.1047C21.976 26.2367 21.5454 26.3551 21.1186 26.4585C17.3181 27.4095 13.3489 27.4634 9.524 26.6161ZM13.7552 16.7242C11.1523 19.0396 9.67219 22.4671 9.9057 25.4982C13.5175 26.2729 17.259 26.2054 20.8405 25.3009C21.245 25.2023 21.6533 25.0889 22.0529 24.968C22.7169 24.7607 23.3188 24.5694 23.8947 24.3769C27.6403 23.1364 30.6791 21.8126 33.271 19.3941C31.9278 16.7905 29.0667 14.7699 25.6016 13.9748C25.314 13.9022 25.0264 13.8297 24.6965 13.7992C22.5732 13.4625 20.4019 13.5977 18.3368 14.1954C16.6681 14.6684 15.1256 15.5072 13.8211 16.6511L13.7825 16.6994L13.7552 16.7242Z" fill="#5A5A5C"/>
<path d="M9.33597 25.6924C9.33597 25.6924 19.4482 18.6041 32.5583 19.1088C32.5583 19.1088 27.6901 10.7959 17.4294 13.8873C17.4332 13.8724 9.13317 17.0521 9.33597 25.6924Z" fill="#5A5A5C"/>
<path d="M31.946 19.1868C31.946 19.1868 28.3286 23.3737 24.9042 24.6583C21.4797 25.9428 13.5915 25.9375 10.7796 24.7476C13.1122 23.2504 15.6565 22.1127 18.3271 21.3728C22.6306 20.2203 28.4557 19.2669 28.4557 19.2669C27.6837 20.6248 26.7117 21.8585 25.5723 22.9264C25.5723 22.9264 29.0303 20.964 30.2134 19.1561L31.946 19.1868Z" fill="#5A5A5C"/>
<path d="M9.79806 26.3473L8.9065 25.5944C10.6468 23.584 15.1742 21.5008 21.0226 20.0149C25.4662 18.8924 31.2489 18.0234 34.1506 18.9825L33.785 20.0992C31.5886 19.3761 26.6899 19.7925 21.3056 21.1738C15.7911 22.5486 11.3755 24.5439 9.79806 26.3473Z" fill="#5A5A5C"/>
<path d="M24.084 24.9683L22.7957 20.2616C22.3143 20.3724 20.0014 20.8869 19.5087 21.0424L21.0308 26.0351L24.084 24.9683Z" fill="white"/>
<path d="M20.6514 26.7893L18.7768 20.6624L19.3228 20.4834C19.7088 20.3538 21.013 20.0546 22.2252 19.7851L22.6657 19.6903L23.2254 19.5623L24.8166 25.3485L20.6514 26.7893ZM20.245 21.4499L21.4184 25.2724L23.3781 24.5896L22.3793 20.9537C21.7973 21.0866 20.863 21.2996 20.245 21.4499Z" fill="#5A5A5C"/>
<path d="M22.6482 20.6786C22.4978 20.8729 22.3689 21.0828 22.2637 21.3049C22.1499 21.5381 22.0649 21.7843 22.0105 22.0381C21.9461 22.3005 21.9086 22.5688 21.8986 22.8387C21.8829 23.117 21.8957 23.3962 21.9367 23.6719C21.8021 23.4181 21.6925 23.1517 21.6095 22.8767C21.5229 22.5945 21.4616 22.3052 21.4264 22.0122C21.3899 21.7064 21.3864 21.3975 21.4158 21.0909C21.4461 20.7703 21.5099 20.4538 21.6061 20.1465L22.6482 20.6786Z" fill="#5A5A5C"/>
<path d="M25.7133 13.4068C25.4058 13.3292 25.0984 13.2517 24.7735 13.2225C22.8407 13.346 20.9511 13.8496 19.2129 14.7045C17.4746 15.5594 15.9217 16.7489 14.643 18.205L13.1513 18.0134C13.457 17.1542 14.0127 16.4063 14.7468 15.8661C15.9292 15.0031 13.5357 16.1729 13.4202 16.2335C10.8307 18.6632 10.6071 23.3632 10.6351 23.6079C11.547 22.8349 13.8202 21.6822 16.7207 20.6561C16.5162 19.9604 16.2042 18.4141 17.4201 18.193C18.0689 18.0875 17.8288 19.7743 17.4816 20.3782C20.0278 19.5163 22.6536 18.9108 25.32 18.5709C25.0645 17.9099 24.1321 15.2251 24.9305 14.7772C25.8157 14.2984 27.1614 14.9653 27.8507 15.7463C28.415 16.4166 28.8921 17.8937 29.0499 18.377C30.6928 18.3972 32.3213 18.6868 33.8705 19.2343C32.4682 16.4468 29.4139 14.2508 25.7133 13.4068ZM19.0034 17.2041C18.8149 17.1565 18.7387 16.81 18.8349 16.4278C18.9312 16.0456 19.1624 15.7766 19.3508 15.8242C19.5393 15.8717 19.6105 16.217 19.5143 16.5992C19.418 16.9814 19.2017 17.2541 19.0182 17.2078L19.0034 17.2041Z" fill="#5A5A5C"/>
<path d="M7.19099 70.6729L1.61661 79.2598L3.1652 80.8172L10.969 75.1262L7.19099 70.6729Z" fill="#5A5A5C"/>
<path d="M3.10335 81.5881L0.865265 79.3341L7.12382 69.7056L11.82 75.2458L3.10335 81.5881ZM2.37004 79.1805L3.20805 80.0413L10.094 75.0215L7.24778 71.6638L2.37004 79.1805Z" fill="#5A5A5C"/>
<path d="M2.58848 80.2385C2.58848 80.2385 7.12134 73.4002 8.13452 74.1099C9.14771 74.8195 2.77416 80.4227 2.77416 80.4227L2.58848 80.2385Z" fill="white"/>
<path d="M6.25505 72.1262C7.02921 72.6541 6.75999 73.9746 5.00248 75.9067C3.24497 77.8389 1.61244 79.2747 1.61244 79.2747L6.25505 72.1262Z" fill="white"/>
<path d="M3.10335 81.5881L0.865265 79.3341L7.12382 69.7056L11.82 75.2458L3.10335 81.5881ZM2.37004 79.1805L3.20805 80.0413L10.094 75.0215L7.24778 71.6638L2.37004 79.1805Z" fill="#5A5A5C"/>
<path d="M5.44222 73.6111L4.59302 74.4249L7.6585 77.6301L8.5077 76.8163L5.44222 73.6111Z" fill="#5A5A5C"/>
<path d="M43.9457 79.9466L44.788 90.1525L42.6919 90.7903L38.5153 82.0765L43.9457 79.9466Z" fill="#5A5A5C"/>
<path d="M42.3814 91.4985L37.7082 81.762L44.463 79.1269L45.4107 90.5894L42.3814 91.4985ZM39.3156 82.3945L43.0018 90.0819L44.1473 89.7216L43.4092 80.7773L39.3156 82.3945Z" fill="#5A5A5C"/>
<path d="M43.468 90.5532C43.468 90.5532 42.7148 82.3812 41.4916 82.5265C40.2684 82.6719 43.2222 90.6285 43.2222 90.6285L43.468 90.5532Z" fill="white"/>
<path d="M44.086 81.6712C43.1494 81.7675 42.7612 83.0579 43.3988 85.5944C44.0363 88.1309 44.784 90.1672 44.784 90.1672L44.086 81.6712Z" fill="white"/>
<path d="M42.3814 91.4985L37.7082 81.762L44.463 79.1269L45.4107 90.5894L42.3814 91.4985ZM39.3156 82.3945L43.0018 90.0819L44.1473 89.7216L43.4092 80.7773L39.3156 82.3945Z" fill="#5A5A5C"/>
<path d="M44.0949 83.3607L39.8782 84.7291L40.2407 85.8486L44.4575 84.4801L44.0949 83.3607Z" fill="#5A5A5C"/>
<path d="M40.288 21.6662L38.012 21.0919L37.0758 24.8098L39.3519 25.3841L40.288 21.6662Z" fill="#5A5A5C"/>
<path d="M39.7732 26.0976L36.3616 25.2368L37.5852 20.3773L40.9968 21.2381L39.7732 26.0976ZM37.7846 24.3817L38.9251 24.6695L39.5738 22.0933L38.4333 21.8055L37.7846 24.3817Z" fill="#5A5A5C"/>
<path d="M43.4852 20.5987C43.4177 20.8712 43.2873 21.1239 43.1043 21.3367C42.9769 21.4868 42.8253 21.6144 42.6558 21.7145C42.451 21.8342 42.2244 21.912 41.9893 21.9433C41.7541 21.9746 41.5151 21.9588 41.2862 21.8968L37.0315 20.8233C36.6376 20.7243 36.2882 20.4959 36.0393 20.1747C35.7903 19.8535 35.6562 19.458 35.6582 19.0514C35.6588 18.9048 35.6779 18.7589 35.7149 18.617C35.7618 18.4279 35.8393 18.2477 35.9441 18.0836C36.0938 17.8448 36.2977 17.6448 36.5394 17.5C36.9563 17.2621 37.4497 17.1971 37.914 17.3189L42.1735 18.3936C42.342 18.435 42.5029 18.5023 42.6507 18.5932C42.9876 18.7923 43.251 19.0953 43.4015 19.4569C43.5519 19.8184 43.5813 20.219 43.4852 20.5987Z" fill="#5A5A5C"/>
<path d="M43.3164 19.2733C43.2403 19.1331 43.1342 19.0115 43.0058 18.917C42.8774 18.8226 42.7297 18.7576 42.5733 18.7268L42.6443 18.5916C42.4965 18.5008 42.3356 18.4334 42.1671 18.3921L37.9125 17.3186C37.4483 17.1968 36.9549 17.2618 36.5379 17.4997C36.2963 17.6445 36.0923 17.8445 35.9427 18.0833C36.5139 17.92 37.1207 17.9316 37.6853 18.1164L41.9002 19.1799C41.843 19.4679 41.8979 19.7669 42.0536 20.0158C42.0783 20.1358 42.1312 20.2482 42.2079 20.3438C42.2845 20.4393 42.3828 20.5152 42.4946 20.5653C42.6063 20.6153 42.7284 20.6381 42.8506 20.6316C42.9729 20.6251 43.0918 20.5897 43.1977 20.5281C43.3036 20.4666 43.3933 20.3807 43.4595 20.2777C43.5257 20.1746 43.5664 20.0572 43.5784 19.9352C43.5904 19.8133 43.5732 19.6902 43.5283 19.5762C43.4834 19.4622 43.412 19.3605 43.3201 19.2795L43.3164 19.2733Z" fill="white"/>
<path d="M43.103 21.3365C42.9756 21.4866 42.824 21.6143 42.6545 21.7143C42.4497 21.834 42.2231 21.9118 41.988 21.9431C41.7529 21.9744 41.5139 21.9586 41.2849 21.8966L37.0303 20.8231C36.6364 20.7241 36.287 20.4958 36.038 20.1745C35.7891 19.8533 35.6549 19.4578 35.657 19.0513L36.1083 19.1651C36.2939 18.7421 37.2352 18.7526 38.2167 19.1692C39.0569 19.5396 39.6425 20.1044 39.6752 20.5191C40.7906 20.8952 41.938 21.1688 43.103 21.3365Z" fill="white"/>
<path d="M41.1371 22.4875L36.8825 21.414C36.3604 21.2829 35.8974 20.9802 35.5676 20.5543C35.2378 20.1284 35.0604 19.604 35.0638 19.0652C35.0663 18.8722 35.0916 18.6801 35.1394 18.493C35.2014 18.2431 35.3041 18.005 35.4434 17.7884L35.5267 17.6669C35.8078 17.2773 36.1995 16.9814 36.6508 16.8175C37.1021 16.6537 37.5922 16.6295 38.0574 16.7481L42.317 17.8228C42.5422 17.8795 42.7577 17.9695 42.9565 18.0898C43.4001 18.3555 43.7469 18.7568 43.9456 19.2346C44.1442 19.7124 44.1844 20.2415 44.0602 20.7438C43.9693 21.1061 43.7945 21.4418 43.5497 21.7237C43.3808 21.9208 43.1816 22.0897 42.9596 22.2241C42.6881 22.3858 42.3873 22.4923 42.0746 22.5375C41.7619 22.5827 41.4433 22.5657 41.1371 22.4875ZM36.3846 18.4905C36.3336 18.5846 36.2943 18.6846 36.2675 18.7882C36.2448 18.8855 36.2322 18.9849 36.2297 19.0849C36.233 19.3591 36.3271 19.6244 36.4973 19.8393C36.6675 20.0542 36.9041 20.2065 37.17 20.2724L41.4296 21.3471C41.6516 21.4028 41.8849 21.3952 42.1029 21.3252C42.3209 21.2552 42.5149 21.1256 42.6632 20.951C42.7885 20.8097 42.8781 20.6404 42.9246 20.4573C42.9883 20.2004 42.9677 19.9297 42.8659 19.6854C42.764 19.441 42.5864 19.236 42.3592 19.1005C42.2585 19.0391 42.149 18.9937 42.0345 18.9658L37.77 17.8898C37.6137 17.8493 37.4509 17.8404 37.2912 17.8636C37.1314 17.8867 36.9779 17.9414 36.8395 18.0245C36.6753 18.1194 36.5366 18.253 36.4356 18.4136L36.3846 18.4905Z" fill="#5A5A5C"/>
<path d="M53.5498 44.5857L52.3167 45.0812L52.3795 45.2378L53.6126 44.7423L53.5498 44.5857Z" fill="#5A5A5C"/>
<path d="M24.5107 79.509C38.727 83.0959 53.1565 74.4676 56.7399 60.2369C60.3232 46.0063 51.7035 31.5623 37.4872 27.9754C23.2709 24.3884 8.84146 33.0168 5.25811 47.2474C1.67475 61.478 10.2945 75.922 24.5107 79.509Z" fill="white"/>
<path d="M46.3741 60.4169C50.0594 51.9153 46.162 42.033 37.6691 38.344C29.1761 34.6549 19.3037 38.5562 15.6184 47.0577C11.9331 55.5592 15.8305 65.4416 24.3234 69.1306C32.8164 72.8196 42.6888 68.9184 46.3741 60.4169Z" fill="#FF946E"/>
<path d="M24.3664 80.0799C19.1609 78.7675 14.4611 75.9394 10.8615 71.9531C7.26181 67.9668 4.924 63.0014 4.14369 57.685C3.36339 52.3686 4.17565 46.94 6.47774 42.0857C8.77983 37.2314 12.4683 33.1696 17.0768 30.4139C21.6852 27.6582 27.0065 26.3325 32.3677 26.6043C37.7289 26.8762 42.8891 28.7334 47.1957 31.9412C51.5024 35.149 54.762 39.5631 56.5622 44.6254C58.3625 49.6877 58.6225 55.1707 57.3095 60.3809C55.5433 67.3617 51.083 73.3561 44.9071 77.0491C38.7312 80.7421 31.3441 81.8321 24.3664 80.0799ZM37.3441 28.5413C32.3649 27.285 27.1252 27.5349 22.2879 29.2594C17.4505 30.9839 13.2326 34.1056 10.1676 38.2297C7.10255 42.3538 5.32808 47.2951 5.06853 52.4287C4.80898 57.5623 6.07601 62.6576 8.70941 67.0704C11.3428 71.4832 15.2243 75.0152 19.863 77.2197C24.5018 79.4243 29.6894 80.2025 34.7699 79.4558C39.8505 78.7091 44.5957 76.4711 48.4056 73.0248C52.2155 69.5785 54.9189 65.0787 56.1739 60.0944C57.8485 53.4112 56.8064 46.3359 53.2764 40.4207C49.7464 34.5055 44.0167 30.2333 37.3441 28.5413Z" fill="#5A5A5C"/>
<path d="M38.2119 25.0965C32.5519 23.6695 26.5964 23.9545 21.0982 25.9155C15.6001 27.8765 10.8064 31.4254 7.32311 36.1135C3.83986 40.8017 1.82356 46.4184 1.52917 52.2536C1.23479 58.0887 2.67554 63.8802 5.66923 68.8957C8.66292 73.9113 13.0751 77.9256 18.3479 80.4311C23.6207 82.9366 29.5173 83.8207 35.292 82.9718C41.0668 82.1228 46.4604 79.5788 50.7908 75.6614C55.1212 71.7441 58.194 66.6294 59.6206 60.964C60.568 57.2018 60.7657 53.2896 60.2024 49.4508C59.6392 45.6121 58.3261 41.922 56.3381 38.5914C54.35 35.2607 51.726 32.3546 48.6159 30.0392C45.5058 27.7237 41.9705 26.0442 38.2119 25.0965ZM24.5107 79.509C19.4185 78.2241 14.8209 75.4567 11.3001 71.5563C7.77922 67.656 5.4929 62.7981 4.73028 57.597C3.96766 52.3959 4.76298 47.0852 7.01566 42.3366C9.26835 37.588 12.8772 33.6147 17.3858 30.9193C21.8945 28.2238 27.1004 26.9273 32.3452 27.1936C37.59 27.46 42.638 29.2772 46.851 32.4155C51.064 35.5539 54.2527 39.8723 56.0137 44.8248C57.7747 49.7772 58.0291 55.1412 56.7445 60.2383C55.8924 63.6225 54.3826 66.8055 52.3014 69.6055C50.2202 72.4055 47.6084 74.7677 44.6151 76.5572C41.6218 78.3468 38.3057 79.5285 34.8561 80.035C31.4065 80.5415 27.8913 80.3626 24.5107 79.509Z" fill="#5A5A5C"/>
<path d="M6.45045 65.191L6.7172 65.7863C6.8148 65.9851 6.9149 66.174 7.00874 66.3877C7.10259 66.6015 7.21265 66.7718 7.31771 66.9619L7.47343 67.2441L7.64654 67.52C8.08863 68.2587 8.57086 68.9725 9.09107 69.6583L9.48945 70.1706C9.61563 70.3397 9.75919 70.5026 9.89158 70.668C10.1601 71.0049 10.4459 71.3357 10.7331 71.6405C10.8717 71.8021 11.0227 71.9564 11.1688 72.1094L11.6107 72.5746C11.9152 72.8731 12.2247 73.1729 12.5317 73.4616C15.0252 75.7803 17.9262 77.6166 21.0879 78.8776C21.4821 79.0299 21.8737 79.192 22.2753 79.3145C22.6769 79.4369 23.0747 79.5954 23.4876 79.6943L24.1025 79.8494C24.3107 79.902 24.514 79.9533 24.7223 80.0058L25.9621 80.2764C27.6359 80.5873 29.3329 80.7559 31.0351 80.7804L31.6763 80.789C31.8922 80.7907 32.1018 80.7961 32.3164 80.7816L33.5989 80.7357C34.0306 80.7179 34.4548 80.6666 34.8853 80.6326L35.5266 80.578L36.1656 80.4911C36.596 80.4361 37.0253 80.386 37.4521 80.3247C37.8788 80.2635 38.3044 80.165 38.7225 80.1174L39.3677 80.0057L39.9993 79.8641L41.2798 79.5959C40.8751 79.7578 40.4605 79.9171 40.0559 80.0579L39.4403 80.2827L38.8161 80.4789L37.5565 80.8526C37.1283 80.961 36.704 81.0546 36.2771 81.158L35.6331 81.307L34.983 81.4175C34.5488 81.4874 34.1157 81.5735 33.6828 81.6173L32.3703 81.7613C32.1519 81.7907 31.9287 81.7977 31.7091 81.8109L31.048 81.8394C29.272 81.9229 27.4921 81.8276 25.7351 81.5547C25.2949 81.4806 24.8598 81.3867 24.4221 81.3026C24.2089 81.2488 23.9907 81.1938 23.7775 81.14L23.1279 80.9761C22.6965 80.8672 22.2751 80.7187 21.8499 80.585C21.4247 80.4513 21.0071 80.2879 20.5931 80.1306C15.5972 78.1512 11.3743 74.608 8.55454 70.0297C8.08821 69.2615 7.67254 68.4635 7.31019 67.641C6.95014 66.8521 6.66238 66.0321 6.45045 65.191Z" fill="#5A5A5C"/>
<path d="M43.3919 28.5678C45.6204 29.7688 47.74 31.1621 49.7267 32.7318C50.7217 33.5337 51.6627 34.4007 52.5433 35.3271C55.2071 38.1434 57.1347 41.5747 58.1549 45.3162C58.817 47.8008 59.1793 50.3557 59.2341 52.9265L59.2459 53.885C59.249 54.2078 59.2322 54.5256 59.2304 54.8472C59.218 55.4828 59.1919 56.1308 59.1361 56.7714C59.1132 57.0929 59.0691 57.4144 59.0363 57.7334C59.0034 58.0524 58.9544 58.3726 58.8955 58.6903C58.7938 59.3246 58.6661 59.9575 58.5086 60.5829C57.8891 63.0878 56.8692 65.476 55.4884 67.6551C54.7998 68.7361 54.0299 69.7631 53.1855 70.7272C52.3425 71.6893 51.4349 72.5927 50.469 73.431C49.5063 74.2629 48.4888 75.0291 47.4233 75.7244C46.3656 76.415 45.2526 77.0171 44.0958 77.5244C44.6545 77.2325 45.1922 76.8983 45.7225 76.5517C46.2528 76.2051 46.7645 75.8485 47.2713 75.4696C48.2796 74.7158 49.2405 73.9004 50.1485 73.0281C51.9665 71.3086 53.5421 69.3494 54.832 67.2044C55.1505 66.6724 55.4467 66.1242 55.7195 65.5648C55.9922 65.0054 56.2599 64.4447 56.4892 63.8691C56.9562 62.7192 57.3321 61.5343 57.6136 60.3254C57.8951 59.1172 58.0861 57.8896 58.185 56.6528C58.2346 56.0371 58.2581 55.4201 58.2631 54.7931C58.2686 54.4778 58.2792 54.1637 58.2723 53.8558L58.2555 52.9172C58.2156 50.424 57.8861 47.9439 57.2739 45.5268C56.9539 44.3252 56.5449 43.1492 56.0503 42.0084C55.5566 40.8682 54.977 39.7672 54.3166 38.715C52.9537 36.6107 51.3024 34.7084 49.411 33.0639C47.511 31.4275 45.4998 29.9252 43.3919 28.5678Z" fill="#5A5A5C"/>
<path d="M2.06177 54.2015C2.04035 53.0928 2.05739 51.9779 2.13148 50.8668C2.19091 49.7477 2.32859 48.634 2.54351 47.5341C2.99484 45.3299 3.71113 43.1885 4.67675 41.1567C6.63806 37.0602 9.53915 33.4859 13.1433 30.7254C16.7475 27.965 20.9526 26.0967 25.4154 25.2729C26.5222 25.0706 27.6398 24.9331 28.7625 24.861C29.8833 24.798 31.0067 24.7977 32.1275 24.8601C34.3521 24.996 36.5514 25.4073 38.6751 26.0845C36.508 25.6815 34.3065 25.4938 32.1026 25.5243C31.0091 25.5381 29.9173 25.6151 28.8327 25.7551C27.7581 25.8723 26.6907 26.0489 25.6355 26.284C21.3937 27.2564 17.4094 29.1279 13.9515 31.7724C10.4935 34.417 7.64226 37.773 5.58996 41.6141C4.56239 43.5441 3.73954 45.5765 3.13485 47.678C2.84697 48.7387 2.6233 49.8158 2.46505 50.9035C2.28558 51.9932 2.17678 53.0955 2.06177 54.2015Z" fill="#5A5A5C"/>
<path d="M6.64428 40.1242L3.98462 41.6454L4.56814 42.6677L7.22779 41.1465L6.64428 40.1242Z" fill="#5A5A5C"/>
<path d="M6.65835 41.2237L4.72377 43.0003L4.19582 42.1439L6.65835 41.2237Z" fill="#5A5A5C"/>
<path d="M23.6426 82.9537C17.8697 81.4971 12.6579 78.3596 8.66647 73.9379C4.67499 69.5163 2.08306 64.0091 1.21847 58.1128C0.35388 52.2165 1.25546 46.196 3.8092 40.8127C6.36293 35.4293 10.4541 30.9249 15.5653 27.8691C20.6766 24.8134 26.5783 23.3435 32.5241 23.6453C38.4699 23.9472 44.1928 26.0072 48.9689 29.565C53.7451 33.1227 57.36 38.0183 59.3566 43.6326C61.3531 49.247 61.6416 55.3279 60.1855 61.1064C58.2259 68.8495 53.278 75.4983 46.4272 79.5941C39.5763 83.6899 31.3822 84.8981 23.6426 82.9537ZM38.0677 25.6671C32.5206 24.2675 26.6834 24.5459 21.2944 26.4671C15.9053 28.3882 11.2064 31.8659 7.79184 36.4603C4.37728 41.0548 2.40042 46.5596 2.11128 52.2786C1.82213 57.9977 3.23366 63.6741 6.16739 68.5901C9.10111 73.5062 13.4253 77.441 18.593 79.897C23.7608 82.353 29.54 83.2198 35.1999 82.388C40.8599 81.5561 46.1463 79.0629 50.3907 75.2236C54.635 71.3843 57.6467 66.3713 59.0449 60.8186C60.9114 53.3731 59.7509 45.4905 55.8182 38.9005C51.8855 32.3104 45.5017 27.5512 38.0677 25.6671Z" fill="#5A5A5C"/>
<path d="M33.2355 54.3065C33.124 54.7493 32.8839 55.149 32.5454 55.4552C32.207 55.7613 31.7855 55.9601 31.3342 56.0265C30.8828 56.0928 30.422 56.0237 30.0099 55.8278C29.5979 55.632 29.2531 55.3182 29.0191 54.9262C28.7852 54.5342 28.6727 54.0816 28.6957 53.6256C28.7188 53.1696 28.8764 52.7306 29.1487 52.3643C29.4209 51.9979 29.7956 51.7206 30.2253 51.5674C30.6551 51.4142 31.1205 51.392 31.5628 51.5036C31.8569 51.5771 32.1335 51.708 32.3769 51.8888C32.6202 52.0696 32.8255 52.2968 32.9809 52.5572C33.1363 52.8177 33.2388 53.1063 33.2825 53.4065C33.3262 53.7067 33.3102 54.0125 33.2355 54.3065Z" fill="#5A5A5C"/>
<path d="M35.042 37.6846L31.4403 43.9872L30.8349 53.701L31.1622 53.7836L35.2338 44.9443L35.042 37.6846Z" fill="#5A5A5C"/>
<path d="M29.3991 54.854L18.225 59.4993L14.899 62.4875L19.2414 61.1178L29.556 55.1734L29.3991 54.854Z" fill="#5A5A5C"/>
<path d="M31.497 52.3738C31.749 52.4255 31.9768 52.5591 32.145 52.7538C32.3266 52.9543 32.447 53.2027 32.4921 53.4696C32.5302 53.7277 32.5019 53.9913 32.41 54.2354C32.3246 54.4783 32.161 54.6858 31.945 54.8255C31.9874 54.6021 32.0144 54.3761 32.0257 54.149C32.0326 53.9469 32.0218 53.7446 31.9934 53.5443C31.9658 53.349 31.9128 53.1582 31.8357 52.9766C31.7375 52.7678 31.6244 52.5663 31.497 52.3738Z" fill="white"/>
<path d="M36.6864 31.1561C36.9164 31.2142 37.1498 31.0747 37.2077 30.8447C37.2656 30.6147 37.1261 30.3812 36.8961 30.3232C36.6662 30.2652 36.4328 30.4046 36.3749 30.6346C36.317 30.8646 36.4564 31.0981 36.6864 31.1561Z" fill="#5A5A5C"/>
<path d="M47.7723 36.8097C47.7522 36.8935 47.7077 36.9694 47.6444 37.0278C47.5811 37.0862 47.5018 37.1245 47.4167 37.1378C47.3316 37.151 47.2444 37.1387 47.1663 37.1023C47.0882 37.0659 47.0226 37.0071 46.978 36.9333C46.9334 36.8596 46.9117 36.7743 46.9156 36.6882C46.9196 36.6021 46.949 36.5192 47.0002 36.4499C47.0514 36.3806 47.1221 36.3281 47.2032 36.2991C47.2843 36.2701 47.3722 36.2658 47.4558 36.2869C47.511 36.3001 47.5631 36.3242 47.609 36.3577C47.6549 36.3913 47.6937 36.4336 47.7231 36.4822C47.7526 36.5308 47.7721 36.5848 47.7805 36.641C47.7889 36.6972 47.7861 36.7546 47.7723 36.8097Z" fill="#5A5A5C"/>
<path d="M24.9542 30.831C24.9697 30.8854 24.9744 30.9423 24.9678 30.9985C24.9613 31.0548 24.9437 31.1091 24.916 31.1585C24.8884 31.2079 24.8513 31.2513 24.8069 31.2863C24.7624 31.3213 24.7115 31.3471 24.657 31.3623C24.5753 31.3852 24.4886 31.3833 24.408 31.3569C24.3273 31.3305 24.2563 31.2808 24.2038 31.2141C24.1514 31.1474 24.1198 31.0667 24.1132 30.9821C24.1065 30.8975 24.1251 30.8129 24.1665 30.7388C24.2079 30.6648 24.2704 30.6047 24.3459 30.5661C24.4214 30.5275 24.5067 30.5122 24.591 30.5221C24.6752 30.5319 24.7547 30.5665 24.8194 30.6215C24.884 30.6765 24.9309 30.7493 24.9542 30.831Z" fill="#5A5A5C"/>
<path d="M14.3355 36.9575C14.3806 36.9955 14.4174 37.0425 14.4435 37.0953C14.4697 37.1482 14.4847 37.2059 14.4876 37.2648C14.4905 37.3237 14.4813 37.3826 14.4604 37.4377C14.4396 37.4929 14.4076 37.5432 14.3665 37.5854C14.3254 37.6277 14.276 37.661 14.2214 37.6833C14.1668 37.7056 14.1082 37.7165 14.0493 37.7151C13.9903 37.7138 13.9323 37.7004 13.8787 37.6756C13.8252 37.6509 13.7773 37.6154 13.7381 37.5713C13.693 37.5333 13.6563 37.4864 13.6301 37.4335C13.6039 37.3806 13.5889 37.323 13.586 37.264C13.5831 37.2051 13.5924 37.1463 13.6132 37.0911C13.6341 37.0359 13.666 36.9857 13.7072 36.9434C13.7483 36.9012 13.7977 36.8678 13.8523 36.8455C13.9068 36.8232 13.9654 36.8124 14.0244 36.8137C14.0833 36.815 14.1414 36.8285 14.1949 36.8532C14.2484 36.878 14.2963 36.9135 14.3355 36.9575Z" fill="#5A5A5C"/>
<path d="M8.19694 47.572C8.30738 47.5999 8.40224 47.6705 8.46066 47.7683C8.51909 47.8661 8.53629 47.9831 8.50848 48.0935C8.48066 48.204 8.41012 48.2988 8.31236 48.3572C8.2146 48.4156 8.09764 48.4328 7.9872 48.4049C7.87676 48.3771 7.78189 48.3064 7.72347 48.2086C7.66504 48.1108 7.64784 47.9938 7.67566 47.8834C7.70347 47.7729 7.77401 47.6781 7.87177 47.6197C7.96953 47.5613 8.0865 47.5441 8.19694 47.572Z" fill="#5A5A5C"/>
<path d="M8.18846 59.8385C8.27016 59.8157 8.3568 59.8176 8.43744 59.8439C8.51808 59.8703 8.58912 59.92 8.64158 59.9867C8.69405 60.0534 8.7256 60.1341 8.73224 60.2187C8.73888 60.3033 8.72032 60.388 8.67891 60.462C8.63749 60.536 8.57508 60.5961 8.49953 60.6347C8.42399 60.6733 8.33871 60.6886 8.25444 60.6788C8.17018 60.6689 8.09071 60.6343 8.02607 60.5793C7.96142 60.5244 7.91451 60.4515 7.89122 60.3699C7.86126 60.26 7.87562 60.1427 7.93121 60.0434C7.9868 59.944 8.07917 59.8704 8.18846 59.8385Z" fill="#5A5A5C"/>
<path d="M14.3046 70.4617C14.3845 70.3806 14.4931 70.3341 14.6069 70.3323C14.7208 70.3304 14.8308 70.3733 14.9134 70.4518C14.9742 70.511 15.0161 70.5869 15.0339 70.6698C15.0516 70.7528 15.0444 70.8392 15.0132 70.9181C14.9819 70.9969 14.928 71.0648 14.8582 71.113C14.7885 71.1612 14.7059 71.1877 14.6211 71.1891C14.5363 71.1904 14.453 71.1667 14.3816 71.1207C14.3103 71.0748 14.2541 71.0087 14.2203 70.9309C14.1864 70.8531 14.1764 70.767 14.1914 70.6835C14.2064 70.6 14.2458 70.5228 14.3046 70.4617Z" fill="#5A5A5C"/>
<path d="M25.2245 77.1332C25.4545 77.1912 25.6879 77.0518 25.7458 76.8218C25.8037 76.5918 25.6642 76.3583 25.4342 76.3003C25.2043 76.2422 24.9709 76.3817 24.913 76.6117C24.855 76.8417 24.9945 77.0752 25.2245 77.1332Z" fill="#5A5A5C"/>
<path d="M37.1668 76.6201C37.144 76.5384 37.1458 76.4517 37.1722 76.3711C37.1985 76.2904 37.2481 76.2194 37.3148 76.1669C37.3814 76.1145 37.4622 76.083 37.5467 76.0764C37.6313 76.0697 37.7159 76.0883 37.79 76.1298C37.864 76.1713 37.9241 76.2337 37.9627 76.3093C38.0013 76.3849 38.0167 76.4702 38.0069 76.5545C37.9971 76.6387 37.9625 76.7182 37.9076 76.7828C37.8526 76.8475 37.7798 76.8944 37.6982 76.9176C37.6438 76.9331 37.5868 76.9377 37.5306 76.9312C37.4744 76.9246 37.4201 76.907 37.3707 76.8793C37.3213 76.8517 37.2779 76.8145 37.2429 76.77C37.2079 76.7256 37.1821 76.6746 37.1668 76.6201Z" fill="#5A5A5C"/>
<path d="M47.7849 70.4986C47.7241 70.4395 47.6821 70.3636 47.6644 70.2806C47.6466 70.1976 47.6538 70.1113 47.6851 70.0324C47.7163 69.9535 47.7703 69.8857 47.84 69.8375C47.9098 69.7892 47.9923 69.7628 48.0771 69.7614C48.162 69.76 48.2453 69.7838 48.3166 69.8298C48.388 69.8757 48.4441 69.9417 48.478 70.0196C48.5118 70.0974 48.5219 70.1835 48.5069 70.267C48.4919 70.3505 48.4525 70.4277 48.3937 70.4888C48.3138 70.5699 48.2052 70.6164 48.0914 70.6182C47.9775 70.62 47.8674 70.5771 47.7849 70.4986Z" fill="#5A5A5C"/>
<path d="M53.9257 59.8693C53.8152 59.8414 53.7204 59.7708 53.6619 59.673C53.6035 59.5752 53.5863 59.4582 53.6141 59.3477C53.6419 59.2373 53.7125 59.1424 53.8103 59.084C53.908 59.0256 54.025 59.0085 54.1354 59.0364C54.2458 59.0642 54.3407 59.1348 54.3991 59.2326C54.4576 59.3304 54.4748 59.4474 54.4469 59.5579C54.4191 59.6683 54.3486 59.7632 54.2508 59.8216C54.1531 59.88 54.0361 59.8971 53.9257 59.8693Z" fill="#5A5A5C"/>
<path d="M53.9323 47.6128C53.8506 47.6357 53.764 47.6338 53.6834 47.6074C53.6027 47.581 53.5317 47.5313 53.4792 47.4646C53.4268 47.3979 53.3952 47.3172 53.3886 47.2326C53.3819 47.148 53.4005 47.0634 53.4419 46.9893C53.4833 46.9153 53.5457 46.8552 53.6213 46.8166C53.6968 46.778 53.7821 46.7627 53.8664 46.7725C53.9506 46.7824 54.0301 46.817 54.0947 46.872C54.1594 46.927 54.2063 46.9998 54.2296 47.0814C54.2451 47.1359 54.2497 47.1928 54.2432 47.249C54.2366 47.3052 54.2191 47.3596 54.1914 47.409C54.1638 47.4584 54.1267 47.5018 54.0822 47.5368C54.0378 47.5718 53.9868 47.5976 53.9323 47.6128Z" fill="#5A5A5C"/>
<path d="M34.6184 29.6566L34.2844 29.6088L34.0962 30.9247L34.4302 30.9726L34.6184 29.6566Z" fill="#5A5A5C"/>
<path d="M32.0816 29.4068L31.7444 29.3942L31.6946 30.7226L32.0318 30.7353L32.0816 29.4068Z" fill="#5A5A5C"/>
<path d="M29.5322 29.4303L29.1956 29.453L29.2848 30.7795L29.6214 30.7568L29.5322 29.4303Z" fill="#5A5A5C"/>
<path d="M27.0065 29.7158L26.6741 29.7736L26.9014 31.0835L27.2337 31.0257L27.0065 29.7158Z" fill="#5A5A5C"/>
<path d="M22.1034 31.0649L21.7903 31.1906L22.2848 32.4248L22.5978 32.2991L22.1034 31.0649Z" fill="#5A5A5C"/>
<path d="M19.7838 32.1246L19.4856 32.2824L20.1063 33.4582L20.4045 33.3004L19.7838 32.1246Z" fill="#5A5A5C"/>
<path d="M17.5929 33.4288L17.3127 33.6168L18.0527 34.7215L18.3328 34.5335L17.5929 33.4288Z" fill="#5A5A5C"/>
<path d="M15.5394 34.9357L15.2805 35.152L16.132 36.1731L16.3909 35.9568L15.5394 34.9357Z" fill="#5A5A5C"/>
<path d="M11.9752 38.5746L11.7669 38.84L12.8119 39.6619L13.0202 39.3965L11.9752 38.5746Z" fill="#5A5A5C"/>
<path d="M10.496 40.6404L10.3167 40.9262L11.442 41.6341L11.6214 41.3483L10.496 40.6404Z" fill="#5A5A5C"/>
<path d="M9.23378 42.8522L9.08521 43.1552L10.2783 43.7415L10.4269 43.4385L9.23378 42.8522Z" fill="#5A5A5C"/>
<path d="M8.2189 45.1841L8.10279 45.5009L9.35064 45.9591L9.46675 45.6423L8.2189 45.1841Z" fill="#5A5A5C"/>
<path d="M8.26329 50.3152L6.94752 50.1266L6.89974 50.4606L8.21551 50.6492L8.26329 50.3152Z" fill="#5A5A5C"/>
<path d="M8.3579 52.7332L7.02662 52.6854L7.01452 53.0234L8.3458 53.0712L8.3579 52.7332Z" fill="#5A5A5C"/>
<path d="M8.04804 55.116L6.72193 55.205L6.74446 55.5417L8.07058 55.4528L8.04804 55.116Z" fill="#5A5A5C"/>
<path d="M8.31339 57.5164L7.00416 57.745L7.06208 58.0775L8.37132 57.8489L8.31339 57.5164Z" fill="#5A5A5C"/>
<path d="M9.59276 62.1545L8.35963 62.65L8.48526 62.9633L9.71839 62.4678L9.59276 62.1545Z" fill="#5A5A5C"/>
<path d="M10.5863 64.3533L9.41138 64.9743L9.56884 65.2728L10.7438 64.6518L10.5863 64.3533Z" fill="#5A5A5C"/>
<path d="M11.8113 66.421L10.7083 67.1622L10.8962 67.4426L11.9993 66.7013L11.8113 66.421Z" fill="#5A5A5C"/>
<path d="M13.2362 68.3581L12.2161 69.2098L12.4321 69.4691L13.4523 68.6174L13.2362 68.3581Z" fill="#5A5A5C"/>
<path d="M16.6601 71.7306L15.8401 72.7765L16.1055 72.985L16.9255 71.9391L16.6601 71.7306Z" fill="#5A5A5C"/>
<path d="M18.6216 73.156L17.9153 74.2819L18.201 74.4615L18.9073 73.3356L18.6216 73.156Z" fill="#5A5A5C"/>
<path d="M20.7154 74.3324L20.1301 75.5258L20.433 75.6746L21.0183 74.4812L20.7154 74.3324Z" fill="#5A5A5C"/>
<path d="M22.9245 75.2956L22.467 76.5436L22.7838 76.6599L23.2412 75.4119L22.9245 75.2956Z" fill="#5A5A5C"/>
<path d="M27.9026 76.5641L27.5686 76.5162L27.3804 77.8322L27.7144 77.8801L27.9026 76.5641Z" fill="#5A5A5C"/>
<path d="M30.2993 76.7606L29.9622 76.7479L29.9124 78.0764L30.2496 78.0891L30.2993 76.7606Z" fill="#5A5A5C"/>
<path d="M32.7148 76.6967L32.3782 76.7194L32.4674 78.0458L32.804 78.0231L32.7148 76.6967Z" fill="#5A5A5C"/>
<path d="M35.0953 76.403L34.7629 76.4608L34.9902 77.7708L35.3226 77.713L35.0953 76.403Z" fill="#5A5A5C"/>
<path d="M39.7176 75.0502L39.4045 75.1759L39.899 76.4101L40.2121 76.2844L39.7176 75.0502Z" fill="#5A5A5C"/>
<path d="M41.897 74.0037L41.5989 74.1615L42.2198 75.3372L42.5179 75.1794L41.897 74.0037Z" fill="#5A5A5C"/>
<path d="M43.9522 72.7786L43.6721 72.9667L44.4123 74.0712L44.6924 73.8832L43.9522 72.7786Z" fill="#5A5A5C"/>
<path d="M45.8734 71.3153L45.6145 71.5316L46.466 72.5528L46.7249 72.3365L45.8734 71.3153Z" fill="#5A5A5C"/>
<path d="M49.1958 67.8299L48.9876 68.0954L50.0327 68.9171L50.241 68.6517L49.1958 67.8299Z" fill="#5A5A5C"/>
<path d="M50.5664 65.8521L50.387 66.1378L51.5123 66.8457L51.6917 66.56L50.5664 65.8521Z" fill="#5A5A5C"/>
<path d="M51.7221 63.7443L51.5735 64.0473L52.7666 64.6336L52.9152 64.3306L51.7221 63.7443Z" fill="#5A5A5C"/>
<path d="M52.6545 61.5197L52.5383 61.8366L53.7862 62.2948L53.9023 61.978L52.6545 61.5197Z" fill="#5A5A5C"/>
<path d="M55.1051 57.0205L53.7893 56.8319L53.7415 57.166L55.0573 57.3545L55.1051 57.0205Z" fill="#5A5A5C"/>
<path d="M55.7388 54.4183L54.4075 54.3705L54.3954 54.7085L55.7267 54.7563L55.7388 54.4183Z" fill="#5A5A5C"/>
<path d="M55.26 51.9354L53.9338 52.0243L53.9564 52.361L55.2825 52.2721L55.26 51.9354Z" fill="#5A5A5C"/>
<path d="M54.9433 49.3963L53.634 49.6249L53.692 49.9574L55.0012 49.7288L54.9433 49.3963Z" fill="#5A5A5C"/>
<path d="M52.4329 42.2156L51.2581 42.8368L51.4156 43.1353L52.5904 42.5141L52.4329 42.2156Z" fill="#5A5A5C"/>
<path d="M51.1114 40.0454L50.0081 40.7863L50.1959 41.0667L51.2993 40.3258L51.1114 40.0454Z" fill="#5A5A5C"/>
<path d="M49.5682 38.0055L48.5481 38.8573L48.7642 39.1166L49.7843 38.2648L49.5682 38.0055Z" fill="#5A5A5C"/>
<path d="M45.9025 34.4978L45.0813 35.5429L45.3465 35.7516L46.1676 34.7066L45.9025 34.4978Z" fill="#5A5A5C"/>
<path d="M43.804 33.0362L43.0979 34.1622L43.3837 34.3418L44.0898 33.2158L43.804 33.0362Z" fill="#5A5A5C"/>
<path d="M41.5689 31.8078L40.9837 33.0011L41.2865 33.1499L41.8718 31.9566L41.5689 31.8078Z" fill="#5A5A5C"/>
<path d="M39.2253 30.8261L38.7678 32.0741L39.0846 32.1904L39.542 30.9424L39.2253 30.8261Z" fill="#5A5A5C"/>
<path d="M27.5084 72.2097L27.3509 72.8351C27.2039 72.6929 27.0217 72.5923 26.8231 72.5436C26.7068 72.5114 26.5846 72.5067 26.4661 72.5299C26.3477 72.5532 26.2363 72.6037 26.1407 72.6776C25.9206 72.8605 25.7682 73.112 25.7077 73.3919C25.8147 73.2948 25.9452 73.2273 26.0862 73.1962C26.2272 73.1651 26.374 73.1715 26.5118 73.2147C26.6407 73.2412 26.7621 73.2962 26.867 73.3757C26.972 73.4551 27.058 73.557 27.1186 73.674C27.2361 73.9357 27.2553 74.2311 27.1728 74.5059C27.1383 74.6646 27.072 74.8146 26.9779 74.9469C26.8839 75.0792 26.764 75.1911 26.6256 75.2758C26.4872 75.3602 26.3328 75.4148 26.1722 75.436C26.0115 75.4573 25.8482 75.4449 25.6927 75.3994C25.5194 75.3634 25.3571 75.2867 25.2191 75.1757C25.0811 75.0648 24.9714 74.9226 24.8989 74.761C24.7524 74.3578 24.7427 73.9174 24.8715 73.5082C24.9728 72.9964 25.2454 72.5345 25.6443 72.1986C25.8205 72.0609 26.0271 71.9671 26.2467 71.9252C26.4664 71.8833 26.6929 71.8945 26.9074 71.9577C27.123 71.9993 27.3276 72.0851 27.5084 72.2097ZM26.1288 73.7093C26.0676 73.6911 26.0029 73.6872 25.9399 73.6978C25.8769 73.7085 25.8172 73.7334 25.7653 73.7707C25.6541 73.8544 25.5768 73.9755 25.5476 74.1117C25.5063 74.2632 25.5138 74.424 25.569 74.5711C25.5902 74.6346 25.6275 74.6916 25.6771 74.7365C25.7268 74.7814 25.7872 74.8127 25.8525 74.8274C25.9148 74.8458 25.9805 74.849 26.0443 74.8365C26.108 74.8241 26.1678 74.7965 26.2186 74.7561C26.3334 74.655 26.4121 74.5192 26.4426 74.3692C26.5326 74.0118 26.43 73.7906 26.1276 73.7143L26.1288 73.7093Z" fill="#5A5A5C"/>
<path d="M49.4526 60.1881L49.6176 59.5329C49.8062 59.7608 50.0642 59.9205 50.3522 59.9875C50.51 60.0357 50.6791 60.0321 50.8347 59.9772C50.897 59.949 50.9518 59.9064 50.9946 59.853C51.0373 59.7996 51.0669 59.7368 51.0809 59.6698C51.1003 59.599 51.1004 59.5244 51.0811 59.4535C51.0618 59.3827 51.0239 59.3184 50.9713 59.2673C50.8265 59.1354 50.6489 59.045 50.4571 59.0056L50.1496 58.928L50.2946 58.3522L50.5773 58.4236C51.0236 58.5362 51.278 58.4473 51.353 58.1494C51.428 57.8516 51.2894 57.6899 50.9621 57.6074C50.7219 57.5511 50.4701 57.5706 50.2414 57.6631L50.3964 57.0476C50.6893 56.9903 50.9915 57.0015 51.2794 57.0803C51.5733 57.1366 51.8393 57.2912 52.0339 57.5188C52.1089 57.615 52.1604 57.7275 52.1843 57.8472C52.2082 57.9668 52.2038 58.0905 52.1715 58.2081C52.1333 58.4101 52.0207 58.5904 51.856 58.7131C51.6912 58.8359 51.4864 58.8921 51.2821 58.8706C51.4938 58.9407 51.6729 59.0853 51.7861 59.2776C51.8366 59.3651 51.8691 59.4618 51.8819 59.562C51.8947 59.6621 51.8875 59.7639 51.8607 59.8613C51.8306 60.0072 51.7662 60.1438 51.6727 60.2598C51.5793 60.3758 51.4596 60.4678 51.3236 60.5282C50.9926 60.6616 50.6254 60.6754 50.2854 60.5671C49.9814 60.5095 49.6958 60.3795 49.4526 60.1881Z" fill="#5A5A5C"/>
<path d="M9.55956 50.1647L9.7158 49.5442C9.87671 49.7159 10.0857 49.8349 10.3154 49.8855C10.4294 49.9209 10.5501 49.929 10.6677 49.9092C10.7854 49.8894 10.8968 49.8422 10.9929 49.7714C11.2061 49.5906 11.3506 49.3419 11.4023 49.067C11.2994 49.1585 11.1743 49.2214 11.0396 49.2495C10.9048 49.2775 10.765 49.2698 10.6342 49.2269C10.5031 49.1986 10.3797 49.142 10.2726 49.0612C10.1654 48.9804 10.0771 48.8772 10.0137 48.7589C9.87825 48.5044 9.84894 48.2066 9.93225 47.9306C9.9655 47.7682 10.0316 47.6143 10.1266 47.4785C10.2216 47.3426 10.3434 47.2277 10.4845 47.1408C10.6293 47.0603 10.7889 47.0098 10.9536 46.9925C11.1184 46.9751 11.285 46.9911 11.4434 47.0396C11.6124 47.0767 11.7702 47.1533 11.9038 47.2632C12.0375 47.3731 12.1433 47.5131 12.2124 47.6718C12.3599 48.0802 12.3682 48.5259 12.236 48.9395C12.1407 49.4512 11.8769 49.9162 11.4868 50.2603C11.3167 50.3921 11.1175 50.4811 10.9058 50.5195C10.6942 50.558 10.4764 50.5449 10.2709 50.4814C10.0138 50.4282 9.77116 50.3202 9.55956 50.1647ZM11.2625 47.5905C11.2002 47.5744 11.1351 47.573 11.0722 47.5865C11.0093 47.5999 10.9504 47.6279 10.9002 47.668C10.783 47.7651 10.7026 47.8995 10.6725 48.0488C10.6274 48.1928 10.635 48.3482 10.694 48.4871C10.7226 48.5465 10.7646 48.5985 10.8165 48.639C10.8685 48.6796 10.9291 48.7077 10.9937 48.721C11.0536 48.7377 11.1165 48.7405 11.1777 48.7295C11.239 48.7184 11.2969 48.6937 11.3473 48.6572C11.4572 48.5819 11.5336 48.4667 11.56 48.336C11.6062 48.1771 11.6008 48.0075 11.5448 47.8518C11.5233 47.7871 11.4856 47.7291 11.4353 47.6831C11.385 47.6372 11.3238 47.6049 11.2575 47.5893L11.2625 47.5905Z" fill="#5A5A5C"/>
<path d="M35.2489 36.1531L33.0968 35.6101L33.2467 35.0145L33.941 35.1896L34.4759 33.0651L33.7132 33.0363L33.8657 32.4308L35.4283 32.5083L34.7046 35.3823L35.4038 35.5587L35.2489 36.1531Z" fill="#5A5A5C"/>
<path d="M36.7678 35.8552L38.1513 36.2043L37.9901 36.8446L35.7735 36.2853L35.921 35.6996L37.149 35.0117C37.343 34.901 37.5245 34.7698 37.6905 34.6204C37.7976 34.5197 37.8739 34.3907 37.9108 34.2484C37.9908 33.9307 37.8672 33.7094 37.5399 33.6269C37.2237 33.5549 36.8922 33.6029 36.6094 33.7616L36.7631 33.1511C37.1065 33.0342 37.4766 33.0211 37.8274 33.1134C38.1277 33.1707 38.3958 33.3382 38.5793 33.583C38.6543 33.6973 38.7034 33.8268 38.723 33.9621C38.7427 34.0975 38.7325 34.2356 38.6932 34.3666C38.6059 34.6048 38.4695 34.8219 38.2928 35.0038C38.1162 35.1857 37.9032 35.3283 37.6679 35.4224L36.7678 35.8552Z" fill="#5A5A5C"/>
<path d="M28.235 80.8236L28.3507 82.5834L26.8136 81.7154L28.235 80.8236Z" fill="#5A5A5C"/>
<path d="M27.6831 79.8409L26.971 80.2838L28.4764 82.7093L29.1885 82.2664L27.6831 79.8409Z" fill="#5A5A5C"/>
<path d="M38.7443 38.2119C38.7443 38.2119 43.3542 49.2259 34.9198 66.7203C34.9198 66.7203 34.8131 68.0237 35.9562 66.9817C37.0993 65.9398 45.1029 50.5962 43.3393 40.9075C41.5758 31.2188 37.9353 35.1624 38.7443 38.2119Z" fill="white"/>
<path d="M44.0695 42.57C44.0695 42.57 47.614 49.7307 42.7673 61.7108C42.7673 61.7108 42.7532 62.5836 43.4666 61.845C44.1799 61.1064 48.8254 50.5748 47.2378 44.1877C45.6502 37.8006 43.4023 40.5698 44.0695 42.57Z" fill="white"/>
<path d="M63.3502 39.3209C63.3067 39.3878 63.2432 39.4393 63.1687 39.4679C63.0943 39.4965 63.0127 39.5008 62.9356 39.4803C58.8257 38.3054 55.0879 36.0895 52.0831 33.0467C48.4822 29.3771 45.9763 26.4485 44.6569 22.4519C44.63 22.374 44.6292 22.2894 44.6547 22.2111C44.6801 22.1327 44.7304 22.0648 44.7979 22.0176C47.3688 20.1851 51.0968 19.7056 54.7401 20.7146C57.2079 21.3922 59.4625 22.6878 61.2915 24.4793C65.826 28.9651 65.8416 35.626 63.3502 39.3209Z" fill="#5A5A5C"/>
<path d="M62.7473 40.0452C58.5519 38.8378 54.7351 36.5753 51.6606 33.4733C47.7564 29.5002 45.3881 26.6115 44.091 22.6522C44.027 22.455 44.0269 22.2426 44.0908 22.0454C44.1546 21.8482 44.2792 21.6762 44.4466 21.5541C47.1691 19.6015 51.0609 19.1 54.8863 20.1603C57.4512 20.8723 59.7927 22.2261 61.6904 24.0943C63.878 26.2418 65.2403 29.0919 65.5383 32.1444C65.8379 34.7616 65.2397 37.403 63.842 39.6351L63.7587 39.7566L63.7339 39.7504C63.6165 39.8781 63.4673 39.9723 63.3016 40.0233C63.1358 40.0742 62.9595 40.0801 62.7907 40.0403L62.7473 40.0452ZM45.2535 22.4335C46.4892 26.0922 48.7611 28.8615 52.4932 32.6592C55.3923 35.5819 58.9808 37.7256 62.9269 38.8921C65.2084 35.3606 65.0755 29.0819 60.8528 24.9493C59.0965 23.2228 56.9316 21.97 54.5604 21.3081C51.1539 20.343 47.6766 20.7695 45.256 22.4236L45.2535 22.4335Z" fill="#5A5A5C"/>
<path d="M51.0514 31.5983L54.3547 28.1768L56.238 30.4997L53.1183 33.883L51.0514 31.5983Z" fill="white"/>
<path d="M62.597 39.1309C62.597 39.1309 57.0444 28.0903 45.2666 22.3153C45.2666 22.3153 53.4896 17.3055 61.0555 24.8948C61.0593 24.88 66.8669 31.6191 62.597 39.1309Z" fill="#5A5A5C"/>
<path d="M54.0706 28.153L49.8836 24.8213C47.9486 23.6046 46.1818 22.6414 44.9732 22.289C43.7646 21.9365 46.9558 27.1075 46.9558 27.1075L50.838 31.5449L51.2358 31.1173L51.1442 30.9992L52.0492 29.9394L54.0706 28.153ZM46.7052 23.2856C46.7052 23.2856 49.013 24.174 49.344 24.8488C49.6171 25.3981 50.5182 29.5267 50.9066 30.7069C49.9714 29.4574 47.0957 24.688 46.7052 23.2856Z" fill="#5A5A5C"/>
<path d="M62.4346 35.9063C62.5544 36.1425 62.6557 36.3897 62.778 36.637C62.9003 36.8843 62.9693 37.134 63.0544 37.3825C63.2216 37.8847 63.326 38.4058 63.3651 38.9338C63.3947 39.0437 63.4177 39.1552 63.434 39.2679C65.8721 35.5542 65.8229 28.964 61.3093 24.5416C59.4804 22.7501 57.2257 21.4545 54.7579 20.7769C54.6389 20.7469 49.7525 20.5698 47.037 22.1177C47.7208 22.3881 48.3871 22.7008 49.0321 23.054C49.405 23.2484 49.7519 23.4415 50.0802 23.6457C50.77 23.1836 51.5475 22.8687 52.3642 22.7206C53.1809 22.5724 54.0193 22.5942 54.8272 22.7846C56.8541 23.3224 56.8008 24.5601 55.6611 24.4996C54.5214 24.439 52.6782 24.4913 52.5989 25.0784C52.5827 25.1429 52.5677 25.2025 52.5775 25.2683C54.0113 26.2614 55.371 27.3578 56.6455 28.5489C57.1321 29.0042 57.6087 29.4782 58.0666 29.9633C58.1105 29.9293 58.1413 29.8811 58.1537 29.8269C58.2787 29.3305 57.8985 25.8137 58.8424 25.8354C59.7862 25.8571 61.2662 26.9749 61.707 29.9157C61.9811 31.8009 61.54 32.8616 60.8483 33.3258C61.4436 34.1432 61.974 35.006 62.4346 35.9063Z" fill="#5A5A5C"/>
<path d="M62.6185 39.6748C62.0984 37.3422 59.1552 33.4902 54.9394 29.6233C50.8475 25.8721 46.7312 23.1811 44.4648 22.7571L44.6629 21.6351C47.6894 22.1823 52.3499 25.6863 55.7287 28.7719C60.1796 32.8565 63.1895 36.8415 63.76 39.4349L62.6185 39.6748Z" fill="#5A5A5C"/>
<path d="M53.3027 34.4894L52.4597 33.6484L55.7391 30.4057C55.2661 29.9802 54.5443 29.3493 54.0935 28.9611L51.112 32.0889L50.2615 31.2778L54.0136 27.3308L54.4457 27.709L54.7887 28.0015C55.7186 28.8115 56.7352 29.6962 57.0137 29.9935L57.4098 30.4102L53.3027 34.4894Z" fill="#5A5A5C"/>
<path d="M56.736 30.9687C56.4221 31.0004 56.0698 31.0593 55.731 31.1269C55.3923 31.1945 55.0548 31.2783 54.721 31.3683C54.0428 31.5542 53.3868 31.8135 52.7648 32.1417C53.0218 31.8915 53.2953 31.659 53.5835 31.4455C53.8754 31.2288 54.1759 31.0196 54.4864 30.834C54.7968 30.6483 55.1072 30.4627 55.4387 30.2982C55.7702 30.1338 56.0892 29.9767 56.4542 29.8259L56.736 30.9687Z" fill="#5A5A5C"/>
<path d="M60.1969 34.318C58.2726 32.0956 56.432 30.1689 56.432 30.1689L56.238 30.4997L53.1183 33.883C53.6497 34.4987 54.2531 35.0484 54.9159 35.5195C55.996 36.2777 59.3493 38.4383 62.5548 39.3843L63.1527 39.3768C62.4457 37.5423 61.4476 35.8341 60.1969 34.318ZM61.2176 37.5529C60.8065 37.8663 58.3265 36.2586 56.8323 34.8205C58.1783 35.2763 61.63 37.2347 61.2176 37.5529Z" fill="#5A5A5C"/>
</svg>
