<svg width="46" height="46" viewBox="0 0 46 46" fill="none" xmlns="http://www.w3.org/2000/svg">
<path d="M28.7544 23.365C28.7544 26.304 26.9491 50.9467 20.4048 41.4513C17.2455 36.9297 17.4711 28.1126 17.4711 22.9128C17.4711 20.8781 17.4711 0.530916 24.2411 2.33955C28.7544 3.24387 28.7544 20.1998 28.7544 23.365C28.7544 23.8171 30.3341 23.591 30.3341 22.9128C30.3341 18.3912 30.5597 0.30483 22.8871 0.530909C15.4401 0.983069 15.6658 18.6173 15.6658 23.365C15.6658 27.4344 15.4401 45.9729 22.8871 45.7468C30.5597 45.2947 30.1084 27.8865 30.1084 22.9128C30.3341 22.4606 28.7544 22.6867 28.7544 23.365Z" fill="white"/>
<path d="M27.1745 27.4345C24.6922 29.9214 21.9842 32.4082 19.2762 34.443C17.6965 35.5734 15.6655 37.1559 13.6345 37.8342C12.0548 38.2863 8.44416 38.9646 7.76716 36.9299C7.09016 34.8951 10.2495 30.1474 11.3778 28.5649C13.6345 25.1737 16.3425 22.0086 19.2762 19.0695C21.3072 17.0348 37.3294 2.56574 38.6834 10.2524C39.3604 15.6784 30.3338 24.0433 27.1745 27.4345C26.2718 28.3388 27.8514 28.791 28.5284 28.1127C31.0108 25.6259 45.4534 10.9307 38.9091 6.63516C33.0418 2.79181 21.0815 15.2262 17.9222 18.1652C15.2142 20.8782 1.67417 34.2169 6.8645 39.1907C12.0548 44.1644 25.5948 30.8257 28.3028 28.1127C28.9798 27.4345 27.6258 26.7562 27.1745 27.4345Z" fill="white"/>
<path d="M23.5634 29.243C18.1474 29.0169 9.12078 29.4691 4.60745 25.8518C-5.54755 18.3912 18.3731 16.8086 22.6608 16.8086C28.3024 16.8086 35.7494 17.0347 40.9397 19.7476C52.4487 26.0779 27.3998 29.243 23.5634 29.243C23.1121 29.243 21.7581 29.9212 22.4351 29.9212C27.8511 29.6951 41.1654 30.3734 45.0017 24.7214C50.1921 17.2608 26.9484 16.1304 23.5634 16.1304C18.1474 16.1304 4.8331 15.9043 0.996766 21.1041C-4.19356 28.7908 18.8244 29.6951 22.4351 29.6951C22.8864 29.9212 24.4661 29.4691 23.5634 29.243Z" fill="white"/>
<path d="M19.2753 27.4343C16.1159 24.0431 12.9565 20.4258 10.4742 16.5825C9.57154 14.9999 7.08924 11.6087 7.76624 9.34792C9.57158 2.79161 24.6913 16.5825 27.1736 18.8433C30.5586 22.2345 39.8109 31.0516 38.9082 36.9297C37.3285 43.712 21.0806 29.2429 19.2753 27.4343C19.0496 27.2082 17.4699 27.6604 17.6956 28.1125C21.3062 31.5037 32.3639 43.2599 38.6825 39.4165C45.2269 35.3471 31.2355 21.1041 28.5275 18.3911C25.1425 14.9999 13.8592 3.24376 7.54056 7.08712C0.996233 11.1566 14.9876 25.3996 17.6956 28.1125C17.9212 28.3386 19.5009 27.6604 19.2753 27.4343Z" fill="white"/>
<path d="M23.1116 26.5299C24.981 26.5299 26.4966 25.0117 26.4966 23.1388C26.4966 21.2658 24.981 19.7476 23.1116 19.7476C21.2421 19.7476 19.7266 21.2658 19.7266 23.1388C19.7266 25.0117 21.2421 26.5299 23.1116 26.5299Z" fill="#D3993C"/>
</svg>
