<svg width="1251" height="551" viewBox="0 0 1251 551" fill="none" xmlns="http://www.w3.org/2000/svg">
<path d="M788.27 300.89C789.697 300.89 790.977 301.372 791.912 302.189C792.108 302.334 792.354 302.382 792.551 302.238C792.748 302.093 792.797 301.853 792.699 301.612C792.01 300.361 791.961 298.774 792.551 297.282C793.24 295.454 794.815 293.866 796.586 293.145C799.637 291.942 803.622 292.615 807.067 294.877C805.689 295.646 804.459 296.705 803.622 298.004C803.081 298.822 802.737 299.688 802.343 300.554C800.424 300.217 798.259 301.227 797.373 303.007C796.488 304.884 797.029 307.289 798.653 308.684C798.751 308.781 798.849 308.781 798.948 308.781C799.095 308.781 799.243 308.732 799.341 308.588C799.538 308.396 799.489 308.059 799.292 307.915C797.964 306.808 797.521 304.884 798.259 303.392C798.997 301.901 800.916 301.035 802.49 301.516C802.737 301.612 802.983 301.468 803.081 301.227C803.475 300.265 803.868 299.303 804.409 298.437C806.525 295.165 811.2 293.626 814.89 295.021C815.136 295.117 815.431 294.973 815.53 294.732C815.628 294.492 815.48 294.203 815.234 294.107C812.823 293.193 810.068 293.385 807.755 294.396C807.755 294.347 807.755 294.251 807.755 294.203C806.722 290.98 809.182 287.708 811.593 285.832C814.939 283.282 819.171 281.887 823.55 281.887C825.863 281.887 828.126 282.272 830.193 283.041C836.343 285.303 841.067 290.883 842.248 297.186C842.297 297.33 842.395 297.475 842.543 297.523C842.691 297.571 842.887 297.571 842.986 297.475C844.659 296.416 846.676 295.839 848.743 295.839C850.465 295.839 852.138 296.224 853.614 296.993C856.96 298.677 859.174 302.141 859.371 305.798C859.371 305.942 859.469 306.086 859.617 306.183C859.765 306.279 859.961 306.279 860.109 306.183C860.749 305.894 861.388 305.75 862.126 305.75C864.685 305.75 867.194 307.674 867.736 310.031C868.425 313.111 866.013 316.623 862.717 317.344C862.225 317.44 861.733 317.489 861.241 317.489C858.534 317.489 855.779 315.901 854.352 313.544C855.582 312.533 856.468 311.09 856.763 309.55C856.812 309.31 856.615 309.021 856.369 308.973C856.074 308.925 855.828 309.117 855.779 309.358C855.385 311.475 853.663 313.303 851.547 313.928C849.432 314.554 846.971 313.88 845.446 312.341C845.249 312.148 844.954 312.148 844.757 312.341C844.56 312.533 844.56 312.822 844.757 313.014C846.086 314.361 848.005 315.131 849.924 315.131C850.563 315.131 851.203 315.035 851.843 314.891C852.285 314.746 852.778 314.554 853.171 314.361C852.482 318.258 849.579 321.77 845.84 323.214C844.462 323.743 843.035 324.032 841.51 324.032C838.607 324.032 835.703 323.021 833.588 321.241C833.489 321.145 833.391 321.145 833.243 321.145C833.194 321.145 833.194 321.145 833.145 321.145C832.997 321.193 832.85 321.289 832.8 321.386C829.897 327.159 823.304 330.96 816.711 330.719C810.412 330.478 804.409 326.437 801.802 320.856C802.097 320.904 802.392 320.904 802.737 320.904C804.114 320.904 805.492 320.616 806.722 320.038C806.968 319.942 807.066 319.654 806.968 319.413C806.87 319.172 806.574 319.076 806.328 319.172C803.671 320.375 800.424 320.135 798.013 318.547C797.767 318.403 797.472 318.451 797.324 318.691C797.176 318.932 797.226 319.221 797.472 319.365C798.16 319.846 798.948 320.183 799.735 320.471C798.357 321.097 796.832 321.482 795.257 321.482C793.388 321.482 791.616 321.001 790.091 320.135C786.843 318.258 784.875 314.506 785.22 310.801C785.22 310.609 785.171 310.464 785.023 310.368C783.891 309.55 783.104 308.251 782.907 306.712C782.71 305.22 783.104 303.729 783.99 302.671C784.974 301.564 786.548 300.89 788.27 300.89ZM833.981 292.615C835.704 292.567 837.376 293.578 838.115 295.069C838.262 295.406 838.41 295.839 838.262 296.176C838.213 296.32 838.065 296.416 837.918 296.464C837.819 296.416 837.672 296.368 837.524 296.368C837.278 296.32 837.081 296.464 836.983 296.657C836.884 296.849 836.983 297.09 837.13 297.234C837.327 297.378 837.524 297.426 837.721 297.426C838.311 297.667 838.803 298.244 839.049 298.966C839.345 299.88 839.148 300.746 838.557 301.275C838.361 301.468 838.361 301.756 838.557 301.949C838.656 302.045 838.803 302.093 838.902 302.093C839.049 302.093 839.148 302.045 839.246 301.949C840.083 301.179 840.329 299.88 839.984 298.677C839.787 297.956 839.345 297.378 838.853 296.945C839 296.801 839.099 296.657 839.148 296.464C839.394 295.935 839.295 295.31 839 294.588C838.115 292.712 836.048 291.509 833.932 291.557C833.637 291.557 833.44 291.798 833.44 292.038C833.44 292.423 833.686 292.615 833.981 292.615Z" fill="white"/>
<path d="M785.22 310.849C785.22 310.657 785.17 310.512 785.023 310.416C783.891 309.598 783.104 308.299 782.907 306.76C782.907 306.712 782.907 306.712 782.907 306.664C784.137 307.53 785.859 307.818 787.089 307C787.237 309.743 788.664 312.533 791.075 313.832C793.535 315.179 797.029 314.698 798.652 312.437C801.309 316.093 806.722 316.334 811.249 315.708C814.349 315.275 818.187 313.736 817.99 310.657C820.696 313.351 824.78 314.698 828.569 314.121C832.407 313.543 835.9 311.138 837.672 307.77C842.297 310.464 848.497 310.416 853.023 307.578C853.712 308.588 854.647 309.454 855.68 310.079C855.09 311.908 853.515 313.399 851.646 313.976C849.53 314.602 847.07 313.928 845.544 312.389C845.347 312.196 845.052 312.196 844.855 312.389C844.659 312.581 844.659 312.87 844.855 313.062C846.184 314.409 848.103 315.179 850.022 315.179C850.662 315.179 851.301 315.083 851.941 314.939C852.384 314.794 852.876 314.602 853.269 314.409C852.581 318.306 849.677 321.818 845.938 323.262C844.56 323.791 843.133 324.08 841.608 324.08C838.705 324.08 835.802 323.069 833.686 321.289C833.588 321.193 833.489 321.193 833.342 321.193C833.292 321.193 833.292 321.193 833.243 321.193C833.096 321.241 832.948 321.337 832.899 321.434C829.996 327.207 823.402 331.008 816.809 330.767C810.511 330.526 804.508 326.485 801.9 320.904C802.195 320.952 802.49 320.952 802.835 320.952C804.213 320.952 805.59 320.664 806.82 320.086C807.066 319.99 807.165 319.702 807.066 319.461C806.968 319.22 806.673 319.124 806.427 319.22C803.77 320.423 800.522 320.183 798.111 318.595C797.865 318.451 797.57 318.499 797.422 318.739C797.275 318.98 797.324 319.269 797.57 319.413C798.259 319.894 799.046 320.231 799.833 320.519C798.456 321.145 796.93 321.53 795.356 321.53C793.486 321.53 791.715 321.049 790.189 320.183C786.843 318.258 784.875 314.554 785.22 310.849Z" fill="#EAF7FD"/>
<path d="M862.766 317.44C862.273 317.537 861.781 317.585 861.289 317.585C858.583 317.585 855.828 315.997 854.401 313.64C855.385 312.87 856.123 311.811 856.517 310.657C860.01 312.389 864.537 312.244 867.784 310.176C868.424 313.303 866.013 316.719 862.766 317.44Z" fill="#EAF7FD"/>
<path d="M788.271 299.928C789.353 299.928 790.387 300.169 791.272 300.602C791.026 299.447 791.125 298.196 791.617 296.945C792.404 294.829 794.126 293.048 796.242 292.279C799.293 291.076 803.18 291.557 806.673 293.481C806.28 290.21 808.691 287.035 811.102 285.206C814.595 282.512 819.073 281.021 823.698 281.021C826.158 281.021 828.471 281.454 830.685 282.272C836.934 284.581 841.805 290.114 843.232 296.464C844.954 295.55 846.873 295.069 848.94 295.069C850.81 295.069 852.68 295.502 854.254 296.32C857.698 298.052 860.06 301.516 860.454 305.269C861.044 305.076 861.635 304.98 862.274 304.98C865.325 304.98 868.228 307.193 868.819 309.983C869.606 313.64 866.949 317.585 863.062 318.451C862.52 318.595 861.93 318.643 861.339 318.643C858.633 318.643 855.878 317.248 854.205 315.083C853.319 319.173 850.268 322.781 846.332 324.32C844.856 324.898 843.281 325.186 841.608 325.186C838.705 325.186 835.802 324.224 833.539 322.54C830.439 328.121 824.042 331.874 817.498 331.874C817.252 331.874 817.006 331.874 816.809 331.874C810.068 331.585 803.623 327.207 800.916 321.193C799.243 322.107 797.374 322.588 795.356 322.588C793.29 322.588 791.321 322.059 789.648 321.097C786.155 319.076 784.039 315.083 784.285 311.138C783.055 310.176 782.219 308.684 782.022 307.001C781.776 305.22 782.268 303.488 783.301 302.238C784.384 300.746 786.253 299.928 788.271 299.928ZM782.907 306.808C783.104 308.299 783.892 309.647 785.023 310.464C785.171 310.561 785.22 310.705 785.22 310.897C784.876 314.602 786.844 318.307 790.091 320.231C791.617 321.145 793.388 321.578 795.258 321.578C796.832 321.578 798.407 321.241 799.735 320.568C798.948 320.327 798.161 319.942 797.472 319.461C797.226 319.317 797.177 319.028 797.324 318.788C797.472 318.547 797.767 318.499 798.013 318.643C800.424 320.231 803.721 320.471 806.329 319.269C806.575 319.172 806.87 319.269 806.968 319.509C807.067 319.75 806.969 320.039 806.722 320.135C805.492 320.712 804.115 321.001 802.737 321.001C802.442 321.001 802.146 321.001 801.802 320.953C804.41 326.533 810.413 330.527 816.711 330.815C823.354 331.104 829.898 327.255 832.801 321.482C832.85 321.337 832.998 321.241 833.145 321.241C833.194 321.241 833.195 321.241 833.244 321.241C833.342 321.241 833.49 321.289 833.588 321.337C835.704 323.118 838.558 324.128 841.51 324.128C843.035 324.128 844.511 323.839 845.84 323.31C849.629 321.819 852.483 318.355 853.172 314.458C852.729 314.698 852.286 314.891 851.843 314.987C851.203 315.179 850.564 315.227 849.924 315.227C848.005 315.227 846.086 314.458 844.758 313.111C844.561 312.918 844.561 312.629 844.758 312.437C844.954 312.245 845.25 312.245 845.446 312.437C846.972 314.025 849.432 314.65 851.548 314.025C853.664 313.399 855.386 311.571 855.779 309.454C855.829 309.214 856.075 309.021 856.37 309.069C856.616 309.117 856.813 309.358 856.763 309.647C856.468 311.186 855.583 312.629 854.352 313.64C855.779 315.997 858.486 317.585 861.241 317.585C861.733 317.585 862.225 317.537 862.717 317.44C866.014 316.719 868.425 313.207 867.736 310.128C867.195 307.77 864.685 305.846 862.127 305.846C861.389 305.846 860.7 305.99 860.109 306.279C859.962 306.375 859.765 306.327 859.617 306.279C859.47 306.183 859.371 306.038 859.371 305.894C859.224 302.238 856.96 298.774 853.614 297.09C852.138 296.368 850.465 295.935 848.743 295.935C846.677 295.935 844.61 296.512 842.986 297.571C842.839 297.667 842.691 297.667 842.543 297.619C842.396 297.571 842.297 297.427 842.248 297.282C841.067 290.98 836.344 285.399 830.193 283.138C828.126 282.368 825.863 281.983 823.55 281.983C819.171 281.983 814.89 283.378 811.594 285.928C809.183 287.804 806.722 291.076 807.756 294.299C807.756 294.347 807.756 294.444 807.756 294.492C810.068 293.481 812.824 293.289 815.235 294.203C815.481 294.299 815.628 294.588 815.53 294.829C815.432 295.069 815.136 295.213 814.89 295.117C811.2 293.722 806.526 295.262 804.41 298.533C803.869 299.399 803.475 300.361 803.081 301.323C802.983 301.564 802.737 301.66 802.491 301.612C800.916 301.131 798.997 301.997 798.259 303.488C797.521 304.98 797.964 306.904 799.293 308.011C799.489 308.203 799.539 308.492 799.342 308.684C799.243 308.781 799.096 308.877 798.948 308.877C798.85 308.877 798.702 308.829 798.653 308.781C797.029 307.434 796.439 304.98 797.374 303.104C798.259 301.323 800.375 300.265 802.343 300.65C802.688 299.784 803.081 298.918 803.623 298.1C804.459 296.753 805.689 295.695 807.067 294.973C803.623 292.76 799.637 292.086 796.586 293.241C794.815 293.914 793.24 295.502 792.552 297.378C791.961 298.918 792.01 300.458 792.699 301.708C792.798 301.901 792.748 302.189 792.552 302.334C792.355 302.478 792.109 302.478 791.912 302.286C790.977 301.468 789.698 300.987 788.271 300.987C786.549 300.987 784.974 301.66 783.99 302.863C783.104 303.825 782.711 305.269 782.907 306.808Z" fill="#C1E3F8"/>
<path d="M833.933 291.653C836.049 291.557 838.115 292.808 839.001 294.684C839.345 295.406 839.394 296.031 839.148 296.561C839.099 296.753 838.952 296.897 838.853 297.042C839.345 297.475 839.788 298.052 839.985 298.774C840.378 300.024 840.083 301.275 839.247 302.045C839.148 302.141 839.05 302.189 838.902 302.189C838.755 302.189 838.656 302.141 838.558 302.045C838.361 301.853 838.361 301.564 838.558 301.372C839.099 300.842 839.296 299.928 839.05 299.062C838.804 298.341 838.361 297.763 837.721 297.523C837.525 297.523 837.328 297.426 837.131 297.33C836.934 297.186 836.885 296.945 836.983 296.753C837.082 296.561 837.279 296.416 837.525 296.464C837.672 296.512 837.771 296.512 837.918 296.561C838.066 296.512 838.214 296.416 838.263 296.272C838.41 295.935 838.263 295.502 838.115 295.165C837.377 293.626 835.704 292.615 833.982 292.712C833.687 292.712 833.49 292.519 833.49 292.231C833.441 291.894 833.638 291.653 833.933 291.653Z" fill="#C1E3F8"/>
<path d="M1054.32 44.4076C1057.79 44.4076 1060.89 45.4814 1063.16 47.3067C1063.64 47.6288 1064.24 47.7362 1064.71 47.4141C1065.19 47.092 1065.31 46.5551 1065.07 46.0182C1063.4 43.2265 1063.28 39.6832 1064.71 36.3547C1066.39 32.2745 1070.21 28.7312 1074.51 27.1206C1081.91 24.4362 1091.59 25.9395 1099.95 30.986C1096.61 32.704 1093.62 35.0662 1091.59 37.9653C1090.27 39.7906 1089.44 41.7233 1088.48 43.656C1083.82 42.9044 1078.57 45.1592 1076.42 49.132C1074.27 53.3196 1075.58 58.6883 1079.52 61.8021C1079.76 62.0168 1080 62.0168 1080.24 62.0168C1080.6 62.0168 1080.96 61.9094 1081.2 61.5873C1081.67 61.1578 1081.56 60.4062 1081.08 60.0841C1077.85 57.6145 1076.78 53.3196 1078.57 49.9911C1080.36 46.6625 1085.02 44.7297 1088.84 45.8035C1089.44 46.0182 1090.04 45.6961 1090.27 45.1593C1091.23 43.0118 1092.19 40.8643 1093.5 38.9316C1098.64 31.6302 1109.98 28.1943 1118.94 31.3081C1119.54 31.5229 1120.26 31.2008 1120.49 30.6639C1120.73 30.1271 1120.38 29.4828 1119.78 29.268C1113.93 27.2279 1107.24 27.6575 1101.62 29.9123C1101.62 29.8049 1101.62 29.5902 1101.62 29.4828C1099.11 22.2888 1105.09 14.9874 1110.94 10.7999C1119.06 5.10913 1129.33 1.99533 1139.96 1.99533C1145.58 1.99533 1151.07 2.85431 1156.09 4.57227C1171.02 9.6188 1182.49 22.0741 1185.35 36.1399C1185.47 36.462 1185.71 36.7842 1186.07 36.8915C1186.43 36.9989 1186.91 36.9989 1187.15 36.7841C1191.21 34.4219 1196.1 33.1335 1201.12 33.1335C1205.3 33.1335 1209.36 33.9924 1212.95 35.7104C1221.07 39.4684 1226.44 47.1994 1226.92 55.3597C1226.92 55.6818 1227.16 56.0039 1227.52 56.2187C1227.88 56.4334 1228.35 56.4334 1228.71 56.2187C1230.27 55.5744 1231.82 55.2523 1233.61 55.2523C1239.82 55.2523 1245.91 59.5472 1247.23 64.8085C1248.9 71.6804 1243.05 79.5186 1235.04 81.1292C1233.85 81.344 1232.65 81.4513 1231.46 81.4513C1224.89 81.4513 1218.2 77.908 1214.74 72.6467C1217.72 70.3919 1219.87 67.1707 1220.59 63.7348C1220.71 63.1979 1220.23 62.5537 1219.64 62.4463C1218.92 62.3389 1218.32 62.7684 1218.2 63.3053C1217.25 68.0297 1213.07 72.1098 1207.93 73.5057C1202.79 74.9015 1196.82 73.3983 1193.12 69.9624C1192.64 69.5329 1191.92 69.5329 1191.45 69.9624C1190.97 70.3919 1190.97 71.0361 1191.45 71.4656C1194.67 74.4721 1199.33 76.19 1203.99 76.19C1205.54 76.19 1207.09 75.9753 1208.65 75.6531C1209.72 75.331 1210.92 74.9016 1211.87 74.4721C1210.2 83.1693 1203.15 91.0075 1194.07 94.2287C1190.73 95.4098 1187.27 96.054 1183.56 96.054C1176.52 96.054 1169.47 93.7992 1164.33 89.8264C1164.09 89.6116 1163.85 89.6116 1163.5 89.6116C1163.38 89.6116 1163.38 89.6116 1163.26 89.6116C1162.9 89.719 1162.54 89.9337 1162.42 90.1485C1155.37 103.033 1139.37 111.516 1123.36 110.979C1108.07 110.442 1093.5 101.423 1087.17 88.9674C1087.89 89.0748 1088.6 89.0748 1089.44 89.0748C1092.78 89.0748 1096.13 88.4305 1099.11 87.1421C1099.71 86.9273 1099.95 86.2831 1099.71 85.7462C1099.47 85.2094 1098.76 84.9946 1098.16 85.2094C1091.71 87.8937 1083.82 87.3568 1077.97 83.8135C1077.37 83.4914 1076.66 83.5988 1076.3 84.1356C1075.94 84.6725 1076.06 85.3167 1076.66 85.6388C1078.33 86.7125 1080.24 87.4642 1082.15 88.1084C1078.81 89.5043 1075.11 90.3633 1071.28 90.3633C1066.74 90.3633 1062.44 89.2895 1058.74 87.3568C1050.86 83.1693 1046.08 74.7942 1046.92 66.5264C1046.92 66.0969 1046.8 65.7749 1046.44 65.5601C1043.69 63.7348 1041.78 60.8357 1041.3 57.3997C1040.82 54.0712 1041.78 50.7427 1043.93 48.3805C1046.32 45.9109 1050.14 44.4076 1054.32 44.4076ZM1165.29 25.9395C1169.47 25.8321 1173.53 28.0869 1175.32 31.4155C1175.68 32.1671 1176.04 33.1335 1175.68 33.8851C1175.56 34.2072 1175.2 34.4219 1174.84 34.5293C1174.6 34.4219 1174.25 34.3146 1173.89 34.3146C1173.29 34.2072 1172.81 34.5293 1172.57 34.9588C1172.33 35.3883 1172.57 35.9251 1172.93 36.2473C1173.41 36.5694 1173.89 36.6768 1174.36 36.6768C1175.8 37.2136 1176.99 38.5021 1177.59 40.1127C1178.31 42.1528 1177.83 44.0855 1176.4 45.2666C1175.92 45.6961 1175.92 46.3404 1176.4 46.7699C1176.63 46.9846 1176.99 47.092 1177.23 47.092C1177.59 47.092 1177.83 46.9846 1178.07 46.7699C1180.1 45.0519 1180.7 42.1528 1179.86 39.4684C1179.38 37.8579 1178.31 36.5694 1177.11 35.6031C1177.47 35.2809 1177.71 34.9588 1177.83 34.5293C1178.43 33.3482 1178.19 31.9523 1177.47 30.3417C1175.32 26.1542 1170.3 23.4699 1165.17 23.5773C1164.45 23.5773 1163.97 24.1141 1163.97 24.651C1163.97 25.51 1164.57 25.9395 1165.29 25.9395Z" fill="white"/>
<path d="M1046.91 66.6338C1046.91 66.2043 1046.79 65.8821 1046.44 65.6674C1043.69 63.842 1041.78 60.943 1041.3 57.5071C1041.3 57.3997 1041.3 57.3997 1041.3 57.2923C1044.29 59.225 1048.47 59.8693 1051.45 58.0439C1051.81 64.1642 1055.28 70.3918 1061.13 73.2908C1067.1 76.2973 1075.58 75.2236 1079.52 70.1771C1085.97 78.3374 1099.11 78.8743 1110.1 77.4784C1117.63 76.512 1126.94 73.0761 1126.47 66.2042C1133.03 72.2171 1142.95 75.2236 1152.15 73.9351C1161.46 72.6466 1169.94 67.278 1174.24 59.7619C1185.47 65.7747 1200.52 65.6674 1211.51 59.3323C1213.18 61.5872 1215.45 63.5199 1217.96 64.9158C1216.53 68.9959 1212.71 72.3245 1208.17 73.613C1203.03 75.0089 1197.06 73.5056 1193.36 70.0696C1192.88 69.6402 1192.16 69.6402 1191.68 70.0696C1191.2 70.4991 1191.2 71.1434 1191.68 71.5729C1194.91 74.5793 1199.57 76.2973 1204.22 76.2973C1205.78 76.2973 1207.33 76.0826 1208.88 75.7605C1209.96 75.4383 1211.15 75.0088 1212.11 74.5793C1210.44 83.2765 1203.39 91.1148 1194.31 94.336C1190.97 95.5171 1187.5 96.1613 1183.8 96.1613C1176.75 96.1613 1169.7 93.9064 1164.57 89.9336C1164.33 89.7189 1164.09 89.7189 1163.73 89.7189C1163.61 89.7189 1163.61 89.7189 1163.49 89.7189C1163.14 89.8263 1162.78 90.0411 1162.66 90.2558C1155.61 103.141 1139.6 111.623 1123.6 111.086C1108.31 110.549 1093.74 101.53 1087.41 89.0747C1088.12 89.182 1088.84 89.1821 1089.68 89.1821C1093.02 89.1821 1096.36 88.5378 1099.35 87.2493C1099.95 87.0346 1100.19 86.3903 1099.95 85.8535C1099.71 85.3166 1098.99 85.1019 1098.4 85.3166C1091.95 88.0009 1084.06 87.4641 1078.21 83.9208C1077.61 83.5987 1076.9 83.706 1076.54 84.2429C1076.18 84.7797 1076.3 85.424 1076.9 85.7461C1078.57 86.8199 1080.48 87.5715 1082.39 88.2157C1079.05 89.6115 1075.34 90.4705 1071.52 90.4705C1066.98 90.4705 1062.68 89.3968 1058.98 87.4641C1050.86 83.1692 1046.08 74.9015 1046.91 66.6338Z" fill="#EAF7FD"/>
<path d="M1235.16 81.3434C1233.97 81.5581 1232.77 81.6656 1231.58 81.6656C1225.01 81.6656 1218.32 78.1222 1214.86 72.861C1217.24 71.143 1219.04 68.7808 1219.99 66.2038C1228.47 70.0693 1239.46 69.7471 1247.35 65.1301C1248.9 72.1093 1243.05 79.7328 1235.16 81.3434Z" fill="#EAF7FD"/>
<path d="M1054.32 42.2605C1056.95 42.2605 1059.46 42.7973 1061.61 43.7636C1061.01 41.1867 1061.25 38.395 1062.44 35.6033C1064.36 30.8789 1068.54 26.9061 1073.67 25.1881C1081.08 22.5038 1090.51 23.5775 1098.99 27.8725C1098.04 20.5711 1103.89 13.4845 1109.74 9.40433C1118.23 3.39144 1129.1 0.0628662 1140.32 0.0628662C1146.3 0.0628662 1151.91 1.02923 1157.28 2.85457C1172.45 8.00847 1184.28 20.3564 1187.74 34.5296C1191.92 32.4895 1196.58 31.4158 1201.6 31.4158C1206.14 31.4158 1210.68 32.3821 1214.5 34.2075C1222.86 38.0729 1228.59 45.8037 1229.55 54.1788C1230.98 53.7493 1232.42 53.5346 1233.97 53.5346C1241.37 53.5346 1248.42 58.4737 1249.86 64.7014C1251.77 72.8617 1245.32 81.6663 1235.88 83.599C1234.57 83.9212 1233.13 84.0285 1231.7 84.0285C1225.13 84.0285 1218.44 80.9147 1214.38 76.0829C1212.23 85.2096 1204.82 93.2626 1195.27 96.6986C1191.69 97.987 1187.86 98.6313 1183.8 98.6313C1176.75 98.6313 1169.71 96.4838 1164.21 92.7258C1156.69 105.181 1141.16 113.556 1125.27 113.556C1124.68 113.556 1124.08 113.556 1123.6 113.556C1107.24 112.912 1091.59 103.141 1085.02 89.7193C1080.96 91.7594 1076.42 92.8331 1071.52 92.8331C1066.51 92.8331 1061.73 91.652 1057.67 89.5046C1049.19 84.9949 1044.05 76.0829 1044.65 67.2783C1041.66 65.1309 1039.63 61.8024 1039.15 58.0443C1038.55 54.0715 1039.75 50.206 1042.26 47.4143C1044.89 44.0858 1049.42 42.2605 1054.32 42.2605ZM1041.3 57.6148C1041.78 60.9433 1043.69 63.9498 1046.44 65.7751C1046.8 65.9898 1046.92 66.312 1046.92 66.7415C1046.08 75.0092 1050.86 83.2769 1058.74 87.5719C1062.44 89.6119 1066.74 90.5783 1071.28 90.5783C1075.11 90.5783 1078.93 89.8266 1082.15 88.3234C1080.24 87.7866 1078.33 86.9276 1076.66 85.8539C1076.06 85.5317 1075.94 84.8875 1076.3 84.3507C1076.66 83.8138 1077.38 83.7064 1077.97 84.0285C1083.83 87.5718 1091.83 88.1087 1098.16 85.4244C1098.76 85.2097 1099.47 85.4244 1099.71 85.9613C1099.95 86.4981 1099.71 87.1423 1099.11 87.3571C1096.13 88.6456 1092.78 89.2898 1089.44 89.2898C1088.72 89.2898 1088.01 89.2898 1087.17 89.1824C1093.5 101.638 1108.07 110.55 1123.36 111.194C1139.49 111.838 1155.37 103.248 1162.42 90.3635C1162.54 90.0414 1162.9 89.8267 1163.26 89.8267C1163.38 89.8267 1163.38 89.8267 1163.5 89.8267C1163.73 89.8267 1164.09 89.9341 1164.33 90.0414C1169.47 94.0142 1176.4 96.269 1183.56 96.269C1187.27 96.269 1190.85 95.6248 1194.07 94.4437C1203.27 91.1151 1210.2 83.3843 1211.87 74.6871C1210.8 75.224 1209.72 75.6534 1208.65 75.8682C1207.09 76.2977 1205.54 76.405 1203.99 76.405C1199.33 76.405 1194.67 74.687 1191.45 71.6806C1190.97 71.2511 1190.97 70.6069 1191.45 70.1774C1191.92 69.7479 1192.64 69.7479 1193.12 70.1774C1196.82 73.7207 1202.79 75.1166 1207.93 73.7207C1213.07 72.3249 1217.25 68.2447 1218.2 63.5203C1218.32 62.9834 1218.92 62.5539 1219.64 62.6613C1220.23 62.7687 1220.71 63.3056 1220.59 63.9498C1219.87 67.3857 1217.72 70.6069 1214.74 72.8617C1218.2 78.123 1224.77 81.6663 1231.46 81.6663C1232.66 81.6663 1233.85 81.5589 1235.04 81.3442C1243.05 79.7336 1248.9 71.8954 1247.23 65.0235C1245.91 59.7623 1239.82 55.4673 1233.61 55.4673C1231.82 55.4673 1230.15 55.7895 1228.71 56.4337C1228.35 56.6484 1227.88 56.5411 1227.52 56.4337C1227.16 56.219 1226.92 55.8968 1226.92 55.5747C1226.56 47.4143 1221.07 39.6835 1212.95 35.9254C1209.36 34.3148 1205.3 33.3485 1201.12 33.3485C1196.1 33.3485 1191.09 34.637 1187.15 36.9992C1186.79 37.2139 1186.43 37.2139 1186.07 37.1066C1185.71 36.9992 1185.47 36.6771 1185.35 36.3549C1182.49 22.2891 1171.02 9.8338 1156.09 4.78727C1151.07 3.0693 1145.58 2.21033 1139.96 2.21033C1129.33 2.21033 1118.94 5.32415 1110.94 11.0149C1105.09 15.2025 1099.11 22.5038 1101.62 29.6978C1101.62 29.8052 1101.62 30.02 1101.62 30.1273C1107.24 27.8725 1113.93 27.443 1119.78 29.483C1120.38 29.6978 1120.73 30.342 1120.5 30.8789C1120.26 31.4158 1119.54 31.7379 1118.94 31.5232C1109.98 28.4093 1098.64 31.8453 1093.5 39.1466C1092.19 41.0793 1091.23 43.2268 1090.28 45.3742C1090.04 45.9111 1089.44 46.1259 1088.84 46.0185C1085.02 44.9448 1080.36 46.8775 1078.57 50.206C1076.78 53.5346 1077.85 57.8295 1081.08 60.2991C1081.56 60.7286 1081.68 61.3729 1081.2 61.8024C1080.96 62.0171 1080.6 62.2318 1080.24 62.2318C1080 62.2318 1079.64 62.1244 1079.53 62.017C1075.58 59.0106 1074.15 53.5346 1076.42 49.347C1078.57 45.3742 1083.71 43.0121 1088.48 43.8711C1089.32 41.9383 1090.28 40.0056 1091.59 38.1803C1093.62 35.1739 1096.61 32.8116 1099.95 31.2011C1091.59 26.2619 1081.91 24.7586 1074.51 27.3356C1070.21 28.8388 1066.39 32.3822 1064.71 36.5697C1063.28 40.0056 1063.4 43.4416 1065.07 46.2333C1065.31 46.6628 1065.19 47.307 1064.71 47.6291C1064.24 47.9512 1063.64 47.9512 1063.16 47.5217C1060.89 45.6964 1057.79 44.6227 1054.32 44.6227C1050.14 44.6227 1046.32 46.1259 1043.93 48.8102C1041.78 50.9576 1040.82 54.1788 1041.3 57.6148Z" fill="#C1E3F8"/>
<path d="M1165.17 23.7923C1170.3 23.5776 1175.32 26.3693 1177.47 30.5568C1178.3 32.1674 1178.42 33.5633 1177.83 34.7444C1177.71 35.1739 1177.35 35.496 1177.11 35.8181C1178.3 36.7845 1179.38 38.0729 1179.86 39.6835C1180.81 42.4752 1180.1 45.2669 1178.07 46.9849C1177.83 47.1996 1177.59 47.307 1177.23 47.307C1176.87 47.307 1176.63 47.1996 1176.39 46.9849C1175.92 46.5554 1175.92 45.9112 1176.39 45.4817C1177.71 44.3006 1178.18 42.2605 1177.59 40.3278C1176.99 38.7172 1175.92 37.4287 1174.36 36.8918C1173.88 36.8918 1173.41 36.6771 1172.93 36.4623C1172.45 36.1402 1172.33 35.6033 1172.57 35.1738C1172.81 34.7443 1173.29 34.4222 1173.88 34.5296C1174.24 34.637 1174.48 34.637 1174.84 34.7444C1175.2 34.637 1175.56 34.4222 1175.68 34.1001C1176.03 33.3485 1175.68 32.3821 1175.32 31.6305C1173.53 28.1946 1169.47 25.9398 1165.28 26.1545C1164.57 26.1545 1164.09 25.725 1164.09 25.0808C1163.97 24.3292 1164.45 23.7923 1165.17 23.7923Z" fill="#C1E3F8"/>
<path d="M1141.02 32.0091C1141.02 34.1208 1139.84 35.8328 1138.4 35.8328C1136.95 35.8328 1135.78 34.1208 1135.78 32.0091C1135.78 29.8973 1136.95 28.1854 1138.4 28.1854C1139.84 28.1854 1141.02 29.8973 1141.02 32.0091Z" fill="#C1E3F8"/>
<path d="M1097.95 54.7795C1097.95 56.1672 1096.3 57.2922 1094.26 57.2922C1092.22 57.2922 1090.57 56.1672 1090.57 54.7795C1090.57 53.3918 1092.22 52.2669 1094.26 52.2669C1096.3 52.2669 1097.95 53.3918 1097.95 54.7795Z" fill="#C1E3F8"/>
<path d="M1088.09 54.7794C1088.09 56.1671 1086.46 57.2921 1084.44 57.2921C1082.42 57.2921 1080.78 56.1671 1080.78 54.7794C1080.78 53.3917 1082.42 52.2668 1084.44 52.2668C1086.46 52.2668 1088.09 53.3917 1088.09 54.7794Z" fill="#C1E3F8"/>
<path d="M116.908 298.762C114.858 298.762 113.02 299.261 111.677 300.11C111.394 300.26 111.041 300.31 110.758 300.16C110.475 300.01 110.404 299.76 110.546 299.511C111.536 298.213 111.606 296.565 110.758 295.017C109.768 293.12 107.506 291.473 104.961 290.724C100.578 289.476 94.8512 290.175 89.9025 292.521C91.882 293.32 93.6494 294.418 94.8512 295.766C95.6289 296.615 96.1238 297.514 96.6893 298.412C99.4465 298.063 102.557 299.111 103.83 300.959C105.102 302.906 104.325 305.402 101.992 306.85C101.85 306.95 101.709 306.95 101.567 306.95C101.355 306.95 101.143 306.9 101.002 306.75C100.719 306.55 100.79 306.201 101.072 306.051C102.981 304.903 103.618 302.906 102.557 301.358C101.497 299.81 98.7395 298.912 96.4772 299.411C96.1237 299.511 95.7703 299.361 95.6289 299.111C95.0633 298.113 94.4977 297.114 93.7201 296.216C90.6801 292.821 83.964 291.223 78.6618 292.671C78.3083 292.771 77.8841 292.621 77.7427 292.371C77.6013 292.122 77.8135 291.822 78.1669 291.722C81.631 290.774 85.59 290.973 88.9128 292.022C88.9128 291.972 88.9128 291.872 88.9128 291.822C90.3974 288.477 86.8625 285.082 83.3984 283.135C78.5911 280.489 72.5112 279.041 66.2193 279.041C62.8965 279.041 59.6445 279.44 56.6753 280.239C47.8383 282.586 41.0514 288.377 39.3547 294.918C39.284 295.067 39.1426 295.217 38.9306 295.267C38.7185 295.317 38.4357 295.317 38.2943 295.217C35.8906 294.119 32.992 293.52 30.0228 293.52C27.5484 293.52 25.1448 293.919 23.0239 294.718C18.2166 296.465 15.0352 300.06 14.7524 303.854C14.7524 304.004 14.6111 304.154 14.399 304.254C14.1869 304.354 13.9041 304.354 13.692 304.254C12.773 303.954 11.8539 303.804 10.7935 303.804C7.11728 303.804 3.51176 305.801 2.7341 308.248C1.74435 311.443 5.20848 315.088 9.94512 315.837C10.6521 315.936 11.359 315.986 12.066 315.986C15.9543 315.986 19.9133 314.339 21.9635 311.892C20.1961 310.844 18.9235 309.346 18.4993 307.749C18.4286 307.499 18.7114 307.199 19.0649 307.149C19.4891 307.099 19.8426 307.299 19.9133 307.549C20.4788 309.746 22.9532 311.643 25.9932 312.292C29.0331 312.941 32.5679 312.242 34.7595 310.644C35.0422 310.445 35.4664 310.445 35.7492 310.644C36.032 310.844 36.032 311.143 35.7492 311.343C33.8404 312.741 31.0833 313.54 28.3261 313.54C27.4071 313.54 26.488 313.44 25.569 313.29C24.9327 313.141 24.2257 312.941 23.6602 312.741C24.6499 316.785 28.821 320.43 34.1939 321.927C36.1734 322.477 38.2236 322.776 40.4152 322.776C44.5862 322.776 48.7573 321.728 51.7973 319.881C51.9387 319.781 52.08 319.781 52.2921 319.781C52.3628 319.781 52.3628 319.781 52.4335 319.781C52.6456 319.831 52.8577 319.93 52.9284 320.03C57.0995 326.021 66.5728 329.966 76.046 329.716C85.0952 329.466 93.7201 325.273 97.467 319.481C97.0428 319.531 96.6186 319.531 96.1237 319.531C94.1442 319.531 92.1648 319.232 90.3974 318.632C90.0439 318.533 89.9025 318.233 90.0439 317.983C90.1853 317.734 90.6094 317.634 90.9629 317.734C94.7805 318.982 99.4465 318.732 102.911 317.085C103.264 316.935 103.688 316.985 103.9 317.234C104.112 317.484 104.042 317.784 103.688 317.933C102.698 318.433 101.567 318.782 100.436 319.082C102.416 319.731 104.607 320.13 106.87 320.13C109.556 320.13 112.101 319.631 114.293 318.732C118.959 316.785 121.786 312.891 121.292 309.047C121.292 308.847 121.362 308.697 121.574 308.597C123.2 307.749 124.332 306.401 124.614 304.803C124.897 303.255 124.332 301.707 123.059 300.609C121.645 299.461 119.383 298.762 116.908 298.762ZM51.2317 290.175C48.7573 290.125 46.3537 291.173 45.2932 292.721C45.0811 293.07 44.869 293.52 45.0811 293.869C45.1518 294.019 45.3639 294.119 45.576 294.169C45.7174 294.119 45.9295 294.069 46.1416 294.069C46.4951 294.019 46.7778 294.169 46.9192 294.368C47.0606 294.568 46.9192 294.818 46.7071 294.967C46.4243 295.117 46.1416 295.167 45.8588 295.167C45.0104 295.417 44.3034 296.016 43.95 296.765C43.5258 297.713 43.8086 298.612 44.6569 299.161C44.9397 299.361 44.9397 299.661 44.6569 299.86C44.5155 299.96 44.3034 300.01 44.162 300.01C43.95 300.01 43.8086 299.96 43.6672 299.86C42.4654 299.061 42.1119 297.713 42.6068 296.465C42.8895 295.716 43.5258 295.117 44.2328 294.668C44.0207 294.518 43.8793 294.368 43.8086 294.169C43.4551 293.619 43.5965 292.97 44.0207 292.221C45.2932 290.274 48.2624 289.026 51.3024 289.076C51.7266 289.076 52.0093 289.326 52.0093 289.575C52.0093 289.975 51.6558 290.175 51.2317 290.175Z" fill="white"/>
<path d="M121.294 309.097C121.294 308.897 121.364 308.747 121.576 308.647C123.202 307.799 124.334 306.451 124.616 304.853C124.616 304.803 124.616 304.803 124.616 304.753C122.849 305.652 120.375 305.951 118.607 305.103C118.395 307.948 116.345 310.844 112.881 312.192C109.346 313.59 104.327 313.091 101.994 310.744C98.176 314.539 90.3994 314.788 83.8954 314.139C79.4415 313.69 73.9272 312.092 74.21 308.897C70.3217 311.693 64.4539 313.091 59.0103 312.492C53.496 311.893 48.4766 309.396 45.9316 305.901C39.2861 308.697 30.3784 308.647 23.8744 305.702C22.8846 306.75 21.5414 307.649 20.0568 308.298C20.9051 310.195 23.1674 311.743 25.8539 312.342C28.8938 312.991 32.4286 312.292 34.6202 310.694C34.903 310.495 35.3271 310.495 35.6099 310.694C35.8927 310.894 35.8927 311.194 35.6099 311.393C33.7011 312.791 30.944 313.59 28.1868 313.59C27.2678 313.59 26.3487 313.49 25.4297 313.34C24.7934 313.191 24.0865 312.991 23.5209 312.791C24.5106 316.835 28.6817 320.48 34.0546 321.978C36.0341 322.527 38.0843 322.826 40.2759 322.826C44.4469 322.826 48.618 321.778 51.658 319.931C51.7994 319.831 51.9408 319.831 52.1529 319.831C52.2235 319.831 52.2235 319.831 52.2942 319.831C52.5063 319.881 52.7184 319.981 52.7891 320.08C56.9602 326.072 66.4335 330.016 75.9067 329.766C84.9558 329.516 93.5808 325.323 97.3277 319.531C96.9035 319.581 96.4793 319.581 95.9845 319.581C94.005 319.581 92.0255 319.282 90.258 318.682C89.9046 318.583 89.7632 318.283 89.9046 318.033C90.046 317.784 90.4701 317.684 90.8236 317.784C94.6412 319.032 99.3072 318.782 102.771 317.135C103.125 316.985 103.549 317.035 103.761 317.285C103.973 317.534 103.902 317.834 103.549 317.984C102.559 318.483 101.428 318.832 100.297 319.132C102.276 319.781 104.468 320.18 106.73 320.18C109.417 320.18 111.962 319.681 114.153 318.782C118.961 316.785 121.789 312.941 121.294 309.097Z" fill="#EAF7FD"/>
<path d="M9.8761 315.936C10.5831 316.035 11.29 316.085 11.997 316.085C15.8853 316.085 19.8443 314.438 21.8945 311.991C20.4805 311.193 19.4201 310.094 18.8545 308.896C13.8351 310.693 7.33108 310.544 2.66513 308.397C1.74608 311.642 5.21016 315.187 9.8761 315.936Z" fill="#EAF7FD"/>
<path d="M116.909 297.763C115.354 297.763 113.869 298.013 112.597 298.462C112.95 297.264 112.809 295.966 112.102 294.668C110.971 292.471 108.496 290.624 105.456 289.825C101.073 288.577 95.4881 289.076 90.4687 291.073C91.0342 287.678 87.5701 284.383 84.106 282.486C79.0866 279.69 72.6532 278.142 66.0078 278.142C62.473 278.142 59.1503 278.592 55.9689 279.44C46.9905 281.837 39.9916 287.578 37.9414 294.169C35.467 293.22 32.7099 292.721 29.7407 292.721C27.0542 292.721 24.3678 293.17 22.1055 294.019C17.1568 295.816 13.7633 299.411 13.1978 303.305C12.3494 303.105 11.501 303.005 10.582 303.005C6.19883 303.005 2.02776 305.302 1.17941 308.198C0.0482708 311.992 3.86587 316.086 9.45087 316.985C10.2285 317.135 11.0769 317.184 11.9252 317.184C15.8135 317.184 19.7725 315.737 22.1762 313.49C23.4487 317.734 27.8319 321.478 33.4876 323.076C35.6084 323.675 37.8707 323.974 40.2744 323.974C44.4454 323.974 48.6165 322.976 51.8686 321.228C56.3224 327.02 65.5129 330.914 74.9155 330.914C75.269 330.914 75.6225 330.914 75.9053 330.914C85.5906 330.615 94.8518 326.071 98.7401 319.831C101.144 320.779 103.83 321.278 106.729 321.278C109.698 321.278 112.526 320.729 114.93 319.731C119.949 317.634 122.989 313.49 122.635 309.396C124.403 308.397 125.605 306.85 125.887 305.102C126.241 303.255 125.534 301.458 124.049 300.16C122.494 298.612 119.808 297.763 116.909 297.763ZM124.615 304.903C124.332 306.45 123.201 307.848 121.575 308.697C121.363 308.797 121.292 308.947 121.292 309.146C121.787 312.991 118.959 316.835 114.293 318.832C112.102 319.781 109.557 320.23 106.87 320.23C104.608 320.23 102.346 319.88 100.437 319.181C101.568 318.932 102.699 318.532 103.689 318.033C104.042 317.883 104.113 317.584 103.901 317.334C103.689 317.085 103.265 317.035 102.911 317.184C99.4471 318.832 94.7104 319.082 90.9635 317.833C90.61 317.734 90.1859 317.833 90.0445 318.083C89.9031 318.333 90.0445 318.632 90.398 318.732C92.1654 319.331 94.1448 319.631 96.1243 319.631C96.5485 319.631 96.9727 319.631 97.4676 319.581C93.7207 325.372 85.0958 329.516 76.0467 329.816C66.5027 330.115 57.1001 326.121 52.929 320.13C52.8583 319.98 52.6462 319.88 52.4341 319.88C52.3634 319.88 52.3634 319.88 52.2927 319.88C52.1513 319.88 51.9393 319.93 51.7979 319.98C48.7579 321.828 44.6575 322.876 40.4158 322.876C38.2242 322.876 36.1033 322.576 34.1945 322.027C28.7509 320.48 24.6505 316.885 23.6608 312.841C24.297 313.091 24.9333 313.29 25.5696 313.39C26.4886 313.59 27.4077 313.64 28.3268 313.64C31.0839 313.64 33.8411 312.841 35.7498 311.443C36.0326 311.243 36.0326 310.944 35.7498 310.744C35.4671 310.544 35.0429 310.544 34.7601 310.744C32.5685 312.392 29.0337 313.041 25.9938 312.392C22.9539 311.743 20.4795 309.845 19.9139 307.649C19.8432 307.399 19.4897 307.199 19.0655 307.249C18.712 307.299 18.4293 307.549 18.5 307.848C18.9241 309.446 20.1967 310.944 21.9641 311.992C19.9139 314.439 16.0256 316.086 12.0666 316.086C11.3597 316.086 10.6527 316.036 9.94575 315.936C5.20911 315.187 1.74499 311.543 2.73473 308.348C3.51239 305.901 7.11791 303.904 10.7941 303.904C11.8546 303.904 12.8443 304.054 13.6926 304.353C13.9047 304.453 14.1875 304.403 14.3996 304.353C14.6117 304.254 14.7531 304.104 14.7531 303.954C14.9652 300.16 18.2172 296.565 23.0245 294.818C25.1454 294.069 27.5491 293.619 30.0234 293.619C32.9927 293.619 35.9619 294.218 38.2949 295.317C38.507 295.417 38.7191 295.417 38.9312 295.367C39.1433 295.317 39.2846 295.167 39.3553 295.017C41.052 288.477 47.8389 282.686 56.6759 280.339C59.6451 279.54 62.8972 279.141 66.2199 279.141C72.5118 279.141 78.6624 280.589 83.399 283.235C86.8631 285.182 90.398 288.577 88.9134 291.922C88.9134 291.972 88.9134 292.072 88.9134 292.122C85.5906 291.073 81.6317 290.873 78.1675 291.822C77.8141 291.922 77.6019 292.221 77.7433 292.471C77.8847 292.721 78.3089 292.87 78.6624 292.771C83.9646 291.323 90.6808 292.92 93.7207 296.315C94.4984 297.214 95.0639 298.213 95.6295 299.211C95.7709 299.461 96.1243 299.561 96.4778 299.511C98.7401 299.011 101.497 299.91 102.558 301.458C103.618 303.005 102.982 305.002 101.073 306.151C100.79 306.35 100.72 306.65 101.002 306.85C101.144 306.95 101.356 307.049 101.568 307.049C101.709 307.049 101.921 307 101.992 306.95C104.325 305.552 105.173 303.005 103.83 301.058C102.558 299.211 99.5178 298.113 96.6899 298.512C96.1951 297.613 95.6295 296.715 94.8518 295.866C93.65 294.468 91.8826 293.37 89.9031 292.621C94.8518 290.324 100.578 289.625 104.961 290.823C107.506 291.522 109.769 293.17 110.758 295.117C111.607 296.715 111.536 298.312 110.546 299.61C110.405 299.81 110.476 300.11 110.758 300.259C111.041 300.409 111.395 300.409 111.677 300.21C113.021 299.361 114.859 298.862 116.909 298.862C119.383 298.862 121.646 299.561 123.06 300.809C124.332 301.807 124.898 303.305 124.615 304.903Z" fill="#C1E3F8"/>
<path d="M51.3037 289.176C48.2638 289.076 45.2945 290.374 44.022 292.321C43.5271 293.07 43.4564 293.719 43.8099 294.268C43.8806 294.468 44.0927 294.618 44.2341 294.768C43.5271 295.217 42.8909 295.816 42.6081 296.565C42.0425 297.863 42.4667 299.161 43.6685 299.96C43.8099 300.06 43.9513 300.11 44.1634 300.11C44.3755 300.11 44.5169 300.06 44.6582 299.96C44.941 299.76 44.941 299.461 44.6582 299.261C43.8806 298.712 43.5978 297.763 43.9513 296.864C44.3048 296.116 44.941 295.516 45.8601 295.267C46.1429 295.267 46.4257 295.167 46.7085 295.067C46.9912 294.917 47.0619 294.668 46.9205 294.468C46.7791 294.268 46.4964 294.118 46.1429 294.168C45.9308 294.218 45.7894 294.218 45.5773 294.268C45.3652 294.218 45.1531 294.118 45.0825 293.969C44.8704 293.619 45.0824 293.17 45.2945 292.82C46.355 291.223 48.7586 290.174 51.233 290.274C51.6572 290.274 51.9399 290.074 51.9399 289.775C52.0106 289.425 51.7279 289.176 51.3037 289.176Z" fill="#C1E3F8"/>
<path d="M251.605 536.421C255.135 536.421 258.469 535.682 261.41 534.287C261.901 534.04 262.489 534.204 262.783 534.533C266.411 539.541 272.785 542.907 279.747 543.728C280.728 543.81 281.709 543.892 282.689 543.892C288.573 543.892 294.26 542.004 298.574 538.802C296.417 537.981 294.358 536.914 292.298 535.846C291.808 535.6 291.71 535.108 292.004 534.697C292.298 534.287 292.887 534.204 293.377 534.451C296.122 535.846 298.966 537.324 302.006 538.145C305.34 539.048 308.576 538.966 311.027 538.063C311.518 537.899 312.106 538.063 312.302 538.473C312.498 538.884 312.302 539.377 311.812 539.541C310.243 540.115 308.478 540.444 306.615 540.444C304.948 540.444 303.183 540.198 301.32 539.705C301.32 539.705 301.222 539.705 301.222 539.623C306.321 544.959 314.852 548.243 323.873 548.243C330.737 548.243 337.111 546.355 341.817 542.989C342.014 542.825 342.21 542.825 342.504 542.825H342.602C342.896 542.825 343.092 542.989 343.288 543.153C346.426 546.683 351.82 548.818 357.703 548.818C363.39 548.818 368.587 546.847 371.725 543.563C374.47 540.608 379.275 540.197 383.982 539.787C386.531 539.541 389.179 539.377 391.238 538.72C402.024 535.436 411.241 527.637 414.672 518.935C416.633 514.009 417.613 506.538 411.533 498.821C406.826 492.828 397.804 488.97 388.685 488.97C383.39 488.97 378.487 490.201 374.565 492.582C374.369 492.746 373.977 492.746 373.781 492.746C373.486 492.664 373.29 492.5 373.094 492.253C368.583 483.716 358.581 477.558 347.5 476.409C346.814 476.327 346.226 476.327 345.637 476.327C343.186 476.327 341.421 476.902 340.538 477.969C340.342 478.215 340.048 478.297 339.656 478.297C339.362 478.297 339.068 478.133 338.871 477.887C332.693 468.281 319.259 462.371 303.962 462.371C299.648 462.371 295.529 462.863 291.509 463.766C280.625 466.393 271.408 471.73 265.721 478.954C259.936 486.26 258.074 495.619 260.722 503.501C264.448 500.956 269.351 499.806 274.155 500.299C275.43 500.463 276.803 500.874 277.587 501.612C279.254 499.56 282.294 498.246 285.334 498.411C289.06 498.575 292.394 500.791 293.571 503.829C293.767 504.239 293.473 504.732 292.885 504.896C292.394 505.06 291.806 504.814 291.61 504.322C290.727 501.941 287.981 500.217 285.138 500.053C282.196 499.888 279.352 501.53 278.47 503.829C278.274 504.239 277.882 504.486 277.392 504.404C276.901 504.322 276.607 503.993 276.607 503.583C276.607 502.844 275.234 502.187 273.861 502.023C269.056 501.448 263.958 502.926 260.624 505.881C257.29 508.837 255.82 513.106 256.702 517.129C256.8 517.539 256.408 518.032 255.918 518.114C255.82 518.114 255.82 518.114 255.722 518.114C255.232 518.114 254.839 517.867 254.741 517.457C253.76 513.188 255.231 508.508 258.663 505.225C256.505 504.486 254.152 504.157 251.799 504.157C245.425 504.157 239.248 506.62 235.718 510.643C230.325 516.718 230.914 525.831 236.896 531.413C240.426 534.451 245.917 536.421 251.605 536.421ZM370.646 541.347C371.823 541.101 372.803 540.362 373.784 539.787C377.608 537.324 381.04 534.861 382.314 531.495C382.412 531.249 382.706 531.003 383.001 530.921C383.295 530.839 383.687 530.921 383.883 531.085C384.962 531.988 386.629 532.398 388.394 532.316C390.061 532.234 391.63 531.577 392.61 530.592C393.591 529.607 393.885 528.047 393.002 527.391C392.61 527.062 392.512 526.57 392.904 526.241C393.296 525.913 393.885 525.831 394.277 526.159C396.238 527.555 395.748 530.1 394.179 531.659C392.806 532.973 390.747 533.794 388.492 533.958C386.727 534.04 385.06 533.712 383.687 532.973C382.02 536.257 378.687 538.638 374.961 541.018C373.882 541.675 372.705 542.496 371.136 542.825C370.548 542.989 369.862 543.071 369.175 543.071C367.704 543.071 366.234 542.742 364.959 542.496L359.075 541.183C358.585 541.101 358.291 540.608 358.389 540.198C358.487 539.787 359.075 539.541 359.566 539.623L365.547 541.018C367.214 541.347 368.979 541.757 370.646 541.347ZM347.011 492.171C349.659 491.022 353.09 491.104 355.738 492.336C357.993 493.403 359.465 495.373 359.955 497.508C362.112 497.097 364.564 497.754 366.133 499.232C367.702 500.792 368.388 503.008 368.094 505.389C367.996 505.964 367.604 506.62 366.918 506.867C366.721 506.949 366.525 506.949 366.329 506.949C366.035 506.949 365.839 506.867 365.545 506.784C365.054 506.538 364.956 506.046 365.251 505.635C365.447 505.389 365.741 505.307 366.035 505.307V505.225C366.329 503.336 365.839 501.53 364.564 500.381C363.289 499.15 361.034 498.657 359.465 499.396C359.171 499.56 358.778 499.56 358.484 499.396C358.19 499.232 357.994 498.985 357.994 498.739C357.994 496.769 356.621 494.798 354.562 493.813C352.502 492.828 349.855 492.746 347.796 493.649C347.305 493.895 346.717 493.731 346.521 493.321C346.325 492.91 346.521 492.418 347.011 492.171ZM308.571 470.334C312.003 469.595 315.827 470.17 319.063 471.976C322.299 473.782 324.457 476.491 325.045 479.364C325.144 479.775 324.751 480.267 324.261 480.267C324.163 480.267 324.163 480.267 324.065 480.267C323.575 480.267 323.182 479.939 323.084 479.611C322.594 477.148 320.731 474.849 317.985 473.289C315.239 471.73 312.003 471.237 309.062 471.894C308.571 471.976 307.983 471.729 307.885 471.319C307.689 470.826 307.983 470.416 308.571 470.334Z" fill="white"/>
<path d="M399.475 514.748C397.71 515.24 395.749 515.076 393.984 515.569C392.023 516.143 390.356 517.375 388.591 518.278C382.806 521.233 374.765 520.823 369.568 517.211C365.744 524.189 353.782 526.898 346.329 522.383C332.798 532.398 309.362 530.839 297.987 519.099C291.613 525.913 277.003 525.174 271.609 517.785C266.118 519.509 260.627 521.151 254.842 521.972C248.174 522.957 240.722 522.793 235.23 519.345C234.152 518.688 233.171 517.785 232.288 516.8C231.112 521.808 232.681 527.308 236.8 531.085C240.33 534.369 245.92 536.339 251.607 536.339C255.137 536.339 258.471 535.6 261.412 534.204C261.903 533.958 262.491 534.122 262.785 534.451C266.414 539.459 272.788 542.825 279.75 543.646C280.73 543.728 281.711 543.81 282.691 543.81C288.575 543.81 294.262 541.921 298.576 538.72C296.419 537.899 294.36 536.832 292.301 535.764C291.81 535.518 291.712 535.025 292.006 534.615C292.3 534.204 292.889 534.122 293.379 534.369C296.125 535.764 298.968 537.242 302.008 538.063C305.342 538.966 308.578 538.884 311.029 537.981C311.52 537.817 312.108 537.981 312.304 538.391C312.5 538.802 312.304 539.294 311.814 539.459C310.245 540.033 308.48 540.362 306.617 540.362C304.95 540.362 303.185 540.115 301.322 539.623C301.322 539.623 301.224 539.623 301.224 539.541C306.323 544.877 314.854 548.161 323.876 548.161C330.74 548.161 337.113 546.273 341.82 542.907C342.016 542.742 342.212 542.742 342.506 542.742H342.604C342.898 542.742 343.094 542.907 343.291 543.071C346.429 546.601 351.822 548.735 357.705 548.735C363.393 548.735 368.589 546.765 371.727 543.481C374.472 540.526 379.277 540.115 383.984 539.705C386.533 539.459 389.181 539.294 391.24 538.638C402.026 535.354 411.243 527.555 414.674 518.853C416.341 514.666 417.321 508.591 413.693 502.105C411.241 504.978 408.594 507.852 405.849 510.561C404.084 512.203 402.123 514.009 399.475 514.748ZM394.083 531.742C392.711 533.055 390.651 533.876 388.396 534.04C386.631 534.122 384.964 533.794 383.591 533.055C381.924 536.339 378.591 538.72 374.865 541.101C373.786 541.757 372.609 542.578 371.041 542.907C370.452 543.071 369.766 543.153 369.079 543.153C367.609 543.153 366.138 542.824 364.863 542.578L359.078 541.183C358.587 541.101 358.293 540.608 358.391 540.197C358.489 539.787 359.077 539.541 359.568 539.623L365.549 541.018C367.118 541.347 368.981 541.839 370.648 541.429C371.825 541.183 372.805 540.444 373.786 539.869C377.61 537.406 381.042 534.943 382.316 531.577C382.414 531.331 382.709 531.085 383.003 531.003C383.297 530.921 383.689 531.003 383.885 531.167C384.964 532.07 386.631 532.48 388.396 532.398C390.063 532.316 391.632 531.659 392.612 530.674C393.593 529.689 393.887 528.129 393.004 527.473C392.612 527.144 392.514 526.652 392.906 526.323C393.298 525.995 393.887 525.913 394.279 526.241C396.142 527.637 395.652 530.182 394.083 531.742Z" fill="#EAF7FD"/>
<path d="M251.606 538.062C255.137 538.062 258.568 537.406 261.51 536.092C265.531 541.1 272.101 544.548 279.357 545.369C280.436 545.451 281.514 545.533 282.593 545.533C288.672 545.533 294.752 543.645 299.36 540.361C304.852 546.272 314.069 549.884 323.875 549.884C330.837 549.884 337.309 548.078 342.31 544.712C345.84 548.242 351.527 550.377 357.705 550.377C363.98 550.377 369.766 548.16 373.295 544.466C375.551 542.085 379.767 541.757 384.18 541.346C386.827 541.1 389.573 540.854 391.926 540.197C403.398 536.667 412.811 528.703 416.537 519.345C419.478 511.792 418.301 504.321 413.103 497.753C407.906 491.186 398.59 487.163 388.588 487.163C383.293 487.163 378.391 488.312 374.272 490.529C369.271 481.991 358.975 475.752 347.6 474.602C344.168 474.274 341.422 474.684 339.755 475.916C332.989 466.393 319.26 460.482 303.767 460.482C299.355 460.482 294.942 460.974 290.824 461.96C279.45 464.669 269.939 470.251 263.958 477.804C257.977 485.357 255.918 494.88 258.566 503.172C256.409 502.515 254.055 502.269 251.702 502.269C244.74 502.269 237.974 505.06 234.052 509.493C228.169 516.143 228.758 526.159 235.427 532.316C239.349 535.846 245.331 538.062 251.606 538.062ZM235.621 510.396C239.151 506.373 245.328 503.911 251.702 503.911C254.154 503.911 256.507 504.239 258.566 504.978C255.134 508.262 253.664 512.941 254.645 517.21C254.743 517.621 255.135 517.867 255.625 517.867C255.723 517.867 255.723 517.867 255.822 517.867C256.312 517.785 256.704 517.374 256.606 516.882C255.723 512.859 257.194 508.59 260.527 505.635C263.861 502.679 268.96 501.201 273.765 501.776C275.138 501.94 276.51 502.515 276.511 503.336C276.511 503.746 276.805 504.075 277.295 504.157C277.785 504.239 278.276 503.993 278.374 503.582C279.256 501.283 282.198 499.724 285.041 499.806C287.885 499.97 290.631 501.776 291.513 504.075C291.709 504.485 292.2 504.731 292.788 504.649C293.278 504.485 293.572 504.075 293.474 503.582C292.298 500.545 288.963 498.328 285.237 498.164C282.198 498 279.158 499.313 277.491 501.366C276.608 500.627 275.334 500.216 274.059 500.052C269.352 499.477 264.351 500.709 260.625 503.254C257.879 495.373 259.742 486.014 265.625 478.707C271.311 471.483 280.528 466.146 291.413 463.519C295.433 462.616 299.551 462.124 303.866 462.124C319.261 462.124 332.597 468.035 338.775 477.64C338.971 477.886 339.265 478.05 339.559 478.05C339.952 478.05 340.246 477.968 340.442 477.722C341.422 476.655 343.089 476.08 345.541 476.08C346.129 476.08 346.815 476.08 347.404 476.162C358.386 477.311 368.487 483.469 372.998 492.007C373.096 492.253 373.39 492.417 373.684 492.499C373.978 492.581 374.273 492.499 374.469 492.335C378.391 489.954 383.293 488.723 388.589 488.723C397.806 488.723 406.729 492.581 411.436 498.574C417.517 506.291 416.536 513.762 414.576 518.688C411.144 527.39 402.026 535.189 391.141 538.473C389.082 539.13 386.435 539.376 383.885 539.54C379.179 539.951 374.374 540.361 371.628 543.317C368.491 546.6 363.294 548.571 357.607 548.571C351.625 548.571 346.232 546.436 343.192 542.906C342.996 542.742 342.8 542.578 342.505 542.578H342.407C342.211 542.578 341.917 542.66 341.721 542.742C337.015 546.108 330.641 547.996 323.777 547.996C314.756 547.996 306.225 544.712 301.125 539.376C301.125 539.376 301.223 539.376 301.223 539.458C302.988 539.951 304.852 540.197 306.518 540.197C308.382 540.197 310.147 539.869 311.715 539.294C312.206 539.13 312.402 538.637 312.206 538.227C312.009 537.816 311.421 537.652 310.931 537.816C308.381 538.801 305.146 538.801 301.91 537.898C298.87 537.077 296.026 535.6 293.28 534.204C292.79 533.958 292.202 534.122 291.908 534.45C291.613 534.861 291.81 535.353 292.202 535.6C294.163 536.667 296.222 537.734 298.478 538.555C294.163 541.757 288.476 543.645 282.593 543.645C281.612 543.645 280.632 543.563 279.651 543.481C272.689 542.742 266.413 539.294 262.687 534.286C262.392 533.876 261.804 533.793 261.314 534.04C258.47 535.435 255.136 536.174 251.508 536.174C245.821 536.174 240.33 534.204 236.701 530.92C230.818 525.584 230.327 516.471 235.621 510.396Z" fill="#C1E3F8"/>
<path d="M359.567 539.622C359.076 539.54 358.488 539.786 358.39 540.196C358.292 540.607 358.586 541.099 359.076 541.182L365.058 542.577C366.333 542.823 367.706 543.152 369.274 543.152C369.863 543.152 370.549 543.07 371.236 542.906C372.706 542.577 373.981 541.756 375.06 541.099C378.688 538.719 382.119 536.338 383.786 533.054C385.159 533.793 386.826 534.121 388.591 534.039C390.846 533.957 392.905 533.136 394.278 531.74C395.847 530.181 396.337 527.636 394.376 526.24C393.984 525.912 393.297 525.994 393.003 526.322C392.611 526.651 392.709 527.225 393.101 527.471C394.082 528.128 393.69 529.77 392.709 530.673C391.729 531.658 390.16 532.315 388.493 532.397C386.826 532.479 385.159 532.069 383.982 531.166C383.688 531.002 383.394 530.92 383.1 531.002C382.805 531.084 382.511 531.248 382.413 531.576C381.237 534.942 377.707 537.405 373.883 539.868C373 540.443 371.922 541.182 370.745 541.428C369.176 541.838 367.313 541.428 365.646 541.017L359.567 539.622Z" fill="#C1E3F8"/>
<path d="M347.896 493.648C349.955 492.745 352.603 492.827 354.662 493.812C356.721 494.797 357.996 496.768 358.094 498.738C358.094 499.066 358.29 499.313 358.585 499.395C358.879 499.559 359.271 499.559 359.565 499.395C361.134 498.656 363.389 499.149 364.664 500.38C365.939 501.529 366.429 503.335 366.135 505.224V505.306C365.841 505.306 365.547 505.47 365.351 505.634C365.057 506.045 365.155 506.537 365.645 506.783C365.841 506.948 366.135 506.948 366.43 506.948C366.626 506.948 366.822 506.948 367.018 506.866C367.704 506.619 368.097 505.962 368.195 505.388C368.587 503.007 367.9 500.79 366.233 499.231C364.664 497.753 362.213 497.096 360.055 497.507C359.565 495.372 357.996 493.402 355.839 492.335C353.289 491.021 349.857 490.939 347.111 492.17C346.621 492.417 346.425 492.909 346.719 493.238C346.817 493.73 347.406 493.812 347.896 493.648Z" fill="#C1E3F8"/>
<path d="M309.064 471.893C312.006 471.237 315.242 471.811 317.988 473.289C320.733 474.849 322.597 477.147 323.087 479.61C323.185 480.021 323.577 480.267 324.068 480.267C324.068 480.267 324.166 480.267 324.264 480.267C324.754 480.185 325.146 479.774 325.048 479.364C324.558 476.409 322.302 473.699 319.066 471.975C315.83 470.169 312.006 469.595 308.574 470.333C308.084 470.416 307.692 470.908 307.888 471.319C307.986 471.729 308.574 471.975 309.064 471.893Z" fill="#C1E3F8"/>
</svg>
