<svg width="33" height="39" viewBox="0 0 33 39" fill="none" xmlns="http://www.w3.org/2000/svg">
<path d="M30.8094 21.1812L4.63202 28.6418C3.50369 29.094 2.14972 28.1896 1.69838 27.0593L0.118689 21.6334C-0.332644 20.503 0.57005 19.1465 1.69838 18.6943L27.8757 11.2337C29.004 10.7815 30.3581 11.6859 30.8094 12.8163L32.389 18.2422C32.8403 19.5986 32.1634 20.9551 30.8094 21.1812Z" fill="#ADB7DD"/>
<path d="M17.4942 3.99915C18.3969 6.93818 16.5915 9.87722 13.6579 10.7815C10.7242 11.6859 7.79053 9.87723 6.88787 6.93819C5.9852 3.99916 7.79056 1.06012 10.7242 0.155802C13.6579 -0.522436 16.5916 1.06011 17.4942 3.99915Z" fill="#ADB7DD"/>
<path d="M25.3946 31.807C26.2973 34.746 24.4919 37.685 21.5583 38.5894C18.6246 39.4937 15.6909 37.6851 14.7883 34.746C13.8856 31.807 15.691 28.8679 18.6246 27.9636C21.5583 27.2854 24.4919 28.8679 25.3946 31.807Z" fill="#ADB7DD"/>
</svg>
