<svg width="115" height="89" viewBox="0 0 115 89" fill="none" xmlns="http://www.w3.org/2000/svg">
<path d="M22.7151 6.83397C22.5726 6.73894 22.2431 6.87944 22.0182 6.99967C21.8893 7.05529 21.7634 7.12568 21.6702 7.20506C17.4625 9.90589 13.5773 13.3107 10.1709 16.9447C7.24036 20.0726 4.59353 23.5441 2.73461 27.3995C0.973032 31.0367 -0.323504 35.4729 0.308534 39.5355C0.458353 40.5489 0.966339 41.5696 1.70971 42.284C3.16083 43.6891 5.22269 43.4429 6.99795 42.8383C6.90379 44.8341 7.26831 47.6761 9.24874 48.6108C11.1786 49.5246 13.619 48.2699 15.2543 47.2632C17.0006 46.189 18.2952 44.8651 19.2832 43.0794C21.4958 39.0481 22.2017 34.2051 22.6807 29.7127C23.2049 24.8129 23.3026 19.8731 23.203 14.9562C23.1477 12.2689 23.0596 9.57257 22.8341 6.88757C22.8283 6.85802 22.7927 6.83426 22.7151 6.83397Z" fill="#5B5B5D"/>
<path d="M98.4804 28.6541C95.8215 20.6152 89.4231 13.5309 81.4429 10.3709C74.3375 7.56259 66.6973 8.39908 59.2979 9.35754C55.8313 9.79926 52.3107 10.2821 48.8172 10.0239C47.8565 9.94943 46.5613 9.90913 45.7912 9.53713C45.1935 9.25436 44.6292 8.9038 44.0315 8.62103C38.5518 5.95763 32.1837 4.23286 26.0474 5.14587C22.2933 5.70462 18.8872 7.49898 16.4007 10.3569C13.4953 13.6945 11.8526 18.1058 10.907 22.3515C9.06458 30.6953 10.5542 39.3439 14.2765 46.9468C18.7151 56.0051 25.9668 63.4913 34.0822 69.4305C36.4145 71.1401 38.8491 72.7379 41.3235 74.2207C42.0532 78.387 42.7801 82.5385 43.4948 86.7076C43.5972 87.3163 43.6996 87.925 43.8142 88.516C43.8628 88.7672 44.7948 88.6939 44.9742 88.6591C45.9609 88.468 46.9327 88.2797 47.9194 88.0885C47.9344 88.0856 48.1287 88.048 48.1173 87.9889C47.9859 84.7491 47.8517 81.4945 47.7203 78.2547C48.3842 80.6402 49.048 83.0256 49.7119 85.4111C49.8798 86.0377 50.0598 86.6467 50.2278 87.2733C50.2943 87.5364 51.1935 87.4541 51.3879 87.4165C52.554 87.1905 53.7051 86.9675 54.8713 86.7415C54.8862 86.7386 55.0806 86.701 55.0691 86.6419C54.6635 84.0684 54.258 81.4949 53.8375 78.9244C59.7263 79.7762 65.8501 78.559 71.4851 76.9C76.8118 75.3314 81.982 73.1952 86.9697 70.7572C87.5362 70.4788 88.1027 70.2004 88.6514 69.9101C88.7077 72.8425 88.7611 75.7601 88.8174 78.6926C88.8184 78.9376 89.828 78.8647 89.9775 78.8357C90.5905 78.7169 91.2034 78.5982 91.8313 78.4765C92.1004 78.4244 92.6587 78.4235 92.8664 78.2146C93.035 78.044 93.1193 77.5984 93.2045 77.398C93.8785 75.6731 94.5049 73.9421 95.0806 72.1902C97.2239 65.7197 98.8793 59.0524 99.7861 52.2849C100.836 44.4933 100.973 36.2346 98.4804 28.6541Z" fill="#B5C0C6"/>
<path d="M62.2826 27.7271C60.5713 26.0198 58.677 24.4093 56.6677 23.0051C58.4725 23.5138 60.3833 23.8488 62.1789 23.6695C63.4875 23.5386 64.6632 22.8815 64.4574 21.4191C64.2328 19.6997 63.0676 18.0092 61.962 16.7058C59.2716 13.5479 55.45 11.437 51.6661 9.8401C47.8999 8.25502 43.9568 7.11812 39.955 6.23789C37.8155 5.7633 35.6547 5.33883 33.4656 5.08848C33.2035 5.01662 32.9494 5.06586 32.9026 5.30487C32.1087 10.3336 31.7199 15.4524 31.5256 20.5336C31.3471 25.1364 31.3773 29.7755 31.7571 34.3775C32.1411 38.8407 32.8262 43.3375 34.2837 47.5774C35.5284 51.1994 37.4153 54.7735 40.4638 57.2181C43.367 59.553 47.4567 60.6461 51.1752 60.0636C58.6121 58.8986 56.5245 49.6453 54.9681 44.7347C54.0253 41.7901 52.8582 38.889 51.5382 36.0788C53.5558 38.6465 55.9408 41.1891 58.9334 42.4641C60.4237 43.1105 62.1321 43.362 63.6752 42.6798C65.389 41.9185 66.7288 40.1872 67.1913 38.4113C68.2162 34.3343 64.9561 30.3977 62.2826 27.7271Z" fill="#5B5B5D"/>
<path d="M11.0908 25.0751C11.0908 25.0751 10.0449 55.4621 22.3129 82.9935L25.2581 82.4229C25.2581 82.4229 18.5484 54.9183 23.9114 45.3711L11.0908 25.0751Z" fill="#B5C0C6"/>
<path d="M13.8523 24.2642C14.5211 24.1346 14.9146 23.2622 14.7312 22.3157C14.5478 21.3691 13.857 20.7068 13.1882 20.8364C12.5194 20.966 12.1259 21.8384 12.3093 22.7849C12.4927 23.7315 13.1835 24.3938 13.8523 24.2642Z" fill="white"/>
<path d="M23.3174 24.3465C24.5724 24.1033 25.395 22.9007 25.1547 21.6603C24.9143 20.42 23.7021 19.6117 22.4471 19.8548C21.1921 20.098 20.3695 21.3006 20.6098 22.5409C20.8501 23.7813 22.0623 24.5896 23.3174 24.3465Z" fill="white"/>
<path d="M23.2231 22.8933C23.1032 22.5946 22.9187 22.523 22.8112 22.5285C22.7008 22.5193 22.5064 22.5569 22.3608 22.8458C22.2698 23.0167 22.2173 23.2261 22.2004 23.4593C22.154 24.0202 22.3595 24.4403 22.6877 24.4533C22.7205 24.4623 22.7504 24.4565 22.7803 24.4507C23.0494 24.3986 23.2733 24.0333 23.2985 23.5225C23.3153 23.2893 23.2873 23.0648 23.2231 22.8933Z" fill="#5B5B5D"/>
<path d="M13.6794 22.6421C13.3661 22.6261 13.1002 23.0149 13.0687 23.5729C13.0518 23.8061 13.0798 24.0306 13.1441 24.2021C13.264 24.5008 13.4485 24.5724 13.556 24.5669C13.5859 24.5611 13.6187 24.5701 13.6486 24.5643C13.7532 24.544 13.8941 24.4707 14.0064 24.2497C14.0974 24.0787 14.1499 23.8693 14.1667 23.6361C14.1982 23.0781 13.9927 22.658 13.6794 22.6421Z" fill="#5B5B5D"/>
<path d="M93.1015 21.234C94.4696 24.3721 96.1488 27.4346 98.0478 30.2706C99.8555 32.9557 103.616 38.4355 107.583 36.3332C108.666 35.7556 109.447 34.7457 110.038 33.7115C111.053 31.9052 111.64 29.8906 112.107 27.8991C112.203 27.5127 111.437 27.7224 111.366 27.9967C110.957 29.7315 110.459 31.4836 109.673 33.1077C109.196 34.0892 108.578 35.144 107.645 35.7695C106.179 36.7738 104.455 35.9583 103.2 35.0057C101.414 33.6348 100.029 31.7722 98.788 29.9279C97.5436 28.0688 96.4373 26.1217 95.4 24.1305C94.8507 23.0566 94.3163 21.9797 93.8239 20.8794C93.7218 20.5926 92.9816 20.9353 93.1015 21.234Z" fill="#B5C0C6"/>
<path d="M113.669 21.5413C113.507 21.588 113.476 21.7473 113.442 21.8919C113.368 22.1515 113.312 22.4229 113.223 22.6854C113.097 23.1544 112.953 23.6116 112.809 24.0687C112.867 23.1683 112.91 22.2708 112.894 21.3849C112.887 21.1102 112.954 20.2542 112.542 20.2113C112.322 20.1927 112.204 20.3842 112.095 20.5433C111.822 20.9793 111.669 21.4689 111.531 21.9556C111.457 22.2151 111.386 22.4895 111.327 22.7462C111.322 22.6398 111.332 22.5306 111.327 22.4243C111.32 22.2264 111.299 20.7588 110.751 21.3709C110.597 21.5387 110.544 21.8249 110.473 22.0225C110.329 22.4796 110.218 22.9458 110.11 23.4267C109.829 24.5388 109.699 25.7904 109.902 26.9162C110.03 27.5811 110.317 28.2613 110.966 28.5649C111.495 28.8149 112.178 28.8205 112.677 28.5093C113.814 27.8138 113.969 25.9747 114.051 24.7939C114.092 24.1267 114.098 23.4357 114.076 22.7654C114.067 22.4759 114.072 22.1836 114.018 21.9029C114.013 21.7198 113.914 21.4478 113.669 21.5413Z" fill="#5B5B5D"/>
<path d="M28.6105 1.15399C28.1967 1.74005 27.7978 2.32322 27.384 2.90929C27.2914 2.1914 27.1839 1.4764 27.0913 0.758502C27.0713 0.655077 26.7344 0.597708 26.6918 0.697945C26.3969 1.33761 26.1021 1.97727 25.8072 2.61694C25.6062 2.37995 25.4201 2.14007 25.2162 1.88831C25.1748 1.83501 24.7874 1.75678 24.8103 1.87498C24.8784 2.30635 24.9642 2.74961 25.0323 3.18098C25.157 3.98463 25.1109 4.86737 25.9281 5.32222C26.3114 5.53922 26.7891 5.5233 27.1613 5.28256C27.6146 4.98012 27.8967 4.4349 28.1305 3.96037C28.3828 3.42094 28.5816 2.84587 28.7505 2.2766C28.8548 1.93446 28.9442 1.59522 29.0158 1.2441C29.0348 1.10243 28.6589 1.0833 28.6105 1.15399Z" fill="#5B5B5D"/>
<path d="M82.8759 69.4807C82.9274 69.7467 83.6946 79.4704 83.6946 79.4704L86.1016 79.0041L88.8286 65.8593L82.8759 69.4807Z" fill="#92A0A8"/>
<path d="M11.2322 35.0731C12.9556 35.3217 17.5268 37.3793 20.1565 35.2602L11.2322 35.0731Z" fill="white"/>
<path d="M17.7085 39.8431L11.7809 39.3514C11.7809 39.3514 14.3797 41.3159 17.7085 39.8431Z" fill="white"/>
<path d="M16.6745 43.0634L12.0266 43.4121C12.0116 43.415 14.4736 44.5936 16.6745 43.0634Z" fill="white"/>
<path d="M16.4828 46.3965L12.7303 47.1236C12.7303 47.1236 14.2822 47.9283 16.4828 46.3965Z" fill="white"/>
<path d="M17.2497 50.3562L12.9739 51.1847C13.4972 51.0833 15.5873 51.7837 17.2497 50.3562Z" fill="white"/>
<path d="M16.152 54.6932L13.6934 54.8933C13.6934 54.8933 14.4231 55.8573 16.152 54.6932Z" fill="white"/>
<path d="M16.4983 57.9216L14.3604 58.3358C14.3604 58.3358 15.0356 59.0187 16.4983 57.9216Z" fill="white"/>
<path d="M17.0619 60.8323L14.924 61.2465C15.7164 61.093 16.0858 61.5587 17.0619 60.8323Z" fill="white"/>
<path d="M18.0605 63.1068L15.3844 63.6253C15.3844 63.6253 17.6742 63.9953 18.0605 63.1068Z" fill="white"/>
<path d="M18.7241 66.5346L16.5862 66.9488C16.5713 66.9517 17.5334 67.5944 18.7241 66.5346Z" fill="white"/>
<path d="M19.8105 69.3443L17.6726 69.7585C17.6726 69.7585 19.1729 70.2969 19.8105 69.3443Z" fill="white"/>
<path d="M20.3741 72.255L18.2362 72.6692C18.2362 72.6692 19.4674 73.2597 20.3741 72.255Z" fill="white"/>
<path d="M20.9391 75.166L19.2878 75.2096C19.2878 75.2096 20.0325 76.1707 20.9391 75.166Z" fill="white"/>
<path d="M22.0406 77.972L20.4409 78.2819C20.4409 78.2819 21.6572 78.8753 22.0406 77.972Z" fill="white"/>
<path d="M25.4546 49.0117C25.259 48.4824 24.8264 48.091 24.229 48.1301C23.2941 48.1886 22.7601 48.8746 22.3984 49.6498C21.5628 51.4214 20.5318 52.9855 19.1561 54.3711C18.9093 54.6182 17.3093 56.0473 18.0472 56.3336C18.5323 56.5155 19.4739 56.0111 19.8902 55.8385C21.1814 55.2971 22.4311 54.7023 23.4897 53.7614C24.702 52.6527 26.1 50.7415 25.4546 49.0117Z" fill="white"/>
<path d="M46.3944 86.3757C46.154 86.5756 45.999 86.8969 45.8918 87.2243C45.6549 86.6417 45.2684 86.088 44.7136 86.7474C44.2976 87.2419 44.1653 88.08 44.0527 88.6997C44.0434 88.7322 44.0612 88.744 44.0762 88.7411C44.094 88.753 44.1268 88.762 44.1866 88.7504C45.4061 88.5601 46.6107 88.3727 47.8303 88.1824C47.905 88.1679 48.1057 88.083 48.0679 87.9677C47.8694 87.4236 47.3143 85.5996 46.3944 86.3757Z" fill="#5B5B5D"/>
<path d="M52.9837 84.7618C52.6172 85.0321 52.4547 85.5541 52.364 86.0469C52.1197 85.2665 51.6143 83.9387 50.9231 84.8545C50.4068 85.5524 50.2812 86.6651 50.1609 87.4856C50.1609 87.4856 50.1609 87.4856 50.1787 87.4974C50.1787 87.4974 50.1816 87.5122 50.2115 87.5064C51.8283 87.2851 53.4602 87.0609 55.077 86.8396C55.1069 86.8338 55.2357 86.7782 55.23 86.7487C54.9304 86.1629 54.0019 84.0126 52.9837 84.7618Z" fill="#5B5B5D"/>
<path d="M85.3087 77.5481C85.0498 77.8129 84.8943 78.2109 84.7836 78.6003C84.7085 78.2929 84.5857 77.9794 84.3898 77.8488C84.1967 77.7329 84.0081 77.8001 83.905 77.9887C83.6505 78.4366 83.6391 79.098 83.5961 79.5969C83.5926 79.6589 83.7685 79.6861 83.8404 79.6568C84.6328 79.5033 85.4252 79.3498 86.2175 79.1963C86.2325 79.1934 86.2923 79.1818 86.2865 79.1522C86.235 78.8863 86.0855 76.7537 85.3087 77.5481Z" fill="#5B5B5D"/>
<path d="M91.7482 76.3466C91.3305 76.6728 91.0427 77.1885 90.8117 77.6778C90.6683 77.3377 90.5099 77.0005 90.2974 76.7044C90.1912 76.5563 90.0464 76.3697 89.8648 76.313C89.5521 76.2202 89.3053 76.4674 89.1838 76.7209C88.844 77.3692 88.7893 78.2076 88.7416 78.922C88.7445 78.9368 88.7445 78.9368 88.7473 78.9516C88.7502 78.9664 88.7652 78.9635 88.8129 78.9695C88.8129 78.9695 88.8129 78.9695 88.8278 78.9666C90.0859 78.8149 91.3589 78.6602 92.6169 78.5084C92.6468 78.5026 92.7963 78.4737 92.7998 78.4117C92.7922 77.8919 92.878 75.4532 91.7482 76.3466Z" fill="#5B5B5D"/>
<path d="M20.4465 12.4243C20.498 12.6902 23.9557 14.7643 29.3708 12.6114L20.4465 12.4243Z" fill="white"/>
</svg>
