<svg width="78" height="92" viewBox="0 0 78 92" fill="none" xmlns="http://www.w3.org/2000/svg">
<path d="M63.2441 49.3716C67.1055 35.1172 58.6923 20.4291 44.4522 16.5639C30.2121 12.6987 15.462 21.1974 11.6527 35.466C9.76047 42.5547 10.8921 49.7361 14.2726 55.6378C16.9029 60.2299 18.3229 65.4175 18.3164 70.708L18.3166 78.9683L35.2145 83.555L39.1567 76.7987C41.8753 72.1324 45.8442 68.3236 50.55 65.6667C56.5702 62.2886 61.294 56.5706 63.2441 49.3716Z" fill="#FFF405"/>
<path d="M28.3802 91.388L20.1462 89.153C17.8141 88.52 16.2741 86.2539 16.7373 84.0276L18.336 75.3892L37.0246 80.3359L33.9088 88.6885C33.1755 90.8275 30.7123 92.021 28.3802 91.388Z" fill="#59595B"/>
<path d="M34.3459 83.5572C29.0748 82.3643 23.9082 80.6821 18.637 79.4892C18.161 79.388 18.02 80.0633 18.4689 80.2131C23.6342 81.797 28.9596 82.8927 34.1249 84.4766C34.7076 84.6488 34.9393 83.6903 34.3459 83.5572Z" fill="#808183"/>
<path d="M33.7304 85.8265C28.4593 84.6335 23.2927 82.9513 18.0215 81.7584C17.5455 81.6572 17.4045 82.3325 17.8534 82.4823C23.0186 84.0662 28.3441 85.1619 33.5093 86.7459C34.0921 86.918 34.3237 85.9595 33.7304 85.8265Z" fill="#808183"/>
<path d="M50.1095 4.00037C49.6573 5.6697 47.1533 11.4023 46.0719 11.1088C44.9776 10.8117 45.7227 4.60172 46.1749 2.9324C46.6271 1.26307 47.8769 0.160263 48.9582 0.45378C50.0361 0.760339 50.5581 2.34409 50.1095 4.00037Z" fill="#FFF405"/>
<path d="M72.2014 19.8678C70.6445 20.6072 65.4604 24.1002 65.9378 25.1259C66.4318 26.142 72.3985 24.3034 73.9555 23.564C75.5125 22.8246 76.3759 21.3929 75.8819 20.3767C75.4175 19.3547 73.762 19.1153 72.2014 19.8678Z" fill="#FFF405"/>
<path d="M74.5631 49.1536C72.852 48.9132 66.8516 47.1585 67.0145 46.0407C67.1645 44.9193 73.4298 44.8699 75.1279 45.1068C76.839 45.3472 78.0944 46.444 77.9315 47.5618C77.7721 48.6666 76.2648 49.3775 74.5631 49.1536Z" fill="#FFF405"/>
<path d="M21.8793 4.06648C22.903 5.4504 25.8851 10.964 24.9745 11.6409C24.0638 12.3177 19.6354 7.90958 18.5986 6.52212C17.5749 5.1382 17.4671 3.47088 18.3777 2.79403C19.2884 2.11717 20.852 2.6956 21.8793 4.06648Z" fill="#FFF405"/>
<path d="M2.78801 25.0795C4.3861 25.7373 10.4501 27.2572 10.8736 26.2101C11.3101 25.1666 5.928 21.9556 4.34293 21.3014C2.74484 20.6436 1.10791 20.9553 0.684407 22.0024C0.264433 23.0365 1.20295 24.4252 2.78801 25.0795Z" fill="#FFF405"/>
<path d="M45.0336 58.5261C44.3658 57.6868 43.9393 56.731 43.7141 55.7038C44.9666 54.7978 45.7908 53.3554 46.3654 51.9573C46.7098 51.0988 46.9761 50.219 47.2294 49.3357C47.4756 48.4785 47.5526 47.7294 46.9809 47.0002C46.4567 46.3539 45.4837 46.5378 44.8615 46.8729C44.1434 47.2521 43.6331 48.0516 43.2173 48.7088C42.3787 50.0492 41.9512 51.6272 41.8351 53.1917C41.785 53.7382 41.8035 54.2892 41.8517 54.8343C41.4092 55.0222 40.9322 55.1307 40.4338 55.1635C38.9031 55.238 38.0573 54.1264 37.7309 52.7498C37.6797 52.5258 37.632 52.2889 37.6008 52.0424C37.7993 51.7743 37.9848 51.5026 38.1537 51.2405C39.0244 49.9367 39.6877 48.5207 40.2112 47.0528C40.6511 45.8421 41.0799 44.3624 40.0956 43.2973C39.7814 42.96 39.289 43.0223 38.9661 43.2847C36.5632 45.2366 35.7984 48.4731 35.991 51.4795C35.4935 52.1285 34.938 52.7337 34.3599 53.3188C33.712 53.955 32.5638 54.8894 31.5864 54.4701C30.6872 54.072 30.2495 52.6931 29.9819 51.8225C29.788 51.1958 29.6698 50.5477 29.6239 49.8912C29.8259 49.61 30.0315 49.3158 30.2205 49.0311C30.9671 47.8757 31.5489 46.6056 32.0135 45.3036C32.405 44.2199 32.8514 42.675 31.7976 41.8149C31.4883 41.563 30.9636 41.4346 30.6681 41.8024C28.9734 43.8765 28.0619 46.4151 28.0445 49.1125C28.0459 49.2109 28.0507 49.2962 28.0556 49.3815C26.8208 51.0484 25.2305 52.4788 23.4763 53.5848C22.6838 54.0837 23.3865 55.3104 24.198 54.8447C25.7453 53.9346 27.1265 52.8115 28.3215 51.4978C28.4359 52.0049 28.5834 52.4929 28.7605 52.975C29.2585 54.2862 29.9696 55.5853 31.372 56.0359C32.6797 56.4749 34.0649 55.6468 35.0464 54.8632C35.5124 54.4857 35.9628 54.0619 36.3647 53.611C36.7335 54.8311 37.449 55.9074 38.6799 56.4235C39.8065 56.9113 41.0519 56.8573 42.1927 56.4669C42.4914 57.5841 42.9879 58.6428 43.6535 59.5935C44.3488 60.6923 45.8449 59.5583 45.0336 58.5261ZM39.0627 45.355C38.9488 45.9821 38.597 46.7126 38.4685 47.0838C38.2197 47.7442 37.9152 48.4036 37.5787 49.0263C37.7827 47.6536 38.2508 46.3386 39.0627 45.355ZM44.0421 50.8787C44.2673 50.2538 44.6098 49.6607 44.9808 49.1174C45.1462 48.8683 45.3471 48.6428 45.5706 48.4375C45.5871 48.428 45.6604 48.3639 45.7302 48.3128C45.7326 48.3555 45.728 48.4242 45.7068 48.5024C45.361 50.0887 44.7715 51.7487 43.8867 53.1046C43.7721 53.2695 43.6575 53.4344 43.5334 53.5827C43.5546 52.6784 43.7367 51.7478 44.0421 50.8787Z" fill="#ACAFBC"/>
<path d="M47.5343 55.1306C42.5303 62.7607 37.3805 70.3092 32.0435 77.7229C31.4102 78.615 32.759 79.6251 33.4053 78.7365C38.7328 71.3063 43.8565 63.7507 48.7219 56.013C49.2026 55.2194 48.0576 54.3346 47.5343 55.1306Z" fill="#ACAFBC"/>
<path d="M22.7405 47.8404C22.6153 56.9767 22.3362 66.1133 21.812 75.2253C21.7544 76.3157 23.4382 76.4508 23.4958 75.3604C23.9975 66.2282 24.26 57.1011 24.2052 47.9579C24.1979 47.0039 22.7498 46.8769 22.7405 47.8404Z" fill="#ACAFBC"/>
</svg>
