<svg width="40" height="48" viewBox="0 0 40 48" fill="none" xmlns="http://www.w3.org/2000/svg">
<path d="M19.3079 47.6009C5.46292 47.6009 -1.65758 27.6899 1.50742 21.6299C2.78392 19.1854 5.11293 21.4984 8.78942 18.5379C10.6139 17.0684 10.1734 14.5079 10.1764 12.5544C10.1784 11.3819 11.5534 10.5354 12.7374 10.7544C14.0594 10.9989 15.3919 11.8774 17.5279 11.6264C20.0479 11.3304 21.6609 9.5259 24.1539 9.9914C26.2234 10.3774 24.8324 15.2754 31.9744 16.4489C34.3779 16.8439 32.8659 20.7229 34.6494 22.8124C36.1474 24.5674 38.0824 23.3729 39.3829 25.0934C40.9304 27.1409 39.1589 29.4354 38.4929 33.7504C36.8189 44.5934 30.4824 47.6009 19.3079 47.6009Z" fill="#FF672E"/>
<path d="M4.96253 7.65234C3.16553 7.84134 1.05953 10.6278 0.506532 13.3538C-0.0464678 16.0798 1.65553 18.1773 3.26803 17.8648C4.88053 17.5523 7.71403 15.5168 8.17803 13.2403C8.86553 9.86734 7.05703 7.43234 4.96253 7.65234Z" fill="#14A76C"/>
<path d="M9.88629 6.4977C10.7158 8.7492 15.1278 8.6682 17.6388 8.2842C20.1498 7.9002 23.3908 6.5582 23.5773 4.4942C23.7638 2.4302 20.3268 0.260201 16.3748 0.921201C12.4228 1.5822 9.05679 4.2462 9.88629 6.4977Z" fill="#14A76C"/>
<path d="M34.1099 13.7668C32.3074 14.3648 30.9579 13.9133 28.2769 11.3653C25.5959 8.81728 25.8864 5.66478 27.4189 3.98878C28.9514 2.31278 32.2219 4.09878 33.7094 6.21878C35.1969 8.33878 35.9124 13.1688 34.1099 13.7668Z" fill="#14A76C"/>
<path d="M38.3393 22.1659C36.6713 22.0519 35.4633 20.9319 34.7978 19.3224C34.1323 17.7129 33.8898 15.6394 35.4923 14.6819C37.0948 13.7244 38.6963 16.3334 39.2373 18.0854C39.7783 19.8374 40.0073 22.2799 38.3393 22.1659Z" fill="#14A76C"/>
<path d="M19.8 25.1995C19.3395 27.761 19.7925 28.2295 20.9315 28.6165C21.039 28.661 21.106 28.673 21.2575 28.6306C22.6195 27.0751 22.238 26.401 21.687 25.177C21.6195 24.9735 21.643 24.894 21.699 24.7595C22.127 23.75 22.356 23.171 22.221 21.508C22.202 21.354 22.2045 21.266 22.2755 21.0995C23.033 19.32 22.8325 18.552 20.572 17.882C18.4925 17.9375 18.519 21.286 19.7595 24.735C19.8235 24.913 19.832 25.016 19.8 25.1995Z" fill="white"/>
<path d="M33.5895 28.1674C33.5765 27.7269 33.4946 27.5589 33.2416 27.3724C32.5116 27.0194 32.0121 26.6429 31.2721 26.9214C30.15 27.3429 29.76 28.0634 30.4726 29.9589C29.5701 30.3154 29.4021 30.6939 29.694 31.6859C28.9906 32.0459 28.6581 32.3264 28.2066 33.0079C28.0826 33.1274 27.98 33.1589 27.7555 33.1324C26.7055 32.4569 26.122 32.0524 25.1765 30.8814C25.02 30.6434 24.9935 30.5054 24.9541 30.2589C25.9341 29.3889 26.3481 28.7939 26.0071 26.8819C26.1046 26.3834 26.2701 26.1754 26.5306 25.7224C26.884 24.8184 26.991 24.2394 27.0061 23.0639C27.1 22.6049 27.1695 22.3474 27.364 21.8879C27.398 21.3184 27.3581 21.0159 26.9416 20.5749C26.6676 20.2719 26.422 20.1304 25.752 19.9499C25.218 20.0194 24.9465 20.1414 24.496 20.4619C24.095 20.9419 24.068 21.3624 24.348 22.3669C24.132 23.4919 24.073 24.2274 24.689 26.7684C23.8715 27.7479 23.6385 28.3009 24.341 29.9924C24.497 30.5914 22.3055 29.8284 21.478 29.4354C21.142 29.4699 20.9845 29.5359 20.747 29.7199C20.148 29.6489 19.827 29.4544 19.195 29.7129C18.5425 29.5404 18.176 29.5479 17.5225 29.5524C17.486 29.5069 17.479 29.4654 17.4775 29.3784C17.9495 28.6204 18.2425 28.2244 17.4675 26.1704C17.6825 25.2439 17.6375 24.7299 17.179 23.8264C17.166 23.5819 17.1565 23.4444 17.008 23.1694C17.3345 21.7949 17.191 20.7454 16.003 20.5464C15.035 19.6119 13.248 19.9389 14.022 23.1434C14.061 23.1574 14.512 25.5174 14.8505 25.9394C15.189 26.3614 15.446 26.7269 15.3835 27.3669C15.4485 28.6334 15.597 29.6049 16.6965 29.7809C16.7975 29.8594 16.8295 29.9134 16.8235 30.0359C16.8235 30.0359 15.5445 30.8444 16.2895 32.8554C16.027 34.3989 14.5515 35.3029 14.0845 34.7479C13.548 34.0294 13.464 33.1374 12.9425 32.6804C12.4315 30.5634 10.13 29.9964 9.46655 30.6969C9.46655 30.6969 9.23255 30.8029 9.54155 31.5259C10.227 32.7664 10.416 33.3014 11.218 34.2539C11.876 35.0349 12.496 35.1029 13.129 36.0264C13.054 36.3639 13.0475 36.5904 13.1175 37.0654C13.636 38.7404 14.102 39.6069 14.7555 41.1919C15.115 41.7619 15.344 41.9884 15.774 42.3199C15.774 42.3199 16.9295 42.8924 18.008 42.7814C19.0865 42.6704 19.506 41.4984 19.506 41.4984C19.951 40.8239 20.173 40.4429 20.378 39.7459C20.692 38.5114 20.721 37.8299 20.059 36.6644C20.1065 35.5324 20.472 34.7164 21.883 35.7059C22.793 35.8424 23.1025 36.4269 23.2905 38.4044C22.9215 39.7944 22.952 40.5849 23.0995 41.9994C23.393 42.7694 23.731 42.9549 24.6325 42.8614C25.9425 41.6299 29.2211 35.9184 28.7535 34.4124C29.0881 34.3414 29.2771 34.2759 29.6161 34.0919C32.2056 32.0299 36.0565 29.3724 33.5895 28.1674Z" fill="white"/>
</svg>
