<svg width="170" height="140" viewBox="0 0 170 140" fill="none" xmlns="http://www.w3.org/2000/svg">
<path d="M137.059 46.9326C130.698 42.5186 129.108 33.4581 133.424 26.9531L146.828 7.20588L170 23.4683L156.369 43.2155C152.053 49.7205 143.42 51.3467 137.059 46.9326Z" fill="#E075AD"/>
<path d="M147 7.42791L169.098 0L170 23.6765L147 7.42791Z" fill="#FCEDCD"/>
<path d="M163 2.05881L169 6.17647L168.786 0L163 2.05881Z" fill="#E075AD"/>
<path d="M139.516 48.3824C138.386 43.0324 139.29 39.0781 141.551 35.8216C143.585 33.0303 157.375 13.9565 157.375 13.9565L168 0L162.575 1.86083L146.75 7.21081L133.412 26.9825C129.117 33.4955 130.7 42.3346 137.029 46.9867C137.708 47.6846 138.612 48.1497 139.516 48.3824Z" fill="#EDA9D0"/>
<path d="M131.933 49.4118C118.316 50.3381 111.508 67.4757 105.153 77.434C99.9335 85.7711 94.2598 94.3399 86.0896 100.361C79.5081 105.225 69.2953 109.856 60.8982 107.077C50.0047 103.835 51.5933 95.4978 50.6855 87.3922C50.4586 86.0027 48.416 85.7711 48.1891 87.1606C41.8345 107.772 62.26 115.414 78.3733 108.93C88.3591 104.993 95.8484 97.1189 102.203 88.5502C109.919 77.8971 118.316 53.8119 132.16 51.2644C133.522 51.2644 133.068 49.4118 131.933 49.4118Z" fill="white"/>
<path d="M137.052 53.0058C123.469 80.3788 106.717 102.648 80.2315 117.959C68.0072 125.15 53.972 131.413 40.1631 134.661C31.7872 136.517 21.8267 137.444 13.9036 133.501C2.35845 128.165 -4.43284 115.175 4.39579 103.808C5.07492 102.88 3.49033 102.184 2.81121 102.648C-7.82842 112.391 -2.6218 127.934 8.47059 134.893C23.185 144.172 41.2949 139.068 56.4621 133.269C74.3457 126.31 91.3239 116.335 105.359 103.344C120.753 89.4258 130.487 72.2597 138.863 53.4697C139.542 52.5418 137.504 52.0779 137.052 53.0058Z" fill="white"/>
<path d="M131.61 22.772C129.138 20.4164 126.666 18.2962 123.97 16.6473C123.52 16.4117 122.621 16.4117 121.947 16.6473C112.509 22.772 103.52 30.0746 96.3292 38.7906C95.2056 40.204 97.2281 41.3819 98.3517 41.1463C102.846 40.204 107.116 39.2617 111.61 37.8483C113.633 37.1416 122.621 32.9014 124.419 34.0793C126.217 35.4927 128.689 33.137 126.442 31.7236C123.296 29.6035 119.7 31.7236 116.554 32.9014C112.06 34.5504 107.565 35.9638 103.071 36.9061C106.666 33.3726 110.262 30.0746 114.082 26.7767C116.329 24.8921 119.026 22.3009 121.498 21.1231C124.869 19.7097 127.116 21.5942 130.262 23.9499C131.161 24.8921 132.734 23.7143 131.61 22.772Z" fill="white"/>
<path d="M160.97 42.4377C163.98 44.0574 166.758 45.677 169.305 47.9908C169.768 48.4536 170 49.1477 170 49.8419C167.453 60.948 163.748 72.0541 157.96 81.7719C157.034 83.1602 155.413 81.7719 155.182 80.615C154.487 75.9875 154.024 71.3599 153.792 66.7324C153.792 64.65 154.719 54.4694 152.866 53.0811C151.014 51.6929 152.403 48.685 154.487 50.3046C157.497 52.8498 156.571 56.7832 156.571 60.4852C156.571 65.3441 156.802 70.2031 157.266 75.062C159.349 70.4344 161.202 65.8069 162.822 61.1793C163.749 58.4028 165.369 54.9322 165.601 52.1556C165.832 48.2222 163.285 46.8339 160.044 44.5202C159.118 43.5947 159.581 41.5122 160.97 42.4377Z" fill="white"/>
</svg>
