<svg width="47" height="48" viewBox="0 0 47 48" fill="none" xmlns="http://www.w3.org/2000/svg">
<path d="M42.8643 25.3182C44.2183 25.3182 45.3466 25.3182 46.4749 25.3182C46.4749 24.8661 46.4749 24.4139 46.4749 23.9617C46.4749 23.0574 46.4749 22.1531 46.2493 21.2488C45.3466 21.2488 44.2183 21.2488 43.0899 21.2488C43.0899 22.6053 43.0899 24.1878 42.8643 25.3182Z" fill="#6E72B0"/>
<path d="M43.0891 18.9879C43.9917 18.9879 44.8944 18.9879 45.7971 18.9879C45.5714 17.8575 45.1201 16.501 44.6688 15.3706C43.9918 15.3706 43.3148 15.3706 42.4121 15.3706C42.8634 16.501 43.0891 17.8575 43.0891 18.9879Z" fill="#6E72B0"/>
<path d="M39.2529 33.4571C41.0583 33.4571 42.638 33.4571 44.2176 33.4571C44.8946 31.8746 45.346 30.292 45.7973 28.7095C44.4433 28.7095 43.0893 28.7095 41.7353 28.7095C41.0583 30.5181 40.3813 32.1006 39.2529 33.4571Z" fill="#6E72B0"/>
<path d="M42.1867 14.0143C42.8637 14.0143 43.5406 14.0143 44.2176 14.0143C43.0893 11.5275 41.5096 9.26664 39.4786 7.45801C39.253 7.45801 39.253 7.45801 39.0273 7.45801C40.3813 9.49272 41.5097 11.5275 42.1867 14.0143Z" fill="#6E72B0"/>
<path d="M33.6094 39.5614C36.0917 39.5614 38.3484 39.7874 40.1538 40.0135C41.2821 38.8831 42.1847 37.5266 43.0874 36.1702C41.2821 36.1702 39.4767 36.1702 37.4457 36.1702C36.3174 37.3006 34.9634 38.431 33.6094 39.5614Z" fill="#6E72B0"/>
<path d="M4.04785 37.0745C4.72485 37.9788 5.40184 38.8831 6.07884 39.7874C6.53017 39.7874 6.75584 39.7874 7.20717 39.7874C6.07884 38.8831 5.17618 37.9788 4.04785 37.0745Z" fill="#6E72B0"/>
<path d="M25.7108 42.9524C23.9055 43.4046 22.1002 43.6306 20.2949 43.6306C17.8125 43.6306 15.3302 43.1785 13.0736 42.5002C11.7196 42.5002 10.5912 42.5002 9.46289 42.5002C13.2992 45.4393 18.2638 47.2479 23.4542 47.2479C28.1932 47.2479 32.4809 45.8915 36.0915 43.4046C33.1579 43.4046 29.5472 43.1785 25.7108 42.9524Z" fill="#6E72B0"/>
<path d="M20.2965 43.6299C22.1018 43.6299 24.1328 43.404 25.7125 42.9521C21.4248 42.7262 16.9115 42.5002 13.0752 42.5002C15.3319 43.4039 17.8142 43.6299 20.2965 43.6299Z" fill="#7D8FC7"/>
<path d="M36.9949 5.19708C35.4152 4.06668 33.8356 3.16237 32.0303 2.48413C32.4816 3.38845 32.7073 4.29276 33.1586 5.19708C34.5126 5.19708 35.6409 5.19708 36.9949 5.19708Z" fill="#7D8FC7"/>
<path d="M43.3143 21.2488C39.478 21.2488 35.416 21.2488 30.9027 21.2488C29.7743 22.8313 28.646 24.4139 27.292 25.5443C32.708 25.3182 38.124 25.3182 42.863 25.3182C43.0886 24.1878 43.0887 22.6053 43.3143 21.2488Z" fill="#7D8FC7"/>
<path d="M42.6366 15.3706C39.9286 15.3706 36.7693 15.3706 33.3843 15.1445C33.1586 16.501 32.7073 17.8575 32.0303 19.214C35.8666 18.9879 39.7029 18.9879 43.0879 18.9879C43.0879 17.8575 42.8622 16.501 42.6366 15.3706Z" fill="#7D8FC7"/>
<path d="M42.1867 14.0143C41.5097 11.7535 40.3813 9.49272 39.0273 7.45801C37.6733 7.68409 35.8679 7.68412 33.8369 7.91019C34.0626 9.04059 34.0626 9.9449 34.0626 11.0753C34.0626 11.9796 34.0626 13.11 33.8369 14.0143C36.7706 13.7883 39.4787 13.7883 42.1867 14.0143Z" fill="#7D8FC7"/>
<path d="M33.6094 39.5614C34.9634 38.657 36.3174 37.5266 37.4457 36.1702C26.1624 35.9441 12.1719 35.7178 3.82227 36.396C4.04793 36.6221 4.04789 36.8482 4.27356 37.0742C5.17622 37.9786 6.30461 38.8829 7.43294 39.7872C15.1056 39.5611 25.711 39.3353 33.6094 39.5614Z" fill="#7D8FC7"/>
<path d="M0.211914 24.1877C0.211914 24.866 0.211914 25.5442 0.211914 26.2224C0.888914 26.2224 1.56591 26.2224 2.46858 26.2224C1.56591 25.5442 0.888914 24.866 0.211914 24.1877Z" fill="#7D8FC7"/>
<path d="M39.2529 33.4571C40.1556 32.1006 41.0583 30.5181 41.7353 28.7095C35.8679 28.4834 29.3237 28.4834 23.005 28.2573C20.297 29.6138 17.589 30.292 14.4297 30.292C11.2703 30.292 8.3367 29.6138 5.85437 28.2573C4.04903 28.2573 2.24373 28.4834 0.664062 28.4834C1.1154 30.292 1.56669 31.8746 2.24369 33.4571C12.173 34.1354 27.7439 33.4571 39.2529 33.4571Z" fill="#7D8FC7"/>
<path d="M33.6096 13.7882C33.8353 12.8839 33.8353 11.7535 33.8353 10.8492C33.8353 9.71878 33.8353 8.81448 33.6096 7.68408C25.7113 8.13624 13.9767 8.13623 5.85268 8.58839C4.72434 9.94486 3.59603 11.5274 2.69336 13.11C10.1404 14.0143 22.7776 14.0143 33.6096 13.7882Z" fill="#A2ABD6"/>
<path d="M32.0317 19.2141C32.7087 17.8576 33.1601 16.7272 33.3857 15.1446C21.8767 14.9186 8.78805 14.9186 1.56672 15.8229C1.11538 16.9533 0.889729 18.0837 0.664062 19.4401C7.20839 20.1184 20.0714 19.6662 32.0317 19.2141Z" fill="#A2ABD6"/>
<path d="M2.46858 26.2224C8.33591 26.4485 17.5882 25.9964 27.2919 25.7704C28.6459 24.64 29.9999 23.0574 30.9026 21.4749C18.9423 21.4749 6.53058 21.927 0.211914 23.2835C0.211914 23.5095 0.211914 23.9617 0.211914 24.1877C0.888914 24.866 1.56591 25.5442 2.46858 26.2224Z" fill="#A2ABD6"/>
<path d="M5.85254 28.2573C8.56054 29.6138 11.4942 30.292 14.4278 30.292C17.5872 30.292 20.5209 29.6138 23.0032 28.2573C16.9102 28.2573 10.8172 28.2573 5.85254 28.2573Z" fill="#A2ABD6"/>
<path d="M32.0314 2.48418C29.3234 1.35378 26.3898 0.675537 23.2304 0.675537C16.9118 0.675537 11.2701 3.16243 6.98242 7.23187C12.8498 6.55363 24.5844 5.42321 32.9341 5.19713C32.7084 4.29281 32.4828 3.3885 32.0314 2.48418Z" fill="#A2ABD6"/>
<path d="M42.863 25.3182C42.6373 26.4486 42.1856 27.5789 41.96 28.7093C43.314 28.7093 44.8936 28.7093 46.0219 28.7093C46.2476 27.5789 46.4733 26.4485 46.4733 25.3181C45.1193 25.3181 43.9913 25.3182 42.863 25.3182Z" fill="#152B75"/>
<path d="M37.4457 36.1702C39.4767 36.1702 41.2821 36.1702 43.0874 36.1702C43.5387 35.2658 43.9906 34.5874 44.442 33.6831C42.8623 33.6831 41.2826 33.6831 39.4773 33.6831C38.8003 34.3613 38.1227 35.2658 37.4457 36.1702Z" fill="#152B75"/>
<path d="M13.0736 42.5002C11.0426 41.822 9.01179 40.9178 7.20646 39.5613C6.75512 39.5613 6.52946 39.5613 6.07812 39.5613C6.98079 40.6917 8.10911 41.596 9.23744 42.5003C10.5914 42.5003 11.7196 42.5002 13.0736 42.5002Z" fill="#152B75"/>
<path d="M25.7125 42.9521C29.3231 43.1782 32.9332 43.1785 35.8669 43.4046C37.4466 42.5003 38.8006 41.3699 39.929 40.0134C38.1236 39.7874 35.867 39.5613 33.3846 39.5613C31.3536 41.1438 28.6461 42.2739 25.7125 42.9521Z" fill="#152B75"/>
<path d="M39.4767 7.45632C39.0255 7.00473 38.3487 6.55316 37.8975 6.10156C38.3487 6.55316 38.5743 7.00473 39.0255 7.45632C39.0255 7.45632 39.2511 7.45632 39.4767 7.45632Z" fill="#0076B5"/>
<path d="M42.6358 15.3697C43.3126 15.3697 44.215 15.3697 44.8919 15.3697C44.6663 14.9178 44.4407 14.24 44.2151 13.7881C43.5382 13.7881 42.8614 13.7881 42.1846 13.7881C42.4102 14.4659 42.4101 14.9178 42.6358 15.3697Z" fill="#152B75"/>
<path d="M43.3142 20.7967C43.3142 21.0228 43.3143 21.2488 43.3143 21.2488C44.4427 21.2488 45.3451 21.2488 46.4735 21.2488C46.4735 20.5706 46.2478 19.6663 46.0221 18.988C45.1195 18.988 44.2168 18.988 43.3142 18.988C43.0885 19.6663 43.3142 20.1184 43.3142 20.7967Z" fill="#152B75"/>
<path d="M37.4481 36.17C38.1251 35.2657 38.8021 34.5874 39.4791 33.6831C27.9701 33.6831 12.1735 34.1353 2.24414 33.6831C2.69547 34.5874 3.14683 35.4917 3.82383 36.3961C11.9478 35.7178 26.1648 35.9439 37.4481 36.17Z" fill="#7D8FC7"/>
<path d="M37.4481 36.17C38.1251 35.2657 38.8021 34.5874 39.4791 33.6831C27.9701 33.6831 12.1735 34.1353 2.24414 33.6831C2.69547 34.5874 3.14683 35.4917 3.82383 36.3961C11.9478 35.7178 26.1648 35.9439 37.4481 36.17Z" fill="#485094"/>
<path d="M7.20646 39.5613C9.01179 40.6917 11.0442 41.822 13.0752 42.5002C17.1372 42.5002 21.4248 42.726 25.7125 42.9521C28.4205 42.2739 31.1277 41.1438 33.3844 39.3352C25.7117 39.3352 15.1048 39.5613 7.20646 39.5613Z" fill="#7D8FC7"/>
<path d="M7.20646 39.5613C9.01179 40.6917 11.0442 41.822 13.0752 42.5002C17.1372 42.5002 21.4248 42.726 25.7125 42.9521C28.4205 42.2739 31.1277 41.1438 33.3844 39.3352C25.7117 39.3352 15.1048 39.5613 7.20646 39.5613Z" fill="#485094"/>
<path d="M43.3142 20.7967C43.3142 20.1184 43.3142 19.6663 43.3142 18.988C39.9292 18.988 36.0936 19.2141 32.2572 19.2141C31.8059 19.8924 31.5802 20.5706 31.1289 21.2488C35.4166 21.2488 39.7042 21.2488 43.5406 21.2488C43.3149 21.2488 43.3142 21.0228 43.3142 20.7967Z" fill="#7D8FC7"/>
<path d="M43.3142 20.7967C43.3142 20.1184 43.3142 19.6663 43.3142 18.988C39.9292 18.988 36.0936 19.2141 32.2572 19.2141C31.8059 19.8924 31.5802 20.5706 31.1289 21.2488C35.4166 21.2488 39.7042 21.2488 43.5406 21.2488C43.3149 21.2488 43.3142 21.0228 43.3142 20.7967Z" fill="#485094"/>
<path d="M27.0659 25.7704C25.9375 26.9008 24.3579 27.8051 23.0039 28.4834C29.3226 28.7094 35.8669 28.7094 41.7342 28.9355C42.1855 27.8051 42.4112 26.6747 42.6369 25.5443C37.8979 25.3182 32.4819 25.5443 27.0659 25.7704Z" fill="#7D8FC7"/>
<path d="M27.0659 25.7704C25.9375 26.9008 24.3579 27.8051 23.0039 28.4834C29.3226 28.7094 35.8669 28.7094 41.7342 28.9355C42.1855 27.8051 42.4112 26.6747 42.6369 25.5443C37.8979 25.3182 32.4819 25.5443 27.0659 25.7704Z" fill="#485094"/>
<path d="M42.1867 14.0143C39.4787 14.0143 36.7697 14.0142 33.6104 14.0142C33.6104 14.4663 33.3848 14.9185 33.3848 15.3706C36.5441 15.3706 39.7034 15.3706 42.637 15.5967C42.4114 14.9185 42.4123 14.4665 42.1867 14.0143Z" fill="#7D8FC7"/>
<path d="M42.1867 14.0143C39.4787 14.0143 36.7697 14.0142 33.6104 14.0142C33.6104 14.4663 33.3848 14.9185 33.3848 15.3706C36.5441 15.3706 39.7034 15.3706 42.637 15.5967C42.4114 14.9185 42.4123 14.4665 42.1867 14.0143Z" fill="#485094"/>
<path d="M33.1586 5.19708C33.3843 6.1014 33.6095 6.77959 33.8352 7.68391C35.8662 7.68391 37.6715 7.45784 39.0255 7.23176C38.5742 6.7796 38.3485 6.32743 37.8972 5.87527C37.6716 5.64919 37.2206 5.42316 36.9949 5.19708C35.6409 5.19708 34.5126 5.19708 33.1586 5.19708Z" fill="#7D8FC7"/>
<path d="M33.1586 5.19708C33.3843 6.1014 33.6095 6.77959 33.8352 7.68391C35.8662 7.68391 37.6715 7.45784 39.0255 7.23176C38.5742 6.7796 38.3485 6.32743 37.8972 5.87527C37.6716 5.64919 37.2206 5.42316 36.9949 5.19708C35.6409 5.19708 34.5126 5.19708 33.1586 5.19708Z" fill="#485094"/>
<path d="M2.46858 26.2224C1.56591 26.2224 0.888914 26.2224 0.211914 26.2224C0.211914 27.1268 0.437608 27.8052 0.663275 28.7095C2.24294 28.4835 4.04825 28.4835 5.85358 28.4835C4.49958 27.8052 3.37125 27.1268 2.46858 26.2224Z" fill="#7D8FC7"/>
<path d="M2.46858 26.2224C1.56591 26.2224 0.888914 26.2224 0.211914 26.2224C0.211914 27.1268 0.437608 27.8052 0.663275 28.7095C2.24294 28.4835 4.04825 28.4835 5.85358 28.4835C4.49958 27.8052 3.37125 27.1268 2.46858 26.2224Z" fill="#485094"/>
<path d="M33.1586 5.19708C24.8089 5.42316 13.0739 6.7796 7.20655 7.23176C6.75522 7.68392 6.30401 8.13623 5.85268 8.58839C13.9767 7.91015 25.7113 7.91016 33.6096 7.68408C33.6096 7.00584 33.3843 6.1014 33.1586 5.19708Z" fill="#A2ABD6"/>
<path d="M33.1586 5.19708C24.8089 5.42316 13.0739 6.7796 7.20655 7.23176C6.75522 7.68392 6.30401 8.13623 5.85268 8.58839C13.9767 7.91015 25.7113 7.91016 33.6096 7.68408C33.6096 7.00584 33.3843 6.1014 33.1586 5.19708Z" fill="#6E72B0"/>
<path d="M33.3835 15.3706C33.3835 14.9185 33.6091 14.4663 33.6091 14.0142C22.5514 14.0142 10.1398 14.2403 2.69279 13.562C2.24145 14.4663 1.79012 15.3706 1.56445 16.275C8.78578 15.1446 22.1001 15.1445 33.3835 15.3706Z" fill="#A2ABD6"/>
<path d="M33.3835 15.3706C33.3835 14.9185 33.6091 14.4663 33.6091 14.0142C22.5514 14.0142 10.1398 14.2403 2.69279 13.562C2.24145 14.4663 1.79012 15.3706 1.56445 16.275C8.78578 15.1446 22.1001 15.1445 33.3835 15.3706Z" fill="#6E72B0"/>
<path d="M32.0303 19.214C20.0699 19.6661 7.20839 20.1184 0.664062 19.4401C0.438396 20.5705 0.211914 21.9271 0.211914 23.0575C6.53058 21.701 19.168 21.4749 30.9027 21.2488C31.354 20.7966 31.8046 20.1183 32.0303 19.214Z" fill="#A2ABD6"/>
<path d="M32.0303 19.214C20.0699 19.6661 7.20839 20.1184 0.664062 19.4401C0.438396 20.5705 0.211914 21.9271 0.211914 23.0575C6.53058 21.701 19.168 21.4749 30.9027 21.2488C31.354 20.7966 31.8046 20.1183 32.0303 19.214Z" fill="#6E72B0"/>
<path d="M2.46858 26.2224C3.59691 27.1268 4.72525 27.8052 5.85358 28.4835C10.8182 28.2574 16.9114 28.4835 23.2301 28.4835C24.8098 27.8052 26.1636 26.9008 27.2919 25.7704C17.5882 25.9964 8.33591 26.4485 2.46858 26.2224Z" fill="#A2ABD6"/>
<path d="M2.46858 26.2224C3.59691 27.1268 4.72525 27.8052 5.85358 28.4835C10.8182 28.2574 16.9114 28.4835 23.2301 28.4835C24.8098 27.8052 26.1636 26.9008 27.2919 25.7704C17.5882 25.9964 8.33591 26.4485 2.46858 26.2224Z" fill="#6E72B0"/>
</svg>
