<svg width="73" height="73" viewBox="0 0 73 73" fill="none" xmlns="http://www.w3.org/2000/svg">
<g opacity="0.9">
<path d="M36.2685 72.8369C56.1557 72.8369 72.2773 56.699 72.2773 36.7919C72.2773 16.8847 56.1557 0.746826 36.2685 0.746826C16.3814 0.746826 0.259766 16.8847 0.259766 36.7919C0.259766 56.699 16.3814 72.8369 36.2685 72.8369Z" fill="#6148AF"/>
<path d="M68.9853 53.5791C54.4213 40.3456 21.9436 47.3939 16.2637 66.9564C17.8657 67.9633 19.4678 68.9702 21.2155 69.8332C21.6524 69.8332 21.9436 69.6894 22.2349 69.4017C29.3713 60.6273 44.5178 54.1544 55.8777 57.1751C59.0818 58.0382 62.7228 59.9081 65.6356 59.3328C66.9464 57.6067 68.2571 55.7367 69.2766 53.7229C69.131 53.5791 69.1309 53.5791 68.9853 53.5791Z" fill="#8165C1"/>
<path d="M59.0985 34.4215C62.1798 33.2539 69.8098 29.8969 71.2771 25.8101C69.8098 21.1396 67.4621 16.9069 64.234 13.258C64.0873 13.258 62.4733 11.6525 62.4733 11.3606C58.805 7.56577 54.2564 4.64668 49.1209 2.74927C49.4143 6.69005 48.6806 10.9227 47.947 14.5716C47.0666 18.6584 45.0124 21.2855 42.3713 23.4749C39.7301 24.6425 36.9423 25.5182 34.3011 26.248C27.5515 28.4373 20.6553 30.4807 14.0524 32.816C8.62341 34.8594 3.48782 37.6325 0.259766 42.0111C0.846685 45.806 2.02055 49.4549 3.63458 52.8118C4.36823 52.8118 4.95512 52.5199 5.39531 51.7901C10.3841 41.5733 24.3235 38.3623 34.5946 37.6325C42.8115 37.0487 51.1751 37.3406 59.0985 34.4215Z" fill="#8165C1"/>
<path d="M34.3231 0.746826C15.2359 2.06604 0.259766 17.7501 0.259766 37.0986C0.259766 48.6783 5.69229 59.0855 14.2081 65.8282C33.2954 64.5089 48.2715 48.8249 48.2715 29.4764C48.2715 17.8966 42.839 7.48948 34.3231 0.746826Z" fill="#D3D6F2"/>
</g>
</svg>
