<svg width="49" height="49" viewBox="0 0 49 49" fill="none" xmlns="http://www.w3.org/2000/svg">
<path d="M15.7971 43.1811C11.5094 42.5028 7.44742 40.6942 4.28809 37.9812C6.99608 42.0506 11.0581 45.2157 15.7971 47.0244C15.5714 45.894 15.5714 44.5375 15.7971 43.1811Z" fill="#152B75"/>
<path d="M39.7168 11.0778C40.1681 12.2082 40.6195 13.5647 41.0708 14.9211C42.8761 15.1472 44.9072 15.5994 47.1638 16.0515C46.0355 12.6603 44.0045 9.72125 41.5222 7.23438C41.7478 7.68653 41.7479 8.13871 41.7479 8.59087C41.7479 9.72127 40.8451 10.6256 39.7168 11.0778Z" fill="#152B75"/>
<path d="M40.3939 28.7121C39.0399 32.3294 36.7832 35.4945 34.0752 37.9814C37.2345 38.8857 40.1682 40.0161 41.9735 41.1465C45.1329 37.7553 47.3896 33.6859 48.2922 28.9382C46.0356 28.7122 43.3276 28.0339 40.3939 28.7121Z" fill="#152B75"/>
<path d="M28.885 41.3726C27.7567 41.8247 26.6284 42.2769 25.5 42.729C24.3717 44.0855 23.6947 46.5724 22.792 48.8332C23.2433 48.8332 23.9204 48.8332 24.3717 48.8332C30.0134 48.8332 34.978 47.0246 39.04 43.8594C35.8807 42.729 31.593 41.3726 28.885 41.3726Z" fill="#152B75"/>
<path d="M20.0843 37.3032C23.695 35.9467 29.1105 36.6249 34.0752 37.9814C37.0089 35.4945 39.0399 32.3294 40.3939 28.7121C38.5886 29.1643 36.7836 29.8425 34.7526 31.6512C28.8853 36.851 32.2703 22.834 34.527 17.6342C35.6553 15.1473 37.9119 14.6952 40.8456 14.9213C40.3943 13.5648 39.943 12.4344 39.4917 11.0779C37.0093 11.9822 33.3986 11.5301 32.496 7.46063C31.5933 2.93904 28.434 1.13039 25.2746 0.452148C27.3056 3.1651 28.4339 6.55634 28.4339 10.1736C28.4339 16.956 24.372 22.834 18.5046 25.547C18.5046 25.547 18.2789 25.547 18.2789 25.7731C17.6019 28.9382 16.248 31.4251 11.2833 30.0686C6.77 28.9382 2.48233 26.2252 0 23.0601C0 23.5123 0 23.7383 0 24.1905C0 29.3903 1.58009 33.9118 4.28809 37.9812C7.44742 40.6942 11.5094 42.5028 15.7971 43.1811C16.2484 40.6942 17.3763 38.4336 20.0843 37.3032Z" fill="#7A8AC4"/>
<path d="M25.9513 42.0499C25.7256 42.2757 25.7256 42.5015 25.5 42.7273C26.6281 42.2757 27.757 42.0499 28.885 41.3726C27.5313 41.1468 26.4025 41.3726 25.9513 42.0499Z" fill="#7A8AC4"/>
<path d="M10.6057 19.2167C17.6013 13.7908 21.889 6.33022 25.951 9.26926C30.013 12.2083 25.7253 14.6951 20.9863 17.4081C18.504 18.7645 18.7297 22.834 18.0527 25.9991C18.0527 25.9991 18.2789 25.9992 18.2789 25.7731C24.1463 23.0601 28.2077 17.182 28.2077 10.3997C28.2077 6.78238 27.0793 3.39115 25.0483 0.678192C23.92 0.452112 22.7917 0.226074 21.889 0.226074C12.8623 0.904313 5.41535 6.55628 1.80469 14.4691C4.06135 17.6342 6.31801 22.6079 10.6057 19.2167Z" fill="#ADB7DD"/>
<path d="M41.7485 20.7992C41.7485 23.5121 41.2966 26.2253 40.3939 28.7121C43.3276 28.0339 46.0356 28.7122 48.2922 28.9382C48.5179 27.5818 48.7442 25.999 48.7442 24.4164C48.7442 21.4774 48.2922 18.7645 47.1638 16.0515C44.9072 15.5994 42.8761 15.1472 41.0708 14.9211C41.5221 16.7298 41.7485 18.7644 41.7485 20.7992Z" fill="#001559"/>
<path d="M41.0708 14.9211C38.1371 14.6951 35.881 15.1473 34.7526 17.6342C32.496 22.8341 29.111 36.851 34.9783 31.6512C36.7837 30.0686 38.8147 29.1643 40.62 28.7121C41.5227 26.2252 41.9739 23.5123 41.9739 20.7993C41.7483 18.7646 41.5221 16.7298 41.0708 14.9211Z" fill="#152B75"/>
<path d="M18.9565 43.4072C17.8282 43.4072 16.6998 43.4072 15.7971 43.1811C15.5714 44.5375 15.5714 45.6679 15.7971 47.0244C18.0538 47.9287 20.3105 48.381 22.5672 48.6071C23.4698 46.3463 24.3725 44.0855 25.2751 42.5029C23.2441 43.1812 21.2132 43.4072 18.9565 43.4072Z" fill="#001559"/>
<path d="M28.885 41.3726C31.8187 41.5986 35.8814 42.955 39.0407 43.6332C39.9434 42.955 40.8461 42.0506 41.7488 41.1463C39.9434 40.0159 37.0098 38.6594 33.8504 37.9812C32.4964 39.3377 30.6904 40.4682 28.885 41.3726Z" fill="#001559"/>
<path d="M20.0843 37.3032C17.3763 38.2075 16.2484 40.6942 15.7971 43.1811C16.9254 43.4072 17.8282 43.4072 18.9565 43.4072C21.2132 43.4072 23.2441 43.1812 25.2751 42.5029C25.5008 42.2768 25.5005 42.0508 25.7262 41.8247C26.4032 41.1465 27.3058 41.1464 28.6598 41.1464C30.4652 40.2421 32.2705 39.1117 33.8502 37.7552C29.1112 36.6248 23.695 35.9467 20.0843 37.3032Z" fill="#152B75"/>
<path d="M11.2833 30.2946C16.248 31.6511 17.6019 29.1642 18.2789 25.9991C16.2479 26.9034 13.9913 27.3556 11.5089 27.3556C6.99561 27.3556 3.15933 25.773 0 22.834C0 23.0601 0 23.06 0 23.2861C2.708 26.4512 6.77 28.9381 11.2833 30.2946Z" fill="#152B75"/>
<path d="M18.2779 25.9993C18.9549 22.8341 18.7293 18.7647 21.2116 17.4082C25.9506 14.6952 30.2383 12.4345 26.1763 9.26938C22.1143 6.33034 17.601 13.5649 10.831 19.2169C6.5433 22.6081 4.28666 17.8604 2.25566 14.4692C1.12733 17.1821 0.224609 19.8951 0.224609 23.0602C3.15827 25.7731 7.22029 27.5818 11.7336 27.5818C13.9903 27.3557 16.2469 26.9036 18.2779 25.9993Z" fill="#485094"/>
<path d="M39.7168 11.0778C40.8451 10.6256 41.7479 9.72127 41.7479 8.59087C41.7479 8.13871 41.7478 7.68653 41.5222 7.23438C38.3628 4.06926 34.526 1.80862 30.0127 0.678223C34.3004 3.1651 37.6858 6.78224 39.7168 11.0778Z" fill="#001559"/>
<path d="M32.496 7.46063C33.3986 11.5301 37.235 11.9822 39.4917 11.0779C37.4607 6.7824 34.0756 3.16509 29.7879 0.678211C28.2083 0.226052 26.6286 0 24.8233 0C25.049 0.22608 25.0489 0.226038 25.0489 0.452118C28.4339 1.35644 31.5933 3.16512 32.496 7.46063Z" fill="#152B75"/>
<path d="M25.0482 0.226074C24.8225 0.226074 24.5969 0.226074 24.1457 0.226074C23.4689 0.226074 22.7921 0.226074 22.1152 0.226074C23.0177 0.226074 24.1457 0.45183 25.2738 0.677627C25.2738 0.45183 25.2738 0.226074 25.0482 0.226074Z" fill="#152B75"/>
</svg>
