<svg width="29" height="29" viewBox="0 0 29 29" fill="none" xmlns="http://www.w3.org/2000/svg">
<path d="M28.2091 12.8955L21.1716 11.0618L22.9877 3.95623C23.2147 3.26859 22.7607 2.35175 22.0796 2.35175L14.1341 0.059626C13.453 -0.169586 12.5449 0.288824 12.5449 0.976461L10.7288 8.08205L3.69132 6.24835C3.01027 6.01914 2.10225 6.47758 2.10225 7.16522L0.059049 14.7292C-0.167967 15.4168 0.28612 16.3337 0.967169 16.3337L8.00461 18.1674L6.18851 25.273C5.9615 25.9606 6.41551 26.8774 7.09656 26.8774L14.5881 28.9404C15.2692 29.1696 16.1772 28.7111 16.1772 28.0235L17.9934 20.9179L25.0308 22.7516C25.7119 22.9808 26.62 22.5224 26.62 21.8348L28.6631 14.2708C29.3441 13.8124 28.8901 13.1247 28.2091 12.8955Z" fill="#FCC947"/>
</svg>
