<svg width="490" height="169" viewBox="0 0 490 169" fill="none" xmlns="http://www.w3.org/2000/svg">
<path d="M94.4117 55.4084L101.859 54.278L95.9914 59.2517L97.1197 66.7123L92.155 60.8343L84.7081 61.7386L90.5753 56.9909L89.447 49.3042L94.4117 55.4084Z" fill="white"/>
<path d="M11.7695 160.016L16.7342 165.668L9.51287 163.407L3.87121 168.607L5.90219 161.372L0.9375 155.494L8.15886 157.755L14.0262 152.555L11.7695 160.016Z" fill="white"/>
<path d="M481.906 7.53777L489.128 10.0247L481.681 11.6072L478.973 18.8417L477.393 11.3811L470.172 8.89426L477.619 7.31169L480.327 0.0771484L481.906 7.53777Z" fill="white"/>
<path d="M365.353 80.9536L372.574 83.4404L365.127 85.023L362.419 92.2575L361.065 84.7969L353.844 82.084L361.291 80.5014L363.773 73.2668L365.353 80.9536Z" fill="white"/>
<path d="M255.341 7.53777L262.562 10.0247L255.115 11.6072L252.407 18.8417L251.053 11.3811L243.832 8.89426L251.279 7.31169L253.761 0.0771484L255.341 7.53777Z" fill="white"/>
</svg>
