<svg width="150" height="11" viewBox="0 0 150 11" fill="none" xmlns="http://www.w3.org/2000/svg">
<path fill-rule="evenodd" clip-rule="evenodd" d="M0.00123268 7.9252C0.0170716 6.39736 1.34061 4.53742 3.71347 2.7073C8.10579 -0.681512 12.3061 -0.507752 17.1438 3.26148C18.8624 4.60117 20.7799 6.00872 21.4035 6.38914C22.0272 6.77058 24.8712 5.41444 27.7232 3.37766C33.6994 -0.892284 37.5136 -0.9221 42.882 3.26148C44.6005 4.60117 46.518 6.00872 47.1417 6.38914C47.7653 6.77058 50.6094 5.41444 53.4614 3.37766C59.4376 -0.892284 63.2518 -0.9221 68.6202 3.26148C70.3387 4.60117 72.2562 6.00872 72.8799 6.38914C73.5035 6.77058 76.3416 5.41855 79.1877 3.38588C85.057 -0.806952 88.1248 -0.821341 93.4407 3.31905C95.1196 4.62687 97.0044 6.00872 97.6281 6.38914C98.2517 6.77058 101.096 5.41444 103.948 3.37766C109.924 -0.892284 113.738 -0.9221 119.107 3.26148C120.825 4.60117 122.743 6.00872 123.366 6.38914C123.99 6.77058 126.834 5.41444 129.686 3.37766C135.877 -1.04548 139.34 -0.930328 145.676 3.90921C149.45 7.48866 154.216 13.131 143.092 7.06463C138.241 3.25325 136.123 3.26353 131.212 7.12221C126.209 11.0539 122.409 11.0385 117.353 7.06463C112.503 3.25325 110.384 3.26353 105.474 7.12221C100.471 11.0539 96.6708 11.0385 91.6153 7.06463C88.0436 4.25879 84.639 3.59445 83.1227 4.78007C81.6063 5.96568 76.4456 10.1769 73.6639 10.1491C72.0048 10.1327 69.0854 8.80839 66.867 7.06463C62.0164 3.25325 59.8979 3.26353 54.9879 7.12221C49.9848 11.0539 46.1844 11.0385 41.1288 7.06463C36.2782 3.25325 34.1597 3.26353 29.2497 7.12221C24.2466 11.0539 20.4462 11.0385 15.3907 7.06463C10.7063 3.38383 9.48575 3.30054 5.51316 6.3953C0.371467 10.4 -0.0264853 10.511 0.00123268 7.9252Z" fill="#FF946E"/>
</svg>
