<svg width="39" height="39" viewBox="0 0 39 39" fill="none" xmlns="http://www.w3.org/2000/svg">
<path d="M2 12C2 6.47715 6.47715 2 12 2H27C32.5228 2 37 6.47715 37 12V27C37 32.5228 32.5228 37 27 37H12C6.47715 37 2 32.5228 2 27V12Z" fill="#4478E5"/>
<path fill-rule="evenodd" clip-rule="evenodd" d="M12 0H27C33.6274 0 39 5.37258 39 12V27C39 33.6274 33.6274 39 27 39H12C5.37258 39 0 33.6274 0 27V12C0 5.37258 5.37258 0 12 0ZM12 2C6.47715 2 2 6.47715 2 12V27C2 32.5228 6.47715 37 12 37H27C32.5228 37 37 32.5228 37 27V12C37 6.47715 32.5228 2 27 2H12Z" fill="white"/>
<path fill-rule="evenodd" clip-rule="evenodd" d="M11.9101 13.0621C11.9106 13.0962 11.9648 13.6324 12.0307 14.2534C12.3199 16.982 12.9567 18.959 14.0405 20.4936C14.859 21.6527 16.2779 22.838 17.026 22.9878C17.4946 23.0816 17.4902 23.1276 17.5177 17.8232L17.5427 13H21.3272L21.3569 15.7118C21.3732 17.2032 21.4171 18.4888 21.4544 18.5685C21.6623 19.0121 22.9819 18.3728 24.1339 17.2704C25.0733 16.3714 25.8339 15.2625 26.4259 13.9288L26.8382 13H30.4529L30.3967 13.3519C30.0841 15.3096 28.3865 18.0082 26.5213 19.5124C26.1506 19.8113 25.8193 20.1049 25.7849 20.1646C25.7418 20.2399 25.9964 20.4849 26.6121 20.9603C28.4371 22.3693 29.6502 23.7341 30.4381 25.2648C30.7705 25.9105 31.3482 27.3005 31.3482 27.4546C31.3482 27.4743 30.4366 27.4904 29.3223 27.4904H27.2965L26.8726 26.6417C26.3182 25.5315 25.889 24.9378 25.0845 24.1688C24.0851 23.2133 22.8661 22.5804 21.6907 22.4067L21.3392 22.3547V27.5691L21.1117 27.5336C20.9865 27.5141 20.4189 27.4771 19.8502 27.4512C18.5429 27.392 17.4451 27.2119 16.5186 26.9047C15.6667 26.6223 14.3367 25.9725 13.6366 25.4966C10.3829 23.2849 8.47117 19.265 8.05758 13.7659L8 13H9.95458C11.0296 13 11.9096 13.028 11.9101 13.0621Z" fill="#4478E5"/>
<path d="M11.9101 13.0621C11.9106 13.0962 11.9648 13.6324 12.0307 14.2534C12.3199 16.982 12.9567 18.959 14.0405 20.4936C14.859 21.6527 16.2779 22.838 17.026 22.9878C17.4946 23.0816 17.4902 23.1276 17.5177 17.8232L17.5427 13H21.3272L21.3569 15.7118C21.3732 17.2032 21.4171 18.4888 21.4544 18.5685C21.6623 19.0121 22.9819 18.3728 24.1339 17.2704C25.0733 16.3714 25.8339 15.2625 26.4259 13.9288L26.8382 13H30.4529L30.3967 13.3519C30.0841 15.3096 28.3865 18.0082 26.5213 19.5124C26.1506 19.8113 25.8193 20.1049 25.7849 20.1646C25.7418 20.2399 25.9964 20.4849 26.6121 20.9603C28.4371 22.3693 29.6502 23.7341 30.4381 25.2648C30.7705 25.9105 31.3482 27.3005 31.3482 27.4546C31.3482 27.4743 30.4366 27.4904 29.3223 27.4904H27.2965L26.8726 26.6417C26.3182 25.5315 25.889 24.9378 25.0845 24.1688C24.0851 23.2133 22.8661 22.5804 21.6907 22.4067L21.3392 22.3547V27.5691L21.1117 27.5336C20.9865 27.5141 20.4189 27.4771 19.8502 27.4512C18.5429 27.392 17.4451 27.2119 16.5186 26.9047C15.6667 26.6223 14.3367 25.9725 13.6366 25.4966C10.3829 23.2849 8.47117 19.265 8.05758 13.7659L8 13H9.95458C11.0296 13 11.9096 13.028 11.9101 13.0621Z" fill="white"/>
</svg>
