<svg width="1304" height="430" viewBox="0 0 1304 430" fill="none" xmlns="http://www.w3.org/2000/svg">
<path d="M0.0953261 1.87826C0.221585 0.780934 1.2135 -0.00627463 2.31083 0.119984C5.07989 0.438593 7.84846 0.784782 10.6168 1.15805L10.0823 5.12218C7.33938 4.75234 4.59657 4.40937 1.85361 4.09377C0.756276 3.96751 -0.0309328 2.97559 0.0953261 1.87826Z" fill="#FF946E"/>
<path d="M42.8444 10.7833C37.3948 9.64065 31.9496 8.59618 26.5067 7.65368L27.1892 3.71234C32.6797 4.66308 38.1711 5.71643 43.6653 6.86849L42.8444 10.7833Z" fill="#FF946E"/>
<path d="M75.1277 18.6547C69.7608 17.1691 64.4018 15.7709 59.0489 14.4635L59.9979 10.5777C65.3917 11.8951 70.79 13.3036 76.1948 14.7997L75.1277 18.6547Z" fill="#FF946E"/>
<path d="M106.941 28.4207C101.647 26.6422 96.3645 24.9407 91.0907 23.3197L92.266 19.4963C97.5739 21.1278 102.89 22.8398 108.215 24.6289L106.941 28.4207Z" fill="#FF946E"/>
<path d="M138.242 39.754C133.042 37.7416 127.856 35.796 122.682 33.9202L124.045 30.1597C129.247 32.0456 134.46 34.0013 139.686 36.0236L138.242 39.754Z" fill="#FF946E"/>
<path d="M169.069 52.3698C163.931 50.1588 158.808 48.0057 153.7 45.9135L155.217 42.212C160.347 44.3135 165.491 46.4757 170.65 48.6955L169.069 52.3698Z" fill="#FF946E"/>
<path d="M199.467 66.0128C194.411 63.6556 189.373 61.3478 184.351 59.092L185.99 55.4432C191.03 57.7071 196.085 60.0227 201.158 62.3874L199.467 66.0128Z" fill="#FF946E"/>
<path d="M229.528 80.479C224.507 77.9925 219.506 75.5483 214.522 73.1487L216.258 69.5448C221.255 71.9511 226.27 74.4018 231.303 76.8945L229.528 80.479Z" fill="#FF946E"/>
<path d="M259.244 95.5476C254.284 92.9784 249.344 90.4447 244.424 87.9485L246.234 84.3813C251.165 86.8829 256.114 89.4218 261.084 91.9957L259.244 95.5476Z" fill="#FF946E"/>
<path d="M288.782 111.11C283.848 108.471 278.936 105.861 274.045 103.283L275.91 99.7448C280.809 102.327 285.728 104.941 290.669 107.583L288.782 111.11Z" fill="#FF946E"/>
<path d="M318.124 126.991C313.21 124.304 308.318 121.642 303.448 119.005L305.352 115.487C310.228 118.127 315.124 120.792 320.043 123.481L318.124 126.991Z" fill="#FF946E"/>
<path d="M347.341 143.078C342.454 140.372 337.592 137.685 332.752 135.02L334.682 131.516C339.525 134.183 344.39 136.872 349.279 139.579L347.341 143.078Z" fill="#FF946E"/>
<path d="M376.531 159.296C371.652 156.58 366.797 153.878 361.966 151.193L363.909 147.697C368.741 150.383 373.597 153.085 378.477 155.802L376.531 159.296Z" fill="#FF946E"/>
<path d="M405.735 175.553C400.835 172.828 395.96 170.115 391.111 167.415L393.056 163.92C397.906 166.62 402.78 169.333 407.678 172.057L405.735 175.553Z" fill="#FF946E"/>
<path d="M434.922 191.728C430.019 189.022 425.143 186.324 420.292 183.635L422.231 180.137C427.081 182.825 431.955 185.521 436.854 188.226L434.922 191.728Z" fill="#FF946E"/>
<path d="M464.185 207.783C459.279 205.109 454.399 202.44 449.545 199.776L451.469 196.269C456.32 198.931 461.196 201.599 466.099 204.271L464.185 207.783Z" fill="#FF946E"/>
<path d="M493.567 223.661C488.651 221.028 483.762 218.397 478.898 215.769L480.8 212.25C485.659 214.876 490.544 217.505 495.455 220.134L493.567 223.661Z" fill="#FF946E"/>
<path d="M523.092 239.301C518.146 236.711 513.228 234.12 508.336 231.528L510.209 227.993C515.095 230.582 520.008 233.171 524.948 235.758L523.092 239.301Z" fill="#FF946E"/>
<path d="M552.781 254.651C547.798 252.11 542.842 249.564 537.914 247.015L539.751 243.462C544.673 246.007 549.622 248.55 554.598 251.088L552.781 254.651Z" fill="#FF946E"/>
<path d="M582.651 269.661C577.628 267.177 572.634 264.686 567.668 262.189L569.464 258.615C574.423 261.108 579.41 263.595 584.424 266.076L582.651 269.661Z" fill="#FF946E"/>
<path d="M612.706 284.282C607.646 281.864 602.615 279.437 597.612 277.003L599.363 273.406C604.357 275.836 609.38 278.259 614.431 280.673L612.706 284.282Z" fill="#FF946E"/>
<path d="M642.944 298.468C637.854 296.126 632.793 293.774 627.76 291.413L629.46 287.791C634.483 290.149 639.535 292.497 644.616 294.834L642.944 298.468Z" fill="#FF946E"/>
<path d="M673.401 312.195C668.279 309.935 663.185 307.663 658.121 305.38L659.765 301.733C664.82 304.012 669.903 306.28 675.015 308.535L673.401 312.195Z" fill="#FF946E"/>
<path d="M704.081 325.428C698.925 323.255 693.798 321.069 688.699 318.869L690.284 315.197C695.372 317.392 700.489 319.574 705.634 321.742L704.081 325.428Z" fill="#FF946E"/>
<path d="M734.986 338.138C729.795 336.056 724.633 333.959 719.5 331.848L721.021 328.149C726.144 330.256 731.294 332.348 736.474 334.425L734.986 338.138Z" fill="#FF946E"/>
<path d="M758.355 347.327C755.737 346.318 753.126 345.305 750.522 344.287L751.977 340.562C754.575 341.576 757.181 342.587 759.794 343.594C762.529 344.648 765.255 345.692 767.974 346.725L766.552 350.464C763.828 349.428 761.096 348.383 758.355 347.327Z" fill="#FF946E"/>
<path d="M799.235 362.547C793.814 360.601 788.359 358.614 782.869 356.584L784.257 352.832C789.734 354.858 795.177 356.841 800.586 358.782L799.235 362.547Z" fill="#FF946E"/>
<path d="M832.248 374.006C826.773 372.171 821.263 370.291 815.718 368.366L817.03 364.587C822.562 366.508 828.058 368.383 833.519 370.213L832.248 374.006Z" fill="#FF946E"/>
<path d="M865.467 384.71C859.957 383.008 854.411 381.257 848.83 379.458L850.057 375.65C855.623 377.445 861.153 379.191 866.648 380.889L865.467 384.71Z" fill="#FF946E"/>
<path d="M898.927 394.575C893.375 393.019 887.789 391.412 882.165 389.754L883.297 385.917C888.903 387.571 894.473 389.173 900.006 390.723L898.927 394.575Z" fill="#FF946E"/>
<path d="M932.677 403.506C927.073 402.113 921.432 400.665 915.755 399.162L916.779 395.295C922.437 396.793 928.058 398.236 933.642 399.624L932.677 403.506Z" fill="#FF946E"/>
<path d="M1303.77 404.941C1300.98 405.78 1298.18 406.598 1295.38 407.395L1294.28 403.548C1297.07 402.756 1299.85 401.943 1302.62 401.11L1303.77 404.941Z" fill="#FF946E"/>
<path d="M966.714 411.381C961.067 410.174 955.384 408.909 949.664 407.585L950.566 403.688C956.265 405.007 961.926 406.267 967.55 407.469L966.714 411.381Z" fill="#FF946E"/>
<path d="M1278.49 411.932C1272.84 413.363 1267.17 414.708 1261.48 415.969L1260.61 412.064C1266.26 410.811 1271.89 409.475 1277.51 408.055L1278.49 411.932Z" fill="#FF946E"/>
<path d="M1001 418.061C995.314 417.063 989.589 416.002 983.827 414.879L984.593 410.953C990.33 412.071 996.03 413.127 1001.69 414.121L1001 418.061Z" fill="#FF946E"/>
<path d="M1244.35 419.496C1238.63 420.585 1232.89 421.59 1227.12 422.51L1226.49 418.56C1232.22 417.646 1237.92 416.649 1243.6 415.567L1244.35 419.496Z" fill="#FF946E"/>
<path d="M1035.53 423.405C1029.8 422.64 1024.04 421.808 1018.24 420.909L1018.85 416.956C1024.62 417.851 1030.36 418.679 1036.06 419.44L1035.53 423.405Z" fill="#FF946E"/>
<path d="M1209.82 425.008C1204.05 425.753 1198.26 426.414 1192.45 426.993L1192.05 423.012C1197.83 422.438 1203.58 421.781 1209.31 421.041L1209.82 425.008Z" fill="#FF946E"/>
<path d="M1070.25 427.264C1064.49 426.756 1058.7 426.178 1052.87 425.529L1053.31 421.554C1059.11 422.2 1064.87 422.775 1070.6 423.279L1070.25 427.264Z" fill="#FF946E"/>
<path d="M1175.02 428.469C1169.23 428.876 1163.42 429.201 1157.57 429.445L1157.4 425.448C1163.21 425.206 1168.99 424.883 1174.74 424.479L1175.02 428.469Z" fill="#FF946E"/>
<path d="M1105.12 429.487C1099.34 429.262 1093.52 428.963 1087.67 428.589L1087.93 424.597C1093.74 424.969 1099.53 425.267 1105.27 425.49L1105.12 429.487Z" fill="#FF946E"/>
<path d="M1140.09 429.931C1134.29 430.012 1128.46 430.015 1122.6 429.94L1122.65 425.94C1128.48 426.015 1134.27 426.012 1140.03 425.931L1140.09 429.931Z" fill="#FF946E"/>
</svg>
